<svg xmlns="http://www.w3.org/2000/svg" width="998.364990234375" height="704.1156005859375" viewBox="-321.1675720214844 -236.7252960205078 998.364990234375 704.1156005859375"><title>Neo4j Graph Visualization</title><desc>Created using Neo4j (http://www.neo4j.com/)</desc><g class="layer relationships"><g class="relationship" transform="translate(-94.3703142935647 250.7945447972112) rotate(199.51973867920924)"><path class="outline" fill="#A5ABB6" stroke="none" d="M 25 0.5 L 83.41165386451874 0.5 L 83.41165386451874 -0.5 L 25 -0.5 Z M 117.85696636451874 0.5 L 176.26862022903748 0.5 L 176.26862022903748 3.5 L 183.26862022903748 0 L 176.26862022903748 -3.5 L 176.26862022903748 -0.5 L 117.85696636451874 -0.5 Z"/><text text-anchor="middle" pointer-events="none" font-size="8px" fill="#000000" x="100.63431011451874" y="3" transform="rotate(180 100.63431011451874 0)" font-family="sans-serif">ORIGIN</text></g><g class="relationship" transform="translate(-94.3703142935647 250.7945447972112) rotate(367.99551913213435)"><path class="outline" fill="#A5ABB6" stroke="none" d="M 25 0.5 L 80.86928542293383 0.5 L 80.86928542293383 -0.5 L 25 -0.5 Z M 140.06069167293384 0.5 L 195.92997709586766 0.5 L 195.92997709586766 3.5 L 202.92997709586766 0 L 195.92997709586766 -3.5 L 195.92997709586766 -0.5 L 140.06069167293384 -0.5 Z"/><text text-anchor="middle" pointer-events="none" font-size="8px" fill="#000000" x="110.46498854793383" y="3" font-family="sans-serif">DESTINATION</text></g><g class="relationship" transform="translate(179.48072971488932 438.39034188866776) rotate(252.84017758912137)"><path class="outline" fill="#A5ABB6" stroke="none" d="M 25 0.5 L 60.85457835746412 0.5 L 60.85457835746412 -0.5 L 25 -0.5 Z M 95.29989085746412 0.5 L 131.15446921492824 0.5 L 131.15446921492824 3.5 L 138.15446921492824 0 L 131.15446921492824 -3.5 L 131.15446921492824 -0.5 L 95.29989085746412 -0.5 Z"/><text text-anchor="middle" pointer-events="none" font-size="8px" fill="#000000" x="78.07723460746412" y="3" transform="rotate(180 78.07723460746412 0)" font-family="sans-serif">ORIGIN</text></g><g class="relationship" transform="translate(179.48072971488932 438.39034188866776) rotate(299.38423772770267)"><path class="outline" fill="#A5ABB6" stroke="none" d="M 25 0.5 L 27.057396313507674 0.5 L 27.057396313507674 -0.5 L 25 -0.5 Z M 57.506615063507674 0.5 L 59.56401137701535 0.5 L 59.56401137701535 3.5 L 66.56401137701535 0 L 59.56401137701535 -3.5 L 59.56401137701535 -0.5 L 57.506615063507674 -0.5 Z"/><text text-anchor="middle" pointer-events="none" font-size="8px" fill="#000000" x="42.282005688507674" y="3" font-family="sans-serif">DES…</text></g><g class="relationship" transform="translate(363.8029350244913 232.53732385873667) rotate(497.873819719321)"><path class="outline" fill="#A5ABB6" stroke="none" d="M 25 0.5 L 60.87812882481768 0.5 L 60.87812882481768 -0.5 L 25 -0.5 Z M 120.06953507481768 0.5 L 155.94766389963536 0.5 L 155.94766389963536 3.5 L 162.94766389963536 0 L 155.94766389963536 -3.5 L 155.94766389963536 -0.5 L 120.06953507481768 -0.5 Z"/><text text-anchor="middle" pointer-events="none" font-size="8px" fill="#000000" x="90.47383194981768" y="3" transform="rotate(180 90.47383194981768 0)" font-family="sans-serif">DESTINATION</text></g><g class="relationship" transform="translate(363.8029350244913 232.53732385873667) rotate(292.6828400619364)"><path class="outline" fill="#A5ABB6" stroke="none" d="M 25 0.5 L 71.72734592102725 0.5 L 71.72734592102725 -0.5 L 25 -0.5 Z M 106.17265842102725 0.5 L 152.9000043420545 0.5 L 152.9000043420545 3.5 L 159.9000043420545 0 L 152.9000043420545 -3.5 L 152.9000043420545 -0.5 L 106.17265842102725 -0.5 Z"/><text text-anchor="middle" pointer-events="none" font-size="8px" fill="#000000" x="88.95000217102725" y="3" font-family="sans-serif">ORIGIN</text></g><g class="relationship" transform="translate(548.5610073933009 56.64589359092549) rotate(537.3290435057213)"><path class="outline" fill="#A5ABB6" stroke="none" d="M 25 0.5 L 36.06660524096003 0.5 L 36.06660524096003 -0.5 L 25 -0.5 Z M 70.51191774096003 0.5 L 81.57852298192006 0.5 L 81.57852298192006 3.5 L 88.57852298192006 0 L 81.57852298192006 -3.5 L 81.57852298192006 -0.5 L 70.51191774096003 -0.5 Z"/><text text-anchor="middle" pointer-events="none" font-size="8px" fill="#000000" x="53.28926149096003" y="3" transform="rotate(180 53.28926149096003 0)" font-family="sans-serif">ORIGIN</text></g><g class="relationship" transform="translate(548.5610073933009 56.64589359092549) rotate(382.4646912967555)"><path class="outline" fill="#A5ABB6" stroke="none" d="M 25 0.5 L 26.073139105555498 0.5 L 26.073139105555498 -0.5 L 25 -0.5 Z M 74.7450141055555 0.5 L 75.818153211111 0.5 L 75.818153211111 3.5 L 82.818153211111 0 L 75.818153211111 -3.5 L 75.818153211111 -0.5 L 74.7450141055555 -0.5 Z"/><text text-anchor="middle" pointer-events="none" font-size="8px" fill="#000000" x="50.4090766055555" y="3" font-family="sans-serif">DESTINA…</text></g><g class="relationship" transform="translate(538.0488100888226 176.11237392247537) rotate(227.96109439612871)"><path class="outline" fill="#A5ABB6" stroke="none" d="M 25 0.5 L 56.14229705148969 0.5 L 56.14229705148969 -0.5 L 25 -0.5 Z M 90.58760955148969 0.5 L 121.72990660297938 0.5 L 121.72990660297938 3.5 L 128.72990660297938 0 L 121.72990660297938 -3.5 L 121.72990660297938 -0.5 L 90.58760955148969 -0.5 Z"/><text text-anchor="middle" pointer-events="none" font-size="8px" fill="#000000" x="73.36495330148969" y="3" transform="rotate(180 73.36495330148969 0)" font-family="sans-serif">ORIGIN</text></g><g class="relationship" transform="translate(538.0488100888226 176.11237392247537) rotate(324.60375901170823)"><path class="outline" fill="#A5ABB6" stroke="none" d="M 25 0.5 L 34.46637458684813 0.5 L 34.46637458684813 -0.5 L 25 -0.5 Z M 93.65778083684813 0.5 L 103.12415542369627 0.5 L 103.12415542369627 3.5 L 110.12415542369627 0 L 103.12415542369627 -3.5 L 103.12415542369627 -0.5 L 93.65778083684813 -0.5 Z"/><text text-anchor="middle" pointer-events="none" font-size="8px" fill="#000000" x="64.06207771184813" y="3" font-family="sans-serif">DESTINATION</text></g><g class="relationship" transform="translate(543.6458629911464 116.4741907424747) rotate(206.67707580401083)"><path class="outline" fill="#A5ABB6" stroke="none" d="M 25 0.5 L 40.012533305117664 0.5 L 40.012533305117664 -0.5 L 25 -0.5 Z M 74.45784580511767 0.5 L 89.47037911023533 0.5 L 89.47037911023533 3.5 L 96.47037911023533 0 L 89.47037911023533 -3.5 L 89.47037911023533 -0.5 L 74.45784580511767 -0.5 Z"/><text text-anchor="middle" pointer-events="none" font-size="8px" fill="#000000" x="57.235189555117664" y="3" transform="rotate(180 57.235189555117664 0)" font-family="sans-serif">ORIGIN</text></g><g class="relationship" transform="translate(543.6458629911464 116.4741907424747) rotate(349.8968107568328)"><path class="outline" fill="#A5ABB6" stroke="none" d="M 25 0.5 L 25.26321755816224 0.5 L 25.26321755816224 -0.5 L 25 -0.5 Z M 73.93509255816224 0.5 L 74.19831011632448 0.5 L 74.19831011632448 3.5 L 81.19831011632448 0 L 74.19831011632448 -3.5 L 74.19831011632448 -0.5 L 73.93509255816224 -0.5 Z"/><text text-anchor="middle" pointer-events="none" font-size="8px" fill="#000000" x="49.59915505816224" y="3" font-family="sans-serif">DESTINA…</text></g><g class="relationship" transform="translate(589.2040061076376 12.533380485563963) rotate(522.2236699819965)"><path class="outline" fill="#A5ABB6" stroke="none" d="M 25 0.5 L 60.189513145849006 0.5 L 60.189513145849006 -0.5 L 25 -0.5 Z M 94.634825645849 0.5 L 129.824338791698 0.5 L 129.824338791698 3.5 L 136.824338791698 0 L 129.824338791698 -3.5 L 129.824338791698 -0.5 L 94.634825645849 -0.5 Z"/><text text-anchor="middle" pointer-events="none" font-size="8px" fill="#000000" x="77.412169395849" y="3" transform="rotate(180 77.412169395849 0)" font-family="sans-serif">ORIGIN</text></g><g class="relationship" transform="translate(589.2040061076376 12.533380485563963) rotate(415.3358682525045)"><path class="outline" fill="#A5ABB6" stroke="none" d="M 25 0.5 L 26.693012218048743 0.5 L 26.693012218048743 -0.5 L 25 -0.5 Z M 70.02894971804875 0.5 L 71.72196193609749 0.5 L 71.72196193609749 3.5 L 78.72196193609749 0 L 71.72196193609749 -3.5 L 71.72196193609749 -0.5 L 70.02894971804875 -0.5 Z"/><text text-anchor="middle" pointer-events="none" font-size="8px" fill="#000000" x="48.36098096804874" y="3" font-family="sans-serif">DESTIN…</text></g><g class="relationship" transform="translate(534.4197014219427 -11.587630799342053) rotate(503.48586314144234)"><path class="outline" fill="#A5ABB6" stroke="none" d="M 25 0.5 L 41.06195459881173 0.5 L 41.06195459881173 -0.5 L 25 -0.5 Z M 75.50726709881172 0.5 L 91.56922169762346 0.5 L 91.56922169762346 3.5 L 98.56922169762346 0 L 91.56922169762346 -3.5 L 91.56922169762346 -0.5 L 75.50726709881172 -0.5 Z"/><text text-anchor="middle" pointer-events="none" font-size="8px" fill="#000000" x="58.28461084881173" y="3" transform="rotate(180 58.28461084881173 0)" font-family="sans-serif">ORIGIN</text></g><g class="relationship" transform="translate(534.4197014219427 -11.587630799342053) rotate(403.88473395343107)"><path class="outline" fill="#A5ABB6" stroke="none" d="M 25 0.5 L 45.83591979419026 0.5 L 45.83591979419026 -0.5 L 25 -0.5 Z M 105.02732604419026 0.5 L 125.86324583838052 0.5 L 125.86324583838052 3.5 L 132.86324583838052 0 L 125.86324583838052 -3.5 L 125.86324583838052 -0.5 L 105.02732604419026 -0.5 Z"/><text text-anchor="middle" pointer-events="none" font-size="8px" fill="#000000" x="75.43162291919026" y="3" font-family="sans-serif">DESTINATION</text></g><g class="relationship" transform="translate(-252.29243549134037 348.6147293550417) rotate(257.0887133281271)"><path class="outline" fill="#A5ABB6" stroke="none" d="M 25 0.5 L 65.15317984157355 0.5 L 65.15317984157355 -0.5 L 25 -0.5 Z M 99.59849234157355 0.5 L 139.7516721831471 0.5 L 139.7516721831471 3.5 L 146.7516721831471 0 L 139.7516721831471 -3.5 L 139.7516721831471 -0.5 L 99.59849234157355 -0.5 Z"/><text text-anchor="middle" pointer-events="none" font-size="8px" fill="#000000" x="82.37583609157355" y="3" transform="rotate(180 82.37583609157355 0)" font-family="sans-serif">ORIGIN</text></g><g class="relationship" transform="translate(-252.29243549134037 348.6147293550417) rotate(354.9542197990437)"><path class="outline" fill="#A5ABB6" stroke="none" d="M 25 0.5 L 52.57739514384316 0.5 L 52.57739514384316 -0.5 L 25 -0.5 Z M 111.76880139384316 0.5 L 139.34619653768632 0.5 L 139.34619653768632 3.5 L 146.34619653768632 0 L 139.34619653768632 -3.5 L 139.34619653768632 -0.5 L 111.76880139384316 -0.5 Z"/><text text-anchor="middle" pointer-events="none" font-size="8px" fill="#000000" x="82.17309826884316" y="3" font-family="sans-serif">DESTINATION</text></g><g class="relationship" transform="translate(63.21738721042771 413.4987422130701) rotate(208.90153103993134)"><path class="outline" fill="#A5ABB6" stroke="none" d="M 25 0.5 L 61.993301387235576 0.5 L 61.993301387235576 -0.5 L 25 -0.5 Z M 96.43861388723558 0.5 L 133.43191527447115 0.5 L 133.43191527447115 3.5 L 140.43191527447115 0 L 133.43191527447115 -3.5 L 133.43191527447115 -0.5 L 96.43861388723558 -0.5 Z"/><text text-anchor="middle" pointer-events="none" font-size="8px" fill="#000000" x="79.21595763723558" y="3" transform="rotate(180 79.21595763723558 0)" font-family="sans-serif">ORIGIN</text></g><g class="relationship" transform="translate(63.21738721042771 413.4987422130701) rotate(341.1939900671605)"><path class="outline" fill="#A5ABB6" stroke="none" d="M 25 0.5 L 52.04473691491684 0.5 L 52.04473691491684 -0.5 L 25 -0.5 Z M 111.23614316491684 0.5 L 138.28088007983368 0.5 L 138.28088007983368 3.5 L 145.28088007983368 0 L 138.28088007983368 -3.5 L 138.28088007983368 -0.5 L 111.23614316491684 -0.5 Z"/><text text-anchor="middle" pointer-events="none" font-size="8px" fill="#000000" x="81.64044003991684" y="3" font-family="sans-serif">DESTINATION</text></g><g class="relationship" transform="translate(-249.53034503881668 288.76848217855826) rotate(249.07010898927393)"><path class="outline" fill="#A5ABB6" stroke="none" d="M 25 0.5 L 36.85815800496124 0.5 L 36.85815800496124 -0.5 L 25 -0.5 Z M 71.30347050496124 0.5 L 83.16162850992248 0.5 L 83.16162850992248 3.5 L 90.16162850992248 0 L 83.16162850992248 -3.5 L 83.16162850992248 -0.5 L 71.30347050496124 -0.5 Z"/><text text-anchor="middle" pointer-events="none" font-size="8px" fill="#000000" x="54.08081425496124" y="3" transform="rotate(180 54.08081425496124 0)" font-family="sans-serif">ORIGIN</text></g><g class="relationship" transform="translate(-249.53034503881668 288.76848217855826) rotate(374.9305786149503)"><path class="outline" fill="#A5ABB6" stroke="none" d="M 25 0.5 L 53.79798754152212 0.5 L 53.79798754152212 -0.5 L 25 -0.5 Z M 112.98939379152212 0.5 L 141.78738133304424 0.5 L 141.78738133304424 3.5 L 148.78738133304424 0 L 141.78738133304424 -3.5 L 141.78738133304424 -0.5 L 112.98939379152212 -0.5 Z"/><text text-anchor="middle" pointer-events="none" font-size="8px" fill="#000000" x="83.39369066652212" y="3" font-family="sans-serif">DESTINATION</text></g><g class="relationship" transform="translate(-199.12323869165238 321.10428764674674) rotate(236.80042929097914)"><path class="outline" fill="#A5ABB6" stroke="none" d="M 25 0.5 L 62.872078058392034 0.5 L 62.872078058392034 -0.5 L 25 -0.5 Z M 97.31739055839203 0.5 L 135.18946861678407 0.5 L 135.18946861678407 3.5 L 142.18946861678407 0 L 135.18946861678407 -3.5 L 135.18946861678407 -0.5 L 97.31739055839203 -0.5 Z"/><text text-anchor="middle" pointer-events="none" font-size="8px" fill="#000000" x="80.09473430839203" y="3" transform="rotate(180 80.09473430839203 0)" font-family="sans-serif">ORIGIN</text></g><g class="relationship" transform="translate(-199.12323869165238 321.10428764674674) rotate(366.0429843647101)"><path class="outline" fill="#A5ABB6" stroke="none" d="M 25 0.5 L 25.98911405849598 0.5 L 25.98911405849598 -0.5 L 25 -0.5 Z M 85.18052030849597 0.5 L 86.16963436699196 0.5 L 86.16963436699196 3.5 L 93.16963436699196 0 L 86.16963436699196 -3.5 L 86.16963436699196 -0.5 L 85.18052030849597 -0.5 Z"/><text text-anchor="middle" pointer-events="none" font-size="8px" fill="#000000" x="55.58481718349598" y="3" font-family="sans-serif">DESTINATION</text></g><g class="relationship" transform="translate(-196.22130985739338 261.2016162123242) rotate(220.2642482291243)"><path class="outline" fill="#A5ABB6" stroke="none" d="M 25 0.5 L 41.16384567629115 0.5 L 41.16384567629115 -0.5 L 25 -0.5 Z M 75.60915817629115 0.5 L 91.7730038525823 0.5 L 91.7730038525823 3.5 L 98.7730038525823 0 L 91.7730038525823 -3.5 L 91.7730038525823 -0.5 L 75.60915817629115 -0.5 Z"/><text text-anchor="middle" pointer-events="none" font-size="8px" fill="#000000" x="58.38650192629115" y="3" transform="rotate(180 58.38650192629115 0)" font-family="sans-serif">ORIGIN</text></g><g class="relationship" transform="translate(-196.22130985739338 261.2016162123242) rotate(392.2602725089806)"><path class="outline" fill="#A5ABB6" stroke="none" d="M 25 0.5 L 34.670796678728834 0.5 L 34.670796678728834 -0.5 L 25 -0.5 Z M 93.86220292872883 0.5 L 103.53299960745767 0.5 L 103.53299960745767 3.5 L 110.53299960745767 0 L 103.53299960745767 -3.5 L 103.53299960745767 -0.5 L 93.86220292872883 -0.5 Z"/><text text-anchor="middle" pointer-events="none" font-size="8px" fill="#000000" x="64.26649980372883" y="3" font-family="sans-serif">DESTINATION</text></g><g class="relationship" transform="translate(205.24798339737026 127.85451870129874) rotate(475.5430226693904)"><path class="outline" fill="#A5ABB6" stroke="none" d="M 25 0.5 L 52.6023181041848 0.5 L 52.6023181041848 -0.5 L 25 -0.5 Z M 111.7937243541848 0.5 L 139.3960424583696 0.5 L 139.3960424583696 3.5 L 146.3960424583696 0 L 139.3960424583696 -3.5 L 139.3960424583696 -0.5 L 111.7937243541848 -0.5 Z"/><text text-anchor="middle" pointer-events="none" font-size="8px" fill="#000000" x="82.1980212291848" y="3" transform="rotate(180 82.1980212291848 0)" font-family="sans-serif">DESTINATION</text></g><g class="relationship" transform="translate(205.24798339737026 127.85451870129874) rotate(248.71979171060934)"><path class="outline" fill="#A5ABB6" stroke="none" d="M 25 0.5 L 63.35970356334488 0.5 L 63.35970356334488 -0.5 L 25 -0.5 Z M 97.80501606334488 0.5 L 136.16471962668976 0.5 L 136.16471962668976 3.5 L 143.16471962668976 0 L 136.16471962668976 -3.5 L 136.16471962668976 -0.5 L 97.80501606334488 -0.5 Z"/><text text-anchor="middle" pointer-events="none" font-size="8px" fill="#000000" x="80.58235981334488" y="3" transform="rotate(180 80.58235981334488 0)" font-family="sans-serif">ORIGIN</text></g><g class="relationship" transform="translate(296.8668091729852 -11.475168476191792) rotate(186.49134553295715)"><path class="outline" fill="#A5ABB6" stroke="none" d="M 25 0.5 L 43.7221515949993 0.5 L 43.7221515949993 -0.5 L 25 -0.5 Z M 102.9135578449993 0.5 L 121.6357094399986 0.5 L 121.6357094399986 3.5 L 128.6357094399986 0 L 121.6357094399986 -3.5 L 121.6357094399986 -0.5 L 102.9135578449993 -0.5 Z"/><text text-anchor="middle" pointer-events="none" font-size="8px" fill="#000000" x="73.3178547199993" y="3" transform="rotate(180 73.3178547199993 0)" font-family="sans-serif">DESTINATION</text></g><g class="relationship" transform="translate(296.8668091729852 -11.475168476191792) rotate(387.9711761713025)"><path class="outline" fill="#A5ABB6" stroke="none" d="M 25 0.5 L 57.53913152236137 0.5 L 57.53913152236137 -0.5 L 25 -0.5 Z M 91.98444402236137 0.5 L 124.52357554472275 0.5 L 124.52357554472275 3.5 L 131.52357554472275 0 L 124.52357554472275 -3.5 L 124.52357554472275 -0.5 L 91.98444402236137 -0.5 Z"/><text text-anchor="middle" pointer-events="none" font-size="8px" fill="#000000" x="74.76178777236137" y="3" font-family="sans-serif">ORIGIN</text></g><g class="relationship" transform="translate(323.29309401913525 -65.09844177926756) rotate(528.555115550344)"><path class="outline" fill="#A5ABB6" stroke="none" d="M 25 0.5 L 58.25931051507398 0.5 L 58.25931051507398 -0.5 L 25 -0.5 Z M 117.45071676507398 0.5 L 150.71002728014795 0.5 L 150.71002728014795 3.5 L 157.71002728014795 0 L 150.71002728014795 -3.5 L 150.71002728014795 -0.5 L 117.45071676507398 -0.5 Z"/><text text-anchor="middle" pointer-events="none" font-size="8px" fill="#000000" x="87.85501364007398" y="3" transform="rotate(180 87.85501364007398 0)" font-family="sans-serif">DESTINATION</text></g><g class="relationship" transform="translate(323.29309401913525 -65.09844177926756) rotate(408.6471076176417)"><path class="outline" fill="#A5ABB6" stroke="none" d="M 25 0.5 L 63.89490096094657 0.5 L 63.89490096094657 -0.5 L 25 -0.5 Z M 98.34021346094657 0.5 L 137.23511442189314 0.5 L 137.23511442189314 3.5 L 144.23511442189314 0 L 137.23511442189314 -3.5 L 137.23511442189314 -0.5 L 98.34021346094657 -0.5 Z"/><text text-anchor="middle" pointer-events="none" font-size="8px" fill="#000000" x="81.11755721094657" y="3" font-family="sans-serif">ORIGIN</text></g><g class="relationship" transform="translate(145.8203457294648 120.36860772126691) rotate(455.1023434285501)"><path class="outline" fill="#A5ABB6" stroke="none" d="M 25 0.5 L 48.29180402118237 0.5 L 48.29180402118237 -0.5 L 25 -0.5 Z M 107.48321027118237 0.5 L 130.77501429236474 0.5 L 130.77501429236474 3.5 L 137.77501429236474 0 L 130.77501429236474 -3.5 L 130.77501429236474 -0.5 L 107.48321027118237 -0.5 Z"/><text text-anchor="middle" pointer-events="none" font-size="8px" fill="#000000" x="77.88750714618237" y="3" transform="rotate(180 77.88750714618237 0)" font-family="sans-serif">DESTINATION</text></g><g class="relationship" transform="translate(145.8203457294648 120.36860772126691) rotate(269.3840013859689)"><path class="outline" fill="#A5ABB6" stroke="none" d="M 25 0.5 L 53.888043133809276 0.5 L 53.888043133809276 -0.5 L 25 -0.5 Z M 88.33335563380928 0.5 L 117.22139876761855 0.5 L 117.22139876761855 3.5 L 124.22139876761855 0 L 117.22139876761855 -3.5 L 117.22139876761855 -0.5 L 88.33335563380928 -0.5 Z"/><text text-anchor="middle" pointer-events="none" font-size="8px" fill="#000000" x="71.11069938380928" y="3" transform="rotate(180 71.11069938380928 0)" font-family="sans-serif">ORIGIN</text></g><g class="relationship" transform="translate(293.6809018126255 48.36916769617247) rotate(207.32081609783393)"><path class="outline" fill="#A5ABB6" stroke="none" d="M 25 0.5 L 51.019747179015866 0.5 L 51.019747179015866 -0.5 L 25 -0.5 Z M 110.21115342901587 0.5 L 136.23090060803173 0.5 L 136.23090060803173 3.5 L 143.23090060803173 0 L 136.23090060803173 -3.5 L 136.23090060803173 -0.5 L 110.21115342901587 -0.5 Z"/><text text-anchor="middle" pointer-events="none" font-size="8px" fill="#000000" x="80.61545030401587" y="3" transform="rotate(180 80.61545030401587 0)" font-family="sans-serif">DESTINATION</text></g><g class="relationship" transform="translate(293.6809018126255 48.36916769617247) rotate(365.4806597568792)"><path class="outline" fill="#A5ABB6" stroke="none" d="M 25 0.5 L 50.31457657885683 0.5 L 50.31457657885683 -0.5 L 25 -0.5 Z M 84.75988907885683 0.5 L 110.07446565771366 0.5 L 110.07446565771366 3.5 L 117.07446565771366 0 L 110.07446565771366 -3.5 L 110.07446565771366 -0.5 L 84.75988907885683 -0.5 Z"/><text text-anchor="middle" pointer-events="none" font-size="8px" fill="#000000" x="67.53723282885683" y="3" font-family="sans-serif">ORIGIN</text></g><g class="relationship" transform="translate(66.13281097889755 173.03238317093354) rotate(492.62794808740784)"><path class="outline" fill="#A5ABB6" stroke="none" d="M 25 0.5 L 75.98243984265436 0.5 L 75.98243984265436 -0.5 L 25 -0.5 Z M 135.17384609265434 0.5 L 186.15628593530872 0.5 L 186.15628593530872 3.5 L 193.15628593530872 0 L 186.15628593530872 -3.5 L 186.15628593530872 -0.5 L 135.17384609265434 -0.5 Z"/><text text-anchor="middle" pointer-events="none" font-size="8px" fill="#000000" x="105.57814296765436" y="3" transform="rotate(180 105.57814296765436 0)" font-family="sans-serif">DESTINATION</text></g><g class="relationship" transform="translate(66.13281097889755 173.03238317093354) rotate(291.1458300039796)"><path class="outline" fill="#A5ABB6" stroke="none" d="M 25 0.5 L 87.50296036801754 0.5 L 87.50296036801754 -0.5 L 25 -0.5 Z M 121.94827286801754 0.5 L 184.45123323603508 0.5 L 184.45123323603508 3.5 L 191.45123323603508 0 L 184.45123323603508 -3.5 L 184.45123323603508 -0.5 L 121.94827286801754 -0.5 Z"/><text text-anchor="middle" pointer-events="none" font-size="8px" fill="#000000" x="104.72561661801754" y="3" font-family="sans-serif">ORIGIN</text></g><g class="relationship" transform="translate(15.778804000263083 140.65615787721313) rotate(476.7891411870578)"><path class="outline" fill="#A5ABB6" stroke="none" d="M 25 0.5 L 74.9442853920379 0.5 L 74.9442853920379 -0.5 L 25 -0.5 Z M 134.1356916420379 0.5 L 184.0799770340758 0.5 L 184.0799770340758 3.5 L 191.0799770340758 0 L 184.0799770340758 -3.5 L 184.0799770340758 -0.5 L 134.1356916420379 -0.5 Z"/><text text-anchor="middle" pointer-events="none" font-size="8px" fill="#000000" x="104.5399885170379" y="3" transform="rotate(180 104.5399885170379 0)" font-family="sans-serif">DESTINATION</text></g><g class="relationship" transform="translate(15.778804000263083 140.65615787721313) rotate(307.1526838082306)"><path class="outline" fill="#A5ABB6" stroke="none" d="M 25 0.5 L 85.6099476911347 0.5 L 85.6099476911347 -0.5 L 25 -0.5 Z M 120.0552601911347 0.5 L 180.6652078822694 0.5 L 180.6652078822694 3.5 L 187.6652078822694 0 L 180.6652078822694 -3.5 L 180.6652078822694 -0.5 L 120.0552601911347 -0.5 Z"/><text text-anchor="middle" pointer-events="none" font-size="8px" fill="#000000" x="102.8326039411347" y="3" font-family="sans-serif">ORIGIN</text></g><g class="relationship" transform="translate(-207.78170251631522 -27.57304500234799) rotate(471.6536090008333)"><path class="outline" fill="#A5ABB6" stroke="none" d="M 25 0.5 L 91.59247075779014 0.5 L 91.59247075779014 -0.5 L 25 -0.5 Z M 126.03778325779014 0.5 L 192.63025401558028 0.5 L 192.63025401558028 3.5 L 199.63025401558028 0 L 192.63025401558028 -3.5 L 192.63025401558028 -0.5 L 126.03778325779014 -0.5 Z"/><text text-anchor="middle" pointer-events="none" font-size="8px" fill="#000000" x="108.81512700779014" y="3" transform="rotate(180 108.81512700779014 0)" font-family="sans-serif">ORIGIN</text></g><g class="relationship" transform="translate(-207.78170251631522 -27.57304500234799) rotate(311.2051897411542)"><path class="outline" fill="#A5ABB6" stroke="none" d="M 25 0.5 L 86.62981625787062 0.5 L 86.62981625787062 -0.5 L 25 -0.5 Z M 145.82122250787063 0.5 L 207.45103876574123 0.5 L 207.45103876574123 3.5 L 214.45103876574123 0 L 207.45103876574123 -3.5 L 207.45103876574123 -0.5 L 145.82122250787063 -0.5 Z"/><text text-anchor="middle" pointer-events="none" font-size="8px" fill="#000000" x="116.22551938287062" y="3" font-family="sans-serif">DESTINATION</text></g><g class="relationship" transform="translate(129.09121625496164 -174.08503379153586) rotate(190.6359905303438)"><path class="outline" fill="#A5ABB6" stroke="none" d="M 25 0.5 L 70.40939067503918 0.5 L 70.40939067503918 -0.5 L 25 -0.5 Z M 104.85470317503918 0.5 L 150.26409385007835 0.5 L 150.26409385007835 3.5 L 157.26409385007835 0 L 150.26409385007835 -3.5 L 150.26409385007835 -0.5 L 104.85470317503918 -0.5 Z"/><text text-anchor="middle" pointer-events="none" font-size="8px" fill="#000000" x="87.63204692503918" y="3" transform="rotate(180 87.63204692503918 0)" font-family="sans-serif">ORIGIN</text></g><g class="relationship" transform="translate(129.09121625496164 -174.08503379153586) rotate(444.05485651608376)"><path class="outline" fill="#A5ABB6" stroke="none" d="M 25 0.5 L 39.9174301024875 0.5 L 39.9174301024875 -0.5 L 25 -0.5 Z M 99.1088363524875 0.5 L 114.026266454975 0.5 L 114.026266454975 3.5 L 121.026266454975 0 L 114.026266454975 -3.5 L 114.026266454975 -0.5 L 99.1088363524875 -0.5 Z"/><text text-anchor="middle" pointer-events="none" font-size="8px" fill="#000000" x="69.5131332274875" y="3" font-family="sans-serif">DESTINATION</text></g><g class="relationship" transform="translate(78.7487750865789 -206.50524375543645) rotate(180.5427535104776)"><path class="outline" fill="#A5ABB6" stroke="none" d="M 25 0.5 L 31.302328051590877 0.5 L 31.302328051590877 -0.5 L 25 -0.5 Z M 90.49373430159088 0.5 L 96.79606235318175 0.5 L 96.79606235318175 3.5 L 103.79606235318175 0 L 96.79606235318175 -3.5 L 96.79606235318175 -0.5 L 90.49373430159088 -0.5 Z"/><text text-anchor="middle" pointer-events="none" font-size="8px" fill="#000000" x="60.89803117659088" y="3" transform="rotate(180 60.89803117659088 0)" font-family="sans-serif">DESTINATION</text></g><g class="relationship" transform="translate(78.7487750865789 -206.50524375543645) rotate(429.7713893110492)"><path class="outline" fill="#A5ABB6" stroke="none" d="M 25 0.5 L 73.94706501342885 0.5 L 73.94706501342885 -0.5 L 25 -0.5 Z M 108.39237751342885 0.5 L 157.3394425268577 0.5 L 157.3394425268577 3.5 L 164.3394425268577 0 L 157.3394425268577 -3.5 L 157.3394425268577 -0.5 L 108.39237751342885 -0.5 Z"/><text text-anchor="middle" pointer-events="none" font-size="8px" fill="#000000" x="91.16972126342885" y="3" font-family="sans-serif">ORIGIN</text></g><g class="relationship" transform="translate(75.77622912611837 -146.65980678800346) rotate(205.88956009143385)"><path class="outline" fill="#A5ABB6" stroke="none" d="M 25 0.5 L 36.831216395205004 0.5 L 36.831216395205004 -0.5 L 25 -0.5 Z M 96.022622645205 0.5 L 107.85383904041001 0.5 L 107.85383904041001 3.5 L 114.85383904041001 0 L 107.85383904041001 -3.5 L 107.85383904041001 -0.5 L 96.022622645205 -0.5 Z"/><text text-anchor="middle" pointer-events="none" font-size="8px" fill="#000000" x="66.426919520205" y="3" transform="rotate(180 66.426919520205 0)" font-family="sans-serif">DESTINATION</text></g><g class="relationship" transform="translate(75.77622912611837 -146.65980678800346) rotate(419.8474296116202)"><path class="outline" fill="#A5ABB6" stroke="none" d="M 25 0.5 L 47.40321324603386 0.5 L 47.40321324603386 -0.5 L 25 -0.5 Z M 81.84852574603386 0.5 L 104.25173899206771 0.5 L 104.25173899206771 3.5 L 111.25173899206771 0 L 104.25173899206771 -3.5 L 104.25173899206771 -0.5 L 81.84852574603386 -0.5 Z"/><text text-anchor="middle" pointer-events="none" font-size="8px" fill="#000000" x="64.62586949603386" y="3" font-family="sans-serif">ORIGIN</text></g><g class="relationship" transform="translate(-220.66902486195048 90.93906245178583) rotate(487.7929473281079)"><path class="outline" fill="#A5ABB6" stroke="none" d="M 25 0.5 L 36.39128962013708 0.5 L 36.39128962013708 -0.5 L 25 -0.5 Z M 70.83660212013709 0.5 L 82.22789174027416 0.5 L 82.22789174027416 3.5 L 89.22789174027416 0 L 82.22789174027416 -3.5 L 82.22789174027416 -0.5 L 70.83660212013709 -0.5 Z"/><text text-anchor="middle" pointer-events="none" font-size="8px" fill="#000000" x="53.61394587013708" y="3" transform="rotate(180 53.61394587013708 0)" font-family="sans-serif">ORIGIN</text></g><g class="relationship" transform="translate(-220.66902486195048 90.93906245178583) rotate(371.022170528155)"><path class="outline" fill="#A5ABB6" stroke="none" d="M 25 0.5 L 42.863399167581335 0.5 L 42.863399167581335 -0.5 L 25 -0.5 Z M 102.05480541758133 0.5 L 119.91820458516267 0.5 L 119.91820458516267 3.5 L 126.91820458516267 0 L 119.91820458516267 -3.5 L 119.91820458516267 -0.5 L 102.05480541758133 -0.5 Z"/><text text-anchor="middle" pointer-events="none" font-size="8px" fill="#000000" x="72.45910229258133" y="3" font-family="sans-serif">DESTINATION</text></g><g class="relationship" transform="translate(49.79414940933825 47.81370071423808) rotate(509.25825526224344)"><path class="outline" fill="#A5ABB6" stroke="none" d="M 25 0.5 L 37.49776782705803 0.5 L 37.49776782705803 -0.5 L 25 -0.5 Z M 96.68917407705803 0.5 L 109.18694190411605 0.5 L 109.18694190411605 3.5 L 116.18694190411605 0 L 109.18694190411605 -3.5 L 109.18694190411605 -0.5 L 96.68917407705803 -0.5 Z"/><text text-anchor="middle" pointer-events="none" font-size="8px" fill="#000000" x="67.09347095205803" y="3" transform="rotate(180 67.09347095205803 0)" font-family="sans-serif">DESTINATION</text></g><g class="relationship" transform="translate(49.79414940933825 47.81370071423808) rotate(320.92805677247077)"><path class="outline" fill="#A5ABB6" stroke="none" d="M 25 0.5 L 40.08837727144443 0.5 L 40.08837727144443 -0.5 L 25 -0.5 Z M 74.53368977144443 0.5 L 89.62206704288886 0.5 L 89.62206704288886 3.5 L 96.62206704288886 0 L 89.62206704288886 -3.5 L 89.62206704288886 -0.5 L 74.53368977144443 -0.5 Z"/><text text-anchor="middle" pointer-events="none" font-size="8px" fill="#000000" x="57.31103352144443" y="3" font-family="sans-serif">ORIGIN</text></g><g class="relationship" transform="translate(-195.15905133886878 145.24247219380428) rotate(519.3668288681247)"><path class="outline" fill="#A5ABB6" stroke="none" d="M 25 0.5 L 30.30548056091728 0.5 L 30.30548056091728 -0.5 L 25 -0.5 Z M 64.75079306091729 0.5 L 70.05627362183456 0.5 L 70.05627362183456 3.5 L 77.05627362183456 0 L 70.05627362183456 -3.5 L 70.05627362183456 -0.5 L 64.75079306091729 -0.5 Z"/><text text-anchor="middle" pointer-events="none" font-size="8px" fill="#000000" x="47.52813681091728" y="3" transform="rotate(180 47.52813681091728 0)" font-family="sans-serif">ORIGIN</text></g><g class="relationship" transform="translate(-195.15905133886878 145.24247219380428) rotate(348.4508435775997)"><path class="outline" fill="#A5ABB6" stroke="none" d="M 25 0.5 L 29.98437949690581 0.5 L 29.98437949690581 -0.5 L 25 -0.5 Z M 89.1757857469058 0.5 L 94.16016524381162 0.5 L 94.16016524381162 3.5 L 101.16016524381162 0 L 94.16016524381162 -3.5 L 94.16016524381162 -0.5 L 89.1757857469058 -0.5 Z"/><text text-anchor="middle" pointer-events="none" font-size="8px" fill="#000000" x="59.58008262190581" y="3" font-family="sans-serif">DESTINATION</text></g><g class="relationship" transform="translate(11.977774484895505 1.2726639060785312) rotate(485.13202804178195)"><path class="outline" fill="#A5ABB6" stroke="none" d="M 25 0.5 L 51.85460754035648 0.5 L 51.85460754035648 -0.5 L 25 -0.5 Z M 86.29992004035648 0.5 L 113.15452758071297 0.5 L 113.15452758071297 3.5 L 120.15452758071297 0 L 113.15452758071297 -3.5 L 113.15452758071297 -0.5 L 86.29992004035648 -0.5 Z"/><text text-anchor="middle" pointer-events="none" font-size="8px" fill="#000000" x="69.07726379035648" y="3" transform="rotate(180 69.07726379035648 0)" font-family="sans-serif">ORIGIN</text></g><g class="relationship" transform="translate(11.977774484895505 1.2726639060785312) rotate(347.16991533855344)"><path class="outline" fill="#A5ABB6" stroke="none" d="M 25 0.5 L 34.71651829230174 0.5 L 34.71651829230174 -0.5 L 25 -0.5 Z M 93.90792454230174 0.5 L 103.62444283460349 0.5 L 103.62444283460349 3.5 L 110.62444283460349 0 L 103.62444283460349 -3.5 L 103.62444283460349 -0.5 L 93.90792454230174 -0.5 Z"/><text text-anchor="middle" pointer-events="none" font-size="8px" fill="#000000" x="64.31222141730174" y="3" font-family="sans-serif">DESTINATION</text></g><g class="relationship" transform="translate(-292.16755938198156 12.020235968765911) rotate(449.4925136215031)"><path class="outline" fill="#A5ABB6" stroke="none" d="M 25 0.5 L 63.87325450315684 0.5 L 63.87325450315684 -0.5 L 25 -0.5 Z M 98.31856700315684 0.5 L 137.1918215063137 0.5 L 137.1918215063137 3.5 L 144.1918215063137 0 L 137.1918215063137 -3.5 L 137.1918215063137 -0.5 L 98.31856700315684 -0.5 Z"/><text text-anchor="middle" pointer-events="none" font-size="8px" fill="#000000" x="81.09591075315684" y="3" font-family="sans-serif">ORIGIN</text></g><g class="relationship" transform="translate(-292.16755938198156 12.020235968765911) rotate(313.93944423025033)"><path class="outline" fill="#A5ABB6" stroke="none" d="M 25 0.5 L 62.51203482654995 0.5 L 62.51203482654995 -0.5 L 25 -0.5 Z M 121.70344107654995 0.5 L 159.2154759030999 0.5 L 159.2154759030999 3.5 L 166.2154759030999 0 L 159.2154759030999 -3.5 L 159.2154759030999 -0.5 L 121.70344107654995 -0.5 Z"/><text text-anchor="middle" pointer-events="none" font-size="8px" fill="#000000" x="92.10773795154995" y="3" font-family="sans-serif">DESTINATION</text></g><g class="relationship" transform="translate(6.924316177762452 -137.35839939024467) rotate(535.9818239017372)"><path class="outline" fill="#A5ABB6" stroke="none" d="M 25 0.5 L 50.31327385918283 0.5 L 50.31327385918283 -0.5 L 25 -0.5 Z M 109.50468010918283 0.5 L 134.81795396836566 0.5 L 134.81795396836566 3.5 L 141.81795396836566 0 L 134.81795396836566 -3.5 L 134.81795396836566 -0.5 L 109.50468010918283 -0.5 Z"/><text text-anchor="middle" pointer-events="none" font-size="8px" fill="#000000" x="79.90897698418283" y="3" transform="rotate(180 79.90897698418283 0)" font-family="sans-serif">DESTINATION</text></g><g class="relationship" transform="translate(6.924316177762452 -137.35839939024467) rotate(398.3225443524235)"><path class="outline" fill="#A5ABB6" stroke="none" d="M 25 0.5 L 66.7764343992397 0.5 L 66.7764343992397 -0.5 L 25 -0.5 Z M 101.2217468992397 0.5 L 142.9981812984794 0.5 L 142.9981812984794 3.5 L 149.9981812984794 0 L 142.9981812984794 -3.5 L 142.9981812984794 -0.5 L 101.2217468992397 -0.5 Z"/><text text-anchor="middle" pointer-events="none" font-size="8px" fill="#000000" x="83.9990906492397" y="3" font-family="sans-serif">ORIGIN</text></g><g class="relationship" transform="translate(-10.25561028045286 -79.96250124127491) rotate(197.0291064572234)"><path class="outline" fill="#A5ABB6" stroke="none" d="M 25 0.5 L 44.93965449868465 0.5 L 44.93965449868465 -0.5 L 25 -0.5 Z M 104.13106074868465 0.5 L 124.0707152473693 0.5 L 124.0707152473693 3.5 L 131.0707152473693 0 L 124.0707152473693 -3.5 L 124.0707152473693 -0.5 L 104.13106074868465 -0.5 Z"/><text text-anchor="middle" pointer-events="none" font-size="8px" fill="#000000" x="74.53535762368465" y="3" transform="rotate(180 74.53535762368465 0)" font-family="sans-serif">DESTINATION</text></g><g class="relationship" transform="translate(-10.25561028045286 -79.96250124127491) rotate(378.310601911439)"><path class="outline" fill="#A5ABB6" stroke="none" d="M 25 0.5 L 60.6324037613884 0.5 L 60.6324037613884 -0.5 L 25 -0.5 Z M 95.0777162613884 0.5 L 130.7101200227768 0.5 L 130.7101200227768 3.5 L 137.7101200227768 0 L 130.7101200227768 -3.5 L 130.7101200227768 -0.5 L 95.0777162613884 -0.5 Z"/><text text-anchor="middle" pointer-events="none" font-size="8px" fill="#000000" x="77.8550600113884" y="3" font-family="sans-serif">ORIGIN</text></g><g class="relationship" transform="translate(62.391119458270055 275.3109496865377) rotate(229.22752999570247)"><path class="outline" fill="#A5ABB6" stroke="none" d="M 25 0.5 L 69.45612136814503 0.5 L 69.45612136814503 -0.5 L 25 -0.5 Z M 128.64752761814503 0.5 L 173.10364898629007 0.5 L 173.10364898629007 3.5 L 180.10364898629007 0 L 173.10364898629007 -3.5 L 173.10364898629007 -0.5 L 128.64752761814503 -0.5 Z"/><text text-anchor="middle" pointer-events="none" font-size="8px" fill="#000000" x="99.05182449314503" y="3" transform="rotate(180 99.05182449314503 0)" font-family="sans-serif">DESTINATION</text></g><g class="relationship" transform="translate(62.391119458270055 275.3109496865377) rotate(387.20835933918204)"><path class="outline" fill="#A5ABB6" stroke="none" d="M 25 0.5 L 70.36456435134062 0.5 L 70.36456435134062 -0.5 L 25 -0.5 Z M 104.80987685134062 0.5 L 150.17444120268124 0.5 L 150.17444120268124 3.5 L 157.17444120268124 0 L 150.17444120268124 -3.5 L 150.17444120268124 -0.5 L 104.80987685134062 -0.5 Z"/><text text-anchor="middle" pointer-events="none" font-size="8px" fill="#000000" x="87.58722060134062" y="3" font-family="sans-serif">ORIGIN</text></g></g><g class="layer nodes"><g class="node" transform="translate(-290.6689948660343,181.20542080779327)"><circle class="outline" cx="0" cy="0" r="25" fill="#ECB5C9" stroke="#da7298" stroke-width="2px"/><text text-anchor="middle" pointer-events="none" font-family="sans-serif" dy="1.5625" font-size="25" fill="#2A2C34"/><text text-anchor="middle" pointer-events="none" x="0" y="5" font-size="10px" fill="#2A2C34" font-family="sans-serif"> LAX</text></g><g class="node" transform="translate(648.1974002022199,97.84472112134672)"><circle class="outline" cx="0" cy="0" r="25" fill="#ECB5C9" stroke="#da7298" stroke-width="2px"/><text text-anchor="middle" pointer-events="none" font-family="sans-serif" dy="1.5625" font-size="25" fill="#2A2C34"/><text text-anchor="middle" pointer-events="none" x="0" y="5" font-size="10px" fill="#2A2C34" font-family="sans-serif"> DAY</text></g><g class="node" transform="translate(-94.3703142935647,250.7945447972112)"><circle class="outline" cx="0" cy="0" r="25" fill="#4C8EDA" stroke="#2870c2" stroke-width="2px"/><text text-anchor="middle" pointer-events="none" font-family="sans-serif" dy="1.5625" font-size="25" fill="#FFFFFF"/><text text-anchor="middle" pointer-events="none" x="0" y="5" font-size="10px" fill="#FFFFFF" font-family="sans-serif"> 11/29/20…</text></g><g class="node" transform="translate(131.34394406894322,282.4986144221944)"><circle class="outline" cx="0" cy="0" r="25" fill="#ECB5C9" stroke="#da7298" stroke-width="2px"/><text text-anchor="middle" pointer-events="none" font-family="sans-serif" dy="1.5625" font-size="25" fill="#2A2C34"/><text text-anchor="middle" pointer-events="none" x="0" y="5" font-size="10px" fill="#2A2C34" font-family="sans-serif"> LAS</text></g><g class="node" transform="translate(179.48072971488932,438.39034188866776)"><circle class="outline" cx="0" cy="0" r="25" fill="#4C8EDA" stroke="#2870c2" stroke-width="2px"/><text text-anchor="middle" pointer-events="none" font-family="sans-serif" dy="1.5625" font-size="25" fill="#FFFFFF"/><text text-anchor="middle" pointer-events="none" x="0" y="5" font-size="10px" fill="#FFFFFF" font-family="sans-serif"> 11/29/20…</text></g><g class="node" transform="translate(224.40789938136453,358.6061479326595)"><circle class="outline" cx="0" cy="0" r="25" fill="#ECB5C9" stroke="#da7298" stroke-width="2px"/><text text-anchor="middle" pointer-events="none" font-family="sans-serif" dy="1.5625" font-size="25" fill="#2A2C34"/><text text-anchor="middle" pointer-events="none" x="0" y="5" font-size="10px" fill="#2A2C34" font-family="sans-serif"> DEN</text></g><g class="node" transform="translate(363.8029350244913,232.53732385873667)"><circle class="outline" cx="0" cy="0" r="25" fill="#4C8EDA" stroke="#2870c2" stroke-width="2px"/><text text-anchor="middle" pointer-events="none" font-family="sans-serif" dy="1.5625" font-size="25" fill="#FFFFFF"/><text text-anchor="middle" pointer-events="none" x="0" y="5" font-size="10px" fill="#FFFFFF" font-family="sans-serif"> 11/29/20…</text></g><g class="node" transform="translate(435.10587326640933,61.9386644157006)"><circle class="outline" cx="0" cy="0" r="25" fill="#ECB5C9" stroke="#da7298" stroke-width="2px"/><text text-anchor="middle" pointer-events="none" font-family="sans-serif" dy="1.5625" font-size="25" fill="#2A2C34"/><text text-anchor="middle" pointer-events="none" x="0" y="5" font-size="10px" fill="#2A2C34" font-family="sans-serif"> MSP</text></g><g class="node" transform="translate(548.5610073933009,56.64589359092549)"><circle class="outline" cx="0" cy="0" r="25" fill="#4C8EDA" stroke="#2870c2" stroke-width="2px"/><text text-anchor="middle" pointer-events="none" font-family="sans-serif" dy="1.5625" font-size="25" fill="#FFFFFF"/><text text-anchor="middle" pointer-events="none" x="0" y="5" font-size="10px" fill="#FFFFFF" font-family="sans-serif"> 11/23/20…</text></g><g class="node" transform="translate(538.0488100888226,176.11237392247537)"><circle class="outline" cx="0" cy="0" r="25" fill="#4C8EDA" stroke="#2870c2" stroke-width="2px"/><text text-anchor="middle" pointer-events="none" font-family="sans-serif" dy="1.5625" font-size="25" fill="#FFFFFF"/><text text-anchor="middle" pointer-events="none" x="0" y="5" font-size="10px" fill="#FFFFFF" font-family="sans-serif"> 11/20/20…</text></g><g class="node" transform="translate(543.6458629911464,116.4741907424747)"><circle class="outline" cx="0" cy="0" r="25" fill="#4C8EDA" stroke="#2870c2" stroke-width="2px"/><text text-anchor="middle" pointer-events="none" font-family="sans-serif" dy="1.5625" font-size="25" fill="#FFFFFF"/><text text-anchor="middle" pointer-events="none" x="0" y="5" font-size="10px" fill="#FFFFFF" font-family="sans-serif"> 11/25/20…</text></g><g class="node" transform="translate(589.2040061076376,12.533380485563963)"><circle class="outline" cx="0" cy="0" r="25" fill="#4C8EDA" stroke="#2870c2" stroke-width="2px"/><text text-anchor="middle" pointer-events="none" font-family="sans-serif" dy="1.5625" font-size="25" fill="#FFFFFF"/><text text-anchor="middle" pointer-events="none" x="0" y="5" font-size="10px" fill="#FFFFFF" font-family="sans-serif"> 11/16/20…</text></g><g class="node" transform="translate(534.4197014219427,-11.587630799342053)"><circle class="outline" cx="0" cy="0" r="25" fill="#4C8EDA" stroke="#2870c2" stroke-width="2px"/><text text-anchor="middle" pointer-events="none" font-family="sans-serif" dy="1.5625" font-size="25" fill="#FFFFFF"/><text text-anchor="middle" pointer-events="none" x="0" y="5" font-size="10px" fill="#FFFFFF" font-family="sans-serif"> 11/11/20…</text></g><g class="node" transform="translate(-252.29243549134037,348.6147293550417)"><circle class="outline" cx="0" cy="0" r="25" fill="#4C8EDA" stroke="#2870c2" stroke-width="2px"/><text text-anchor="middle" pointer-events="none" font-family="sans-serif" dy="1.5625" font-size="25" fill="#FFFFFF"/><text text-anchor="middle" pointer-events="none" x="0" y="5" font-size="10px" fill="#FFFFFF" font-family="sans-serif"> 11/3/2015</text></g><g class="node" transform="translate(-81.61024978657298,333.54454186534105)"><circle class="outline" cx="0" cy="0" r="25" fill="#ECB5C9" stroke="#da7298" stroke-width="2px"/><text text-anchor="middle" pointer-events="none" font-family="sans-serif" dy="1.5625" font-size="25" fill="#2A2C34"/><text text-anchor="middle" pointer-events="none" x="0" y="5" font-size="10px" fill="#2A2C34" font-family="sans-serif"> SMF</text></g><g class="node" transform="translate(63.21738721042771,413.4987422130701)"><circle class="outline" cx="0" cy="0" r="25" fill="#4C8EDA" stroke="#2870c2" stroke-width="2px"/><text text-anchor="middle" pointer-events="none" font-family="sans-serif" dy="1.5625" font-size="25" fill="#FFFFFF"/><text text-anchor="middle" pointer-events="none" x="0" y="5" font-size="10px" fill="#FFFFFF" font-family="sans-serif"> 11/30/20…</text></g><g class="node" transform="translate(-249.53034503881668,288.76848217855826)"><circle class="outline" cx="0" cy="0" r="25" fill="#4C8EDA" stroke="#2870c2" stroke-width="2px"/><text text-anchor="middle" pointer-events="none" font-family="sans-serif" dy="1.5625" font-size="25" fill="#FFFFFF"/><text text-anchor="middle" pointer-events="none" x="0" y="5" font-size="10px" fill="#FFFFFF" font-family="sans-serif"> 11/2/2015</text></g><g class="node" transform="translate(-199.12323869165238,321.10428764674674)"><circle class="outline" cx="0" cy="0" r="25" fill="#4C8EDA" stroke="#2870c2" stroke-width="2px"/><text text-anchor="middle" pointer-events="none" font-family="sans-serif" dy="1.5625" font-size="25" fill="#FFFFFF"/><text text-anchor="middle" pointer-events="none" x="0" y="5" font-size="10px" fill="#FFFFFF" font-family="sans-serif"> 11/1/2015</text></g><g class="node" transform="translate(-196.22130985739338,261.2016162123242)"><circle class="outline" cx="0" cy="0" r="25" fill="#4C8EDA" stroke="#2870c2" stroke-width="2px"/><text text-anchor="middle" pointer-events="none" font-family="sans-serif" dy="1.5625" font-size="25" fill="#FFFFFF"/><text text-anchor="middle" pointer-events="none" x="0" y="5" font-size="10px" fill="#FFFFFF" font-family="sans-serif"> 11/4/2015</text></g><g class="node" transform="translate(205.24798339737026,127.85451870129874)"><circle class="outline" cx="0" cy="0" r="25" fill="#4C8EDA" stroke="#2870c2" stroke-width="2px"/><text text-anchor="middle" pointer-events="none" font-family="sans-serif" dy="1.5625" font-size="25" fill="#FFFFFF"/><text text-anchor="middle" pointer-events="none" x="0" y="5" font-size="10px" fill="#FFFFFF" font-family="sans-serif"> 11/29/20…</text></g><g class="node selected" transform="translate(144.2160669361827,-28.844166998989735)"><circle class="outline" cx="0" cy="0" r="25" fill="#ECB5C9" stroke="#da7298" stroke-width="2px"/><text text-anchor="middle" pointer-events="none" font-family="sans-serif" dy="1.5625" font-size="25" fill="#2A2C34"/><text text-anchor="middle" pointer-events="none" x="0" y="5" font-size="10px" fill="#2A2C34" font-family="sans-serif"> ORD</text></g><g class="node" transform="translate(296.8668091729852,-11.475168476191792)"><circle class="outline" cx="0" cy="0" r="25" fill="#4C8EDA" stroke="#2870c2" stroke-width="2px"/><text text-anchor="middle" pointer-events="none" font-family="sans-serif" dy="1.5625" font-size="25" fill="#FFFFFF"/><text text-anchor="middle" pointer-events="none" x="0" y="5" font-size="10px" fill="#FFFFFF" font-family="sans-serif"> 11/29/20…</text></g><g class="node" transform="translate(323.29309401913525,-65.09844177926756)"><circle class="outline" cx="0" cy="0" r="25" fill="#4C8EDA" stroke="#2870c2" stroke-width="2px"/><text text-anchor="middle" pointer-events="none" font-family="sans-serif" dy="1.5625" font-size="25" fill="#FFFFFF"/><text text-anchor="middle" pointer-events="none" x="0" y="5" font-size="10px" fill="#FFFFFF" font-family="sans-serif"> 11/29/20…</text></g><g class="node" transform="translate(145.8203457294648,120.36860772126691)"><circle class="outline" cx="0" cy="0" r="25" fill="#4C8EDA" stroke="#2870c2" stroke-width="2px"/><text text-anchor="middle" pointer-events="none" font-family="sans-serif" dy="1.5625" font-size="25" fill="#FFFFFF"/><text text-anchor="middle" pointer-events="none" x="0" y="5" font-size="10px" fill="#FFFFFF" font-family="sans-serif"> 11/29/20…</text></g><g class="node" transform="translate(293.6809018126255,48.36916769617247)"><circle class="outline" cx="0" cy="0" r="25" fill="#4C8EDA" stroke="#2870c2" stroke-width="2px"/><text text-anchor="middle" pointer-events="none" font-family="sans-serif" dy="1.5625" font-size="25" fill="#FFFFFF"/><text text-anchor="middle" pointer-events="none" x="0" y="5" font-size="10px" fill="#FFFFFF" font-family="sans-serif"> 11/30/20…</text></g><g class="node" transform="translate(66.13281097889755,173.03238317093354)"><circle class="outline" cx="0" cy="0" r="25" fill="#4C8EDA" stroke="#2870c2" stroke-width="2px"/><text text-anchor="middle" pointer-events="none" font-family="sans-serif" dy="1.5625" font-size="25" fill="#FFFFFF"/><text text-anchor="middle" pointer-events="none" x="0" y="5" font-size="10px" fill="#FFFFFF" font-family="sans-serif"> 11/30/20…</text></g><g class="node" transform="translate(15.778804000263083,140.65615787721313)"><circle class="outline" cx="0" cy="0" r="25" fill="#4C8EDA" stroke="#2870c2" stroke-width="2px"/><text text-anchor="middle" pointer-events="none" font-family="sans-serif" dy="1.5625" font-size="25" fill="#FFFFFF"/><text text-anchor="middle" pointer-events="none" x="0" y="5" font-size="10px" fill="#FFFFFF" font-family="sans-serif"> 11/29/20…</text></g><g class="node" transform="translate(-207.78170251631522,-27.57304500234799)"><circle class="outline" cx="0" cy="0" r="25" fill="#4C8EDA" stroke="#2870c2" stroke-width="2px"/><text text-anchor="middle" pointer-events="none" font-family="sans-serif" dy="1.5625" font-size="25" fill="#FFFFFF"/><text text-anchor="middle" pointer-events="none" x="0" y="5" font-size="10px" fill="#FFFFFF" font-family="sans-serif"> 11/30/20…</text></g><g class="node" transform="translate(-50.04150857710061,-207.7252894568967)"><circle class="outline" cx="0" cy="0" r="25" fill="#ECB5C9" stroke="#da7298" stroke-width="2px"/><text text-anchor="middle" pointer-events="none" font-family="sans-serif" dy="1.5625" font-size="25" fill="#2A2C34"/><text text-anchor="middle" pointer-events="none" x="0" y="5" font-size="10px" fill="#2A2C34" font-family="sans-serif"> IAH</text></g><g class="node" transform="translate(129.09121625496164,-174.08503379153586)"><circle class="outline" cx="0" cy="0" r="25" fill="#4C8EDA" stroke="#2870c2" stroke-width="2px"/><text text-anchor="middle" pointer-events="none" font-family="sans-serif" dy="1.5625" font-size="25" fill="#FFFFFF"/><text text-anchor="middle" pointer-events="none" x="0" y="5" font-size="10px" fill="#FFFFFF" font-family="sans-serif"> 11/29/20…</text></g><g class="node" transform="translate(78.7487750865789,-206.50524375543645)"><circle class="outline" cx="0" cy="0" r="25" fill="#4C8EDA" stroke="#2870c2" stroke-width="2px"/><text text-anchor="middle" pointer-events="none" font-family="sans-serif" dy="1.5625" font-size="25" fill="#FFFFFF"/><text text-anchor="middle" pointer-events="none" x="0" y="5" font-size="10px" fill="#FFFFFF" font-family="sans-serif"> 11/29/20…</text></g><g class="node" transform="translate(75.77622912611837,-146.65980678800346)"><circle class="outline" cx="0" cy="0" r="25" fill="#4C8EDA" stroke="#2870c2" stroke-width="2px"/><text text-anchor="middle" pointer-events="none" font-family="sans-serif" dy="1.5625" font-size="25" fill="#FFFFFF"/><text text-anchor="middle" pointer-events="none" x="0" y="5" font-size="10px" fill="#FFFFFF" font-family="sans-serif"> 11/30/20…</text></g><g class="node" transform="translate(-220.66902486195048,90.93906245178583)"><circle class="outline" cx="0" cy="0" r="25" fill="#4C8EDA" stroke="#2870c2" stroke-width="2px"/><text text-anchor="middle" pointer-events="none" font-family="sans-serif" dy="1.5625" font-size="25" fill="#FFFFFF"/><text text-anchor="middle" pointer-events="none" x="0" y="5" font-size="10px" fill="#FFFFFF" font-family="sans-serif"> 11/30/20…</text></g><g class="node" transform="translate(-71.55321336630523,119.98412479247536)"><circle class="outline" cx="0" cy="0" r="25" fill="#ECB5C9" stroke="#da7298" stroke-width="2px"/><text text-anchor="middle" pointer-events="none" font-family="sans-serif" dy="1.5625" font-size="25" fill="#2A2C34"/><text text-anchor="middle" pointer-events="none" x="0" y="5" font-size="10px" fill="#2A2C34" font-family="sans-serif"> EWR</text></g><g class="node" transform="translate(49.79414940933825,47.81370071423808)"><circle class="outline" cx="0" cy="0" r="25" fill="#4C8EDA" stroke="#2870c2" stroke-width="2px"/><text text-anchor="middle" pointer-events="none" font-family="sans-serif" dy="1.5625" font-size="25" fill="#FFFFFF"/><text text-anchor="middle" pointer-events="none" x="0" y="5" font-size="10px" fill="#FFFFFF" font-family="sans-serif"> 11/30/20…</text></g><g class="node" transform="translate(-195.15905133886878,145.24247219380428)"><circle class="outline" cx="0" cy="0" r="25" fill="#4C8EDA" stroke="#2870c2" stroke-width="2px"/><text text-anchor="middle" pointer-events="none" font-family="sans-serif" dy="1.5625" font-size="25" fill="#FFFFFF"/><text text-anchor="middle" pointer-events="none" x="0" y="5" font-size="10px" fill="#FFFFFF" font-family="sans-serif"> 11/29/20…</text></g><g class="node" transform="translate(11.977774484895505,1.2726639060785312)"><circle class="outline" cx="0" cy="0" r="25" fill="#4C8EDA" stroke="#2870c2" stroke-width="2px"/><text text-anchor="middle" pointer-events="none" font-family="sans-serif" dy="1.5625" font-size="25" fill="#FFFFFF"/><text text-anchor="middle" pointer-events="none" x="0" y="5" font-size="10px" fill="#FFFFFF" font-family="sans-serif"> 11/30/20…</text></g><g class="node" transform="translate(-292.16755938198156,12.020235968765911)"><circle class="outline" cx="0" cy="0" r="25" fill="#4C8EDA" stroke="#2870c2" stroke-width="2px"/><text text-anchor="middle" pointer-events="none" font-family="sans-serif" dy="1.5625" font-size="25" fill="#FFFFFF"/><text text-anchor="middle" pointer-events="none" x="0" y="5" font-size="10px" fill="#FFFFFF" font-family="sans-serif"> 11/29/20…</text></g><g class="node" transform="translate(-159.48357774453237,-125.668976541445)"><circle class="outline" cx="0" cy="0" r="25" fill="#ECB5C9" stroke="#da7298" stroke-width="2px"/><text text-anchor="middle" pointer-events="none" font-family="sans-serif" dy="1.5625" font-size="25" fill="#2A2C34"/><text text-anchor="middle" pointer-events="none" x="0" y="5" font-size="10px" fill="#2A2C34" font-family="sans-serif"> BOS</text></g><g class="node" transform="translate(6.924316177762452,-137.35839939024467)"><circle class="outline" cx="0" cy="0" r="25" fill="#4C8EDA" stroke="#2870c2" stroke-width="2px"/><text text-anchor="middle" pointer-events="none" font-family="sans-serif" dy="1.5625" font-size="25" fill="#FFFFFF"/><text text-anchor="middle" pointer-events="none" x="0" y="5" font-size="10px" fill="#FFFFFF" font-family="sans-serif"> 11/30/20…</text></g><g class="node" transform="translate(-10.25561028045286,-79.96250124127491)"><circle class="outline" cx="0" cy="0" r="25" fill="#4C8EDA" stroke="#2870c2" stroke-width="2px"/><text text-anchor="middle" pointer-events="none" font-family="sans-serif" dy="1.5625" font-size="25" fill="#FFFFFF"/><text text-anchor="middle" pointer-events="none" x="0" y="5" font-size="10px" fill="#FFFFFF" font-family="sans-serif"> 11/29/20…</text></g><g class="node" transform="translate(62.391119458270055,275.3109496865377)"><circle class="outline" cx="0" cy="0" r="25" fill="#4C8EDA" stroke="#2870c2" stroke-width="2px"/><text text-anchor="middle" pointer-events="none" font-family="sans-serif" dy="1.5625" font-size="25" fill="#FFFFFF"/><text text-anchor="middle" pointer-events="none" x="0" y="5" font-size="10px" fill="#FFFFFF" font-family="sans-serif"> 11/30/20…</text></g></g></svg>