<svg xmlns="http://www.w3.org/2000/svg" width="667.673828125" height="647.2314453125" viewBox="-237.4258575439453 -230.71841430664062 667.673828125 647.2314453125"><title>Neo4j Graph Visualization</title><desc>Created using Neo4j (http://www.neo4j.com/)</desc><g class="layer relationships"><g class="relationship" transform="translate(109.76795339647266 224.67622914320393) rotate(261.8526627946686)"><path class="outline" fill="#A5ABB6" stroke="none" d="M 25 0.5 L 47.75170271398058 0.5 L 47.75170271398058 -0.5 L 25 -0.5 Z M 82.19701521398058 0.5 L 104.94871792796116 0.5 L 104.94871792796116 3.5 L 111.94871792796116 0 L 104.94871792796116 -3.5 L 104.94871792796116 -0.5 L 82.19701521398058 -0.5 Z"/><text text-anchor="middle" pointer-events="none" font-size="8px" fill="#000000" x="64.97435896398058" y="3" transform="rotate(180 64.97435896398058 0)" font-family="sans-serif">ORIGIN</text></g><g class="relationship" transform="translate(109.76795339647266 224.67622914320393) rotate(444.921189170454)"><path class="outline" fill="#A5ABB6" stroke="none" d="M 25 0.5 L 48.64361021237225 0.5 L 48.64361021237225 -0.5 L 25 -0.5 Z M 107.83501646237225 0.5 L 131.4786266747445 0.5 L 131.4786266747445 3.5 L 138.4786266747445 0 L 131.4786266747445 -3.5 L 131.4786266747445 -0.5 L 107.83501646237225 -0.5 Z"/><text text-anchor="middle" pointer-events="none" font-size="8px" fill="#000000" x="78.23931333737225" y="3" font-family="sans-serif">DESTINATION</text></g><g class="relationship" transform="translate(263.2195532367258 108.13930831557566) rotate(186.2822034471996)"><path class="outline" fill="#A5ABB6" stroke="none" d="M 25 0.5 L 66.22941826283378 0.5 L 66.22941826283378 -0.5 L 25 -0.5 Z M 100.67473076283378 0.5 L 141.90414902566755 0.5 L 141.90414902566755 3.5 L 148.90414902566755 0 L 141.90414902566755 -3.5 L 141.90414902566755 -0.5 L 100.67473076283378 -0.5 Z"/><text text-anchor="middle" pointer-events="none" font-size="8px" fill="#000000" x="83.45207451283378" y="3" transform="rotate(180 83.45207451283378 0)" font-family="sans-serif">ORIGIN</text></g><g class="relationship" transform="translate(263.2195532367258 108.13930831557566) rotate(408.67933704270314)"><path class="outline" fill="#A5ABB6" stroke="none" d="M 25 0.5 L 38.52795010655355 0.5 L 38.52795010655355 -0.5 L 25 -0.5 Z M 97.71935635655355 0.5 L 111.2473064631071 0.5 L 111.2473064631071 3.5 L 118.2473064631071 0 L 111.2473064631071 -3.5 L 111.2473064631071 -0.5 L 97.71935635655355 -0.5 Z"/><text text-anchor="middle" pointer-events="none" font-size="8px" fill="#000000" x="68.12365323155355" y="3" font-family="sans-serif">DESTINATION</text></g><g class="relationship" transform="translate(215.74797040678004 -12.404047503633759) rotate(501.0065204333299)"><path class="outline" fill="#A5ABB6" stroke="none" d="M 25 0.5 L 59.94218871014087 0.5 L 59.94218871014087 -0.5 L 25 -0.5 Z M 94.38750121014087 0.5 L 129.32968992028174 0.5 L 129.32968992028174 3.5 L 136.32968992028174 0 L 129.32968992028174 -3.5 L 129.32968992028174 -0.5 L 94.38750121014087 -0.5 Z"/><text text-anchor="middle" pointer-events="none" font-size="8px" fill="#000000" x="77.16484496014087" y="3" transform="rotate(180 77.16484496014087 0)" font-family="sans-serif">ORIGIN</text></g><g class="relationship" transform="translate(215.74797040678004 -12.404047503633759) rotate(316.9112236157388)"><path class="outline" fill="#A5ABB6" stroke="none" d="M 25 0.5 L 44.65431807906867 0.5 L 44.65431807906867 -0.5 L 25 -0.5 Z M 103.84572432906867 0.5 L 123.50004240813735 0.5 L 123.50004240813735 3.5 L 130.50004240813735 0 L 123.50004240813735 -3.5 L 123.50004240813735 -0.5 L 103.84572432906867 -0.5 Z"/><text text-anchor="middle" pointer-events="none" font-size="8px" fill="#000000" x="74.25002120406867" y="3" font-family="sans-serif">DESTINATION</text></g><g class="relationship" transform="translate(111.23604854947342 284.2738982643275) rotate(263.89439289820723)"><path class="outline" fill="#A5ABB6" stroke="none" d="M 25 0.5 L 77.416107514071 0.5 L 77.416107514071 -0.5 L 25 -0.5 Z M 111.861420014071 0.5 L 164.277527528142 0.5 L 164.277527528142 3.5 L 171.277527528142 0 L 164.277527528142 -3.5 L 164.277527528142 -0.5 L 111.861420014071 -0.5 Z"/><text text-anchor="middle" pointer-events="none" font-size="8px" fill="#000000" x="94.638763764071" y="3" transform="rotate(180 94.638763764071 0)" font-family="sans-serif">ORIGIN</text></g><g class="relationship" transform="translate(111.23604854947342 284.2738982643275) rotate(442.8208304323738)"><path class="outline" fill="#A5ABB6" stroke="none" d="M 25 0.5 L 26.859475703691167 0.5 L 26.859475703691167 -0.5 L 25 -0.5 Z M 70.19541320369117 0.5 L 72.05488890738233 0.5 L 72.05488890738233 3.5 L 79.05488890738233 0 L 72.05488890738233 -3.5 L 72.05488890738233 -0.5 L 70.19541320369117 -0.5 Z"/><text text-anchor="middle" pointer-events="none" font-size="8px" fill="#000000" x="48.52744445369117" y="3" font-family="sans-serif">DESTIN…</text></g><g class="relationship" transform="translate(171.55809583067497 -58.739628741477134) rotate(478.7754472531775)"><path class="outline" fill="#A5ABB6" stroke="none" d="M 25 0.5 L 63.61686210864609 0.5 L 63.61686210864609 -0.5 L 25 -0.5 Z M 98.06217460864609 0.5 L 136.67903671729218 0.5 L 136.67903671729218 3.5 L 143.67903671729218 0 L 136.67903671729218 -3.5 L 136.67903671729218 -0.5 L 98.06217460864609 -0.5 Z"/><text text-anchor="middle" pointer-events="none" font-size="8px" fill="#000000" x="80.83951835864609" y="3" transform="rotate(180 80.83951835864609 0)" font-family="sans-serif">ORIGIN</text></g><g class="relationship" transform="translate(171.55809583067497 -58.739628741477134) rotate(273.0509249814905)"><path class="outline" fill="#A5ABB6" stroke="none" d="M 25 0.5 L 38.4951606460786 0.5 L 38.4951606460786 -0.5 L 25 -0.5 Z M 97.6865668960786 0.5 L 111.1817275421572 0.5 L 111.1817275421572 3.5 L 118.1817275421572 0 L 111.1817275421572 -3.5 L 111.1817275421572 -0.5 L 97.6865668960786 -0.5 Z"/><text text-anchor="middle" pointer-events="none" font-size="8px" fill="#000000" x="68.0908637710786" y="3" font-family="sans-serif">DESTINATION</text></g><g class="relationship" transform="translate(-29.998577118454566 -49.583973258209376) rotate(409.04858671701356)"><path class="outline" fill="#A5ABB6" stroke="none" d="M 25 0.5 L 71.09518373211948 0.5 L 71.09518373211948 -0.5 L 25 -0.5 Z M 105.54049623211948 0.5 L 151.63567996423896 0.5 L 151.63567996423896 3.5 L 158.63567996423896 0 L 151.63567996423896 -3.5 L 151.63567996423896 -0.5 L 105.54049623211948 -0.5 Z"/><text text-anchor="middle" pointer-events="none" font-size="8px" fill="#000000" x="88.31783998211948" y="3" font-family="sans-serif">ORIGIN</text></g><g class="relationship" transform="translate(-29.998577118454566 -49.583973258209376) rotate(203.12342852909762)"><path class="outline" fill="#A5ABB6" stroke="none" d="M 25 0.5 L 25.28533946285176 0.5 L 25.28533946285176 -0.5 L 25 -0.5 Z M 73.95721446285177 0.5 L 74.24255392570352 0.5 L 74.24255392570352 3.5 L 81.24255392570352 0 L 74.24255392570352 -3.5 L 74.24255392570352 -0.5 L 73.95721446285177 -0.5 Z"/><text text-anchor="middle" pointer-events="none" font-size="8px" fill="#000000" x="49.62127696285176" y="3" transform="rotate(180 49.62127696285176 0)" font-family="sans-serif">DESTINA…</text></g><g class="relationship" transform="translate(267.24366080136326 167.858902142463) rotate(203.99874070870914)"><path class="outline" fill="#A5ABB6" stroke="none" d="M 25 0.5 L 76.08819669432926 0.5 L 76.08819669432926 -0.5 L 25 -0.5 Z M 110.53350919432926 0.5 L 161.6217058886585 0.5 L 161.6217058886585 3.5 L 168.6217058886585 0 L 161.6217058886585 -3.5 L 161.6217058886585 -0.5 L 110.53350919432926 -0.5 Z"/><text text-anchor="middle" pointer-events="none" font-size="8px" fill="#000000" x="93.31085294432926" y="3" transform="rotate(180 93.31085294432926 0)" font-family="sans-serif">ORIGIN</text></g><g class="relationship" transform="translate(267.24366080136326 167.858902142463) rotate(387.8578762844036)"><path class="outline" fill="#A5ABB6" stroke="none" d="M 25 0.5 L 26.046370065802883 0.5 L 26.046370065802883 -0.5 L 25 -0.5 Z M 69.38230756580288 0.5 L 70.42867763160577 0.5 L 70.42867763160577 3.5 L 77.42867763160577 0 L 70.42867763160577 -3.5 L 70.42867763160577 -0.5 L 69.38230756580288 -0.5 Z"/><text text-anchor="middle" pointer-events="none" font-size="8px" fill="#000000" x="47.71433881580288" y="3" font-family="sans-serif">DESTIN…</text></g><g class="relationship" transform="translate(213.62374891973226 141.876188838302) rotate(203.17462881413917)"><path class="outline" fill="#A5ABB6" stroke="none" d="M 25 0.5 L 46.31897842168637 0.5 L 46.31897842168637 -0.5 L 25 -0.5 Z M 80.76429092168637 0.5 L 102.08326934337273 0.5 L 102.08326934337273 3.5 L 109.08326934337273 0 L 102.08326934337273 -3.5 L 102.08326934337273 -0.5 L 80.76429092168637 -0.5 Z"/><text text-anchor="middle" pointer-events="none" font-size="8px" fill="#000000" x="63.54163467168637" y="3" transform="rotate(180 63.54163467168637 0)" font-family="sans-serif">ORIGIN</text></g><g class="relationship" transform="translate(213.62374891973226 141.876188838302) rotate(387.1207607184841)"><path class="outline" fill="#A5ABB6" stroke="none" d="M 25 0.5 L 47.898873143255514 0.5 L 47.898873143255514 -0.5 L 25 -0.5 Z M 107.09027939325551 0.5 L 129.98915253651103 0.5 L 129.98915253651103 3.5 L 136.98915253651103 0 L 129.98915253651103 -3.5 L 129.98915253651103 -0.5 L 107.09027939325551 -0.5 Z"/><text text-anchor="middle" pointer-events="none" font-size="8px" fill="#000000" x="77.49457626825551" y="3" font-family="sans-serif">DESTINATION</text></g><g class="relationship" transform="translate(162.58745155744106 253.54253687265057) rotate(246.28632787243225)"><path class="outline" fill="#A5ABB6" stroke="none" d="M 25 0.5 L 69.07571571532661 0.5 L 69.07571571532661 -0.5 L 25 -0.5 Z M 103.52102821532661 0.5 L 147.59674393065322 0.5 L 147.59674393065322 3.5 L 154.59674393065322 0 L 147.59674393065322 -3.5 L 147.59674393065322 -0.5 L 103.52102821532661 -0.5 Z"/><text text-anchor="middle" pointer-events="none" font-size="8px" fill="#000000" x="86.29837196532661" y="3" transform="rotate(180 86.29837196532661 0)" font-family="sans-serif">ORIGIN</text></g><g class="relationship" transform="translate(162.58745155744106 253.54253687265057) rotate(465.9731172279461)"><path class="outline" fill="#A5ABB6" stroke="none" d="M 25 0.5 L 36.57963839060952 0.5 L 36.57963839060952 -0.5 L 25 -0.5 Z M 95.77104464060952 0.5 L 107.35068303121903 0.5 L 107.35068303121903 3.5 L 114.35068303121903 0 L 107.35068303121903 -3.5 L 107.35068303121903 -0.5 L 95.77104464060952 -0.5 Z"/><text text-anchor="middle" pointer-events="none" font-size="8px" fill="#000000" x="66.17534151560952" y="3" transform="rotate(180 66.17534151560952 0)" font-family="sans-serif">DESTINATION</text></g><g class="relationship" transform="translate(8.17944440828678 -95.76661449297133) rotate(426.0341509838192)"><path class="outline" fill="#A5ABB6" stroke="none" d="M 25 0.5 L 80.43670256582476 0.5 L 80.43670256582476 -0.5 L 25 -0.5 Z M 114.88201506582476 0.5 L 170.31871763164952 0.5 L 170.31871763164952 3.5 L 177.31871763164952 0 L 170.31871763164952 -3.5 L 170.31871763164952 -0.5 L 114.88201506582476 -0.5 Z"/><text text-anchor="middle" pointer-events="none" font-size="8px" fill="#000000" x="97.65935881582476" y="3" font-family="sans-serif">ORIGIN</text></g><g class="relationship" transform="translate(8.17944440828678 -95.76661449297133) rotate(538.1202117599396)"><path class="outline" fill="#A5ABB6" stroke="none" d="M 25 0.5 L 34.88345690713682 0.5 L 34.88345690713682 -0.5 L 25 -0.5 Z M 94.07486315713682 0.5 L 103.95832006427364 0.5 L 103.95832006427364 3.5 L 110.95832006427364 0 L 103.95832006427364 -3.5 L 103.95832006427364 -0.5 L 94.07486315713682 -0.5 Z"/><text text-anchor="middle" pointer-events="none" font-size="8px" fill="#000000" x="64.47916003213682" y="3" transform="rotate(180 64.47916003213682 0)" font-family="sans-serif">DESTINATION</text></g><g class="relationship" transform="translate(56.01203347917803 261.51471686427203) rotate(281.26732130897346)"><path class="outline" fill="#A5ABB6" stroke="none" d="M 25 0.5 L 67.17392471914928 0.5 L 67.17392471914928 -0.5 L 25 -0.5 Z M 101.61923721914928 0.5 L 143.79316193829857 0.5 L 143.79316193829857 3.5 L 150.79316193829857 0 L 143.79316193829857 -3.5 L 143.79316193829857 -0.5 L 101.61923721914928 -0.5 Z"/><text text-anchor="middle" pointer-events="none" font-size="8px" fill="#000000" x="84.39658096914928" y="3" font-family="sans-serif">ORIGIN</text></g><g class="relationship" transform="translate(56.01203347917803 261.51471686427203) rotate(421.56447674848846)"><path class="outline" fill="#A5ABB6" stroke="none" d="M 25 0.5 L 38.54687202638924 0.5 L 38.54687202638924 -0.5 L 25 -0.5 Z M 97.73827827638924 0.5 L 111.28515030277848 0.5 L 111.28515030277848 3.5 L 118.28515030277848 0 L 111.28515030277848 -3.5 L 111.28515030277848 -0.5 L 97.73827827638924 -0.5 Z"/><text text-anchor="middle" pointer-events="none" font-size="8px" fill="#000000" x="68.14257515138924" y="3" font-family="sans-serif">DESTINATION</text></g><g class="relationship" transform="translate(29.03915082300597 -39.9606697043318) rotate(424.58789909435495)"><path class="outline" fill="#A5ABB6" stroke="none" d="M 25 0.5 L 50.72554572008738 0.5 L 50.72554572008738 -0.5 L 25 -0.5 Z M 85.17085822008738 0.5 L 110.89640394017476 0.5 L 110.89640394017476 3.5 L 117.89640394017476 0 L 110.89640394017476 -3.5 L 110.89640394017476 -0.5 L 85.17085822008738 -0.5 Z"/><text text-anchor="middle" pointer-events="none" font-size="8px" fill="#000000" x="67.94820197008738" y="3" font-family="sans-serif">ORIGIN</text></g><g class="relationship" transform="translate(29.03915082300597 -39.9606697043318) rotate(198.13765398585883)"><path class="outline" fill="#A5ABB6" stroke="none" d="M 25 0.5 L 49.37456294681803 0.5 L 49.37456294681803 -0.5 L 25 -0.5 Z M 108.56596919681803 0.5 L 132.94053214363606 0.5 L 132.94053214363606 3.5 L 139.94053214363606 0 L 132.94053214363606 -3.5 L 132.94053214363606 -0.5 L 108.56596919681803 -0.5 Z"/><text text-anchor="middle" pointer-events="none" font-size="8px" fill="#000000" x="78.97026607181803" y="3" transform="rotate(180 78.97026607181803 0)" font-family="sans-serif">DESTINATION</text></g><g class="relationship" transform="translate(115.19039103841612 -78.77370471911993) rotate(458.4132993237793)"><path class="outline" fill="#A5ABB6" stroke="none" d="M 25 0.5 L 64.13224434951633 0.5 L 64.13224434951633 -0.5 L 25 -0.5 Z M 98.57755684951633 0.5 L 137.70980119903265 0.5 L 137.70980119903265 3.5 L 144.70980119903265 0 L 137.70980119903265 -3.5 L 137.70980119903265 -0.5 L 98.57755684951633 -0.5 Z"/><text text-anchor="middle" pointer-events="none" font-size="8px" fill="#000000" x="81.35490059951633" y="3" transform="rotate(180 81.35490059951633 0)" font-family="sans-serif">ORIGIN</text></g><g class="relationship" transform="translate(115.19039103841612 -78.77370471911993) rotate(297.4953712162229)"><path class="outline" fill="#A5ABB6" stroke="none" d="M 25 0.5 L 36.20420546303458 0.5 L 36.20420546303458 -0.5 L 25 -0.5 Z M 95.39561171303458 0.5 L 106.59981717606917 0.5 L 106.59981717606917 3.5 L 113.59981717606917 0 L 106.59981717606917 -3.5 L 106.59981717606917 -0.5 L 95.39561171303458 -0.5 Z"/><text text-anchor="middle" pointer-events="none" font-size="8px" fill="#000000" x="65.79990858803458" y="3" font-family="sans-serif">DESTINATION</text></g><g class="relationship" transform="translate(-8.860551465563912 6.2958706438077074) rotate(399.84995961920043)"><path class="outline" fill="#A5ABB6" stroke="none" d="M 25 0.5 L 43.89699332977719 0.5 L 43.89699332977719 -0.5 L 25 -0.5 Z M 78.34230582977719 0.5 L 97.23929915955438 0.5 L 97.23929915955438 3.5 L 104.23929915955438 0 L 97.23929915955438 -3.5 L 97.23929915955438 -0.5 L 78.34230582977719 -0.5 Z"/><text text-anchor="middle" pointer-events="none" font-size="8px" fill="#000000" x="61.11964957977719" y="3" font-family="sans-serif">ORIGIN</text></g><g class="relationship" transform="translate(-8.860551465563912 6.2958706438077074) rotate(219.39487090818238)"><path class="outline" fill="#A5ABB6" stroke="none" d="M 25 0.5 L 43.79782423149507 0.5 L 43.79782423149507 -0.5 L 25 -0.5 Z M 102.98923048149507 0.5 L 121.78705471299014 0.5 L 121.78705471299014 3.5 L 128.78705471299014 0 L 121.78705471299014 -3.5 L 121.78705471299014 -0.5 L 102.98923048149507 -0.5 Z"/><text text-anchor="middle" pointer-events="none" font-size="8px" fill="#000000" x="73.39352735649507" y="3" transform="rotate(180 73.39352735649507 0)" font-family="sans-serif">DESTINATION</text></g><g class="relationship" transform="translate(-79.50566024210045 178.33024276001586) rotate(332.2896390597631)"><path class="outline" fill="#A5ABB6" stroke="none" d="M 25 0.5 L 75.21291778341546 0.5 L 75.21291778341546 -0.5 L 25 -0.5 Z M 109.65823028341546 0.5 L 159.87114806683093 0.5 L 159.87114806683093 3.5 L 166.87114806683093 0 L 159.87114806683093 -3.5 L 159.87114806683093 -0.5 L 109.65823028341546 -0.5 Z"/><text text-anchor="middle" pointer-events="none" font-size="8px" fill="#000000" x="92.43557403341546" y="3" font-family="sans-serif">ORIGIN</text></g><g class="relationship" transform="translate(-79.50566024210045 178.33024276001586) rotate(505.43864592945636)"><path class="outline" fill="#A5ABB6" stroke="none" d="M 25 0.5 L 45.178240628221914 0.5 L 45.178240628221914 -0.5 L 25 -0.5 Z M 104.36964687822191 0.5 L 124.54788750644383 0.5 L 124.54788750644383 3.5 L 131.54788750644383 0 L 124.54788750644383 -3.5 L 124.54788750644383 -0.5 L 104.36964687822191 -0.5 Z"/><text text-anchor="middle" pointer-events="none" font-size="8px" fill="#000000" x="74.77394375322191" y="3" transform="rotate(180 74.77394375322191 0)" font-family="sans-serif">DESTINATION</text></g><g class="relationship" transform="translate(-67.87233682001762 -3.1522692151644813) rotate(390.24562787690365)"><path class="outline" fill="#A5ABB6" stroke="none" d="M 25 0.5 L 70.86017121779133 0.5 L 70.86017121779133 -0.5 L 25 -0.5 Z M 105.30548371779133 0.5 L 151.16565493558267 0.5 L 151.16565493558267 3.5 L 158.16565493558267 0 L 151.16565493558267 -3.5 L 151.16565493558267 -0.5 L 105.30548371779133 -0.5 Z"/><text text-anchor="middle" pointer-events="none" font-size="8px" fill="#000000" x="88.08282746779133" y="3" font-family="sans-serif">ORIGIN</text></g><g class="relationship" transform="translate(-67.87233682001762 -3.1522692151644813) rotate(235.8339826681547)"><path class="outline" fill="#A5ABB6" stroke="none" d="M 25 0.5 L 25.43520513643046 0.5 L 25.43520513643046 -0.5 L 25 -0.5 Z M 74.10708013643045 0.5 L 74.54228527286092 0.5 L 74.54228527286092 3.5 L 81.54228527286092 0 L 74.54228527286092 -3.5 L 74.54228527286092 -0.5 L 74.10708013643045 -0.5 Z"/><text text-anchor="middle" pointer-events="none" font-size="8px" fill="#000000" x="49.77114263643046" y="3" transform="rotate(180 49.77114263643046 0)" font-family="sans-serif">DESTINA…</text></g><g class="relationship" transform="translate(-105.69577505961752 43.31736193615367) rotate(373.146800533789)"><path class="outline" fill="#A5ABB6" stroke="none" d="M 25 0.5 L 79.94348981720499 0.5 L 79.94348981720499 -0.5 L 25 -0.5 Z M 114.38880231720499 0.5 L 169.33229213440998 0.5 L 169.33229213440998 3.5 L 176.33229213440998 0 L 169.33229213440998 -3.5 L 169.33229213440998 -0.5 L 114.38880231720499 -0.5 Z"/><text text-anchor="middle" pointer-events="none" font-size="8px" fill="#000000" x="97.16614606720499" y="3" font-family="sans-serif">ORIGIN</text></g><g class="relationship" transform="translate(-105.69577505961752 43.31736193615367) rotate(260.7147652596439)"><path class="outline" fill="#A5ABB6" stroke="none" d="M 25 0.5 L 35.11006908683079 0.5 L 35.11006908683079 -0.5 L 25 -0.5 Z M 94.30147533683079 0.5 L 104.41154442366158 0.5 L 104.41154442366158 3.5 L 111.41154442366158 0 L 104.41154442366158 -3.5 L 104.41154442366158 -0.5 L 94.30147533683079 -0.5 Z"/><text text-anchor="middle" pointer-events="none" font-size="8px" fill="#000000" x="64.70577221183079" y="3" transform="rotate(180 64.70577221183079 0)" font-family="sans-serif">DESTINATION</text></g><g class="relationship" transform="translate(-20.966422646940817 166.108765412697) rotate(325.33022165238094)"><path class="outline" fill="#A5ABB6" stroke="none" d="M 25 0.5 L 46.95738956536999 0.5 L 46.95738956536999 -0.5 L 25 -0.5 Z M 81.40270206537 0.5 L 103.36009163073999 0.5 L 103.36009163073999 3.5 L 110.36009163073999 0 L 103.36009163073999 -3.5 L 103.36009163073999 -0.5 L 81.40270206537 -0.5 Z"/><text text-anchor="middle" pointer-events="none" font-size="8px" fill="#000000" x="64.18004581537" y="3" font-family="sans-serif">ORIGIN</text></g><g class="relationship" transform="translate(-20.966422646940817 166.108765412697) rotate(480.53436442112763)"><path class="outline" fill="#A5ABB6" stroke="none" d="M 25 0.5 L 44.82903279756697 0.5 L 44.82903279756697 -0.5 L 25 -0.5 Z M 104.02043904756697 0.5 L 123.84947184513393 0.5 L 123.84947184513393 3.5 L 130.84947184513393 0 L 123.84947184513393 -3.5 L 123.84947184513393 -0.5 L 104.02043904756697 -0.5 Z"/><text text-anchor="middle" pointer-events="none" font-size="8px" fill="#000000" x="74.42473592256697" y="3" transform="rotate(180 74.42473592256697 0)" font-family="sans-serif">DESTINATION</text></g><g class="relationship" transform="translate(1.0439934779187738 221.7538255127228) rotate(303.95429901759996)"><path class="outline" fill="#A5ABB6" stroke="none" d="M 25 0.5 L 59.23318619675001 0.5 L 59.23318619675001 -0.5 L 25 -0.5 Z M 93.67849869675001 0.5 L 127.91168489350002 0.5 L 127.91168489350002 3.5 L 134.91168489350002 0 L 127.91168489350002 -3.5 L 127.91168489350002 -0.5 L 93.67849869675001 -0.5 Z"/><text text-anchor="middle" pointer-events="none" font-size="8px" fill="#000000" x="76.45584244675001" y="3" font-family="sans-serif">ORIGIN</text></g><g class="relationship" transform="translate(1.0439934779187738 221.7538255127228) rotate(502.1644872880081)"><path class="outline" fill="#A5ABB6" stroke="none" d="M 25 0.5 L 30.967182715695557 0.5 L 30.967182715695557 -0.5 L 25 -0.5 Z M 90.15858896569556 0.5 L 96.12577168139111 0.5 L 96.12577168139111 3.5 L 103.12577168139111 0 L 96.12577168139111 -3.5 L 96.12577168139111 -0.5 L 90.15858896569556 -0.5 Z"/><text text-anchor="middle" pointer-events="none" font-size="8px" fill="#000000" x="60.56288584069556" y="3" transform="rotate(180 60.56288584069556 0)" font-family="sans-serif">DESTINATION</text></g><g class="relationship" transform="translate(219.80326062546214 204.2720955784707) rotate(221.65860346447948)"><path class="outline" fill="#A5ABB6" stroke="none" d="M 25 0.5 L 65.90586370363013 0.5 L 65.90586370363013 -0.5 L 25 -0.5 Z M 100.35117620363013 0.5 L 141.25703990726026 0.5 L 141.25703990726026 3.5 L 148.25703990726026 0 L 141.25703990726026 -3.5 L 141.25703990726026 -0.5 L 100.35117620363013 -0.5 Z"/><text text-anchor="middle" pointer-events="none" font-size="8px" fill="#000000" x="83.12851995363013" y="3" transform="rotate(180 83.12851995363013 0)" font-family="sans-serif">ORIGIN</text></g><g class="relationship" transform="translate(219.80326062546214 204.2720955784707) rotate(364.7429395865422)"><path class="outline" fill="#A5ABB6" stroke="none" d="M 25 0.5 L 36.140662084684365 0.5 L 36.140662084684365 -0.5 L 25 -0.5 Z M 95.33206833468437 0.5 L 106.47273041936873 0.5 L 106.47273041936873 3.5 L 113.47273041936873 0 L 106.47273041936873 -3.5 L 106.47273041936873 -0.5 L 95.33206833468437 -0.5 Z"/><text text-anchor="middle" pointer-events="none" font-size="8px" fill="#000000" x="65.73636520968437" y="3" font-family="sans-serif">DESTINATION</text></g><g class="relationship" transform="translate(-46.80774223970837 52.72853962466027) rotate(374.8546516066441)"><path class="outline" fill="#A5ABB6" stroke="none" d="M 25 0.5 L 50.23243426442164 0.5 L 50.23243426442164 -0.5 L 25 -0.5 Z M 84.67774676442164 0.5 L 109.91018102884328 0.5 L 109.91018102884328 3.5 L 116.91018102884328 0 L 109.91018102884328 -3.5 L 109.91018102884328 -0.5 L 84.67774676442164 -0.5 Z"/><text text-anchor="middle" pointer-events="none" font-size="8px" fill="#000000" x="67.45509051442164" y="3" font-family="sans-serif">ORIGIN</text></g><g class="relationship" transform="translate(-46.80774223970837 52.72853962466027) rotate(240.67910328920516)"><path class="outline" fill="#A5ABB6" stroke="none" d="M 25 0.5 L 49.50373384619668 0.5 L 49.50373384619668 -0.5 L 25 -0.5 Z M 108.69514009619668 0.5 L 133.19887394239336 0.5 L 133.19887394239336 3.5 L 140.19887394239336 0 L 133.19887394239336 -3.5 L 133.19887394239336 -0.5 L 108.69514009619668 -0.5 Z"/><text text-anchor="middle" pointer-events="none" font-size="8px" fill="#000000" x="79.09943697119668" y="3" transform="rotate(180 79.09943697119668 0)" font-family="sans-serif">DESTINATION</text></g><g class="relationship" transform="translate(248.00594829383516 40.35639073045248) rotate(522.8153604007367)"><path class="outline" fill="#A5ABB6" stroke="none" d="M 25 0.5 L 61.78375160981443 0.5 L 61.78375160981443 -0.5 L 25 -0.5 Z M 96.22906410981443 0.5 L 133.01281571962886 0.5 L 133.01281571962886 3.5 L 140.01281571962886 0 L 133.01281571962886 -3.5 L 133.01281571962886 -0.5 L 96.22906410981443 -0.5 Z"/><text text-anchor="middle" pointer-events="none" font-size="8px" fill="#000000" x="79.00640785981443" y="3" transform="rotate(180 79.00640785981443 0)" font-family="sans-serif">ORIGIN</text></g><g class="relationship" transform="translate(248.00594829383516 40.35639073045248) rotate(348.02982269755546)"><path class="outline" fill="#A5ABB6" stroke="none" d="M 25 0.5 L 45.22839787148793 0.5 L 45.22839787148793 -0.5 L 25 -0.5 Z M 104.41980412148793 0.5 L 124.64820199297586 0.5 L 124.64820199297586 3.5 L 131.64820199297586 0 L 124.64820199297586 -3.5 L 124.64820199297586 -0.5 L 104.41980412148793 -0.5 Z"/><text text-anchor="middle" pointer-events="none" font-size="8px" fill="#000000" x="74.82410099648793" y="3" font-family="sans-serif">DESTINATION</text></g></g><g class="layer nodes"><g class="node" transform="translate(90.35970003274909,89.10974713720887)"><circle class="outline" cx="0" cy="0" r="25" fill="#ECB5C9" stroke="#da7298" stroke-width="2px"/><text text-anchor="middle" pointer-events="none" font-family="sans-serif" dy="1.5625" font-size="25" fill="#2A2C34"/><text text-anchor="middle" pointer-events="none" x="0" y="5" font-size="10px" fill="#2A2C34" font-family="sans-serif"> LAX</text></g><g class="node" transform="translate(124.24005152857397,387.51301784623416)"><circle class="outline" cx="0" cy="0" r="25" fill="#ECB5C9" stroke="#da7298" stroke-width="2px"/><text text-anchor="middle" pointer-events="none" font-family="sans-serif" dy="1.5625" font-size="25" fill="#2A2C34"/><text text-anchor="middle" pointer-events="none" x="0" y="5" font-size="10px" fill="#2A2C34" font-family="sans-serif"> SMF</text></g><g class="node" transform="translate(357.8018187600239,215.72176904879956)"><circle class="outline" cx="0" cy="0" r="25" fill="#ECB5C9" stroke="#da7298" stroke-width="2px"/><text text-anchor="middle" pointer-events="none" font-family="sans-serif" dy="1.5625" font-size="25" fill="#2A2C34"/><text text-anchor="middle" pointer-events="none" x="0" y="5" font-size="10px" fill="#2A2C34" font-family="sans-serif"> FAT</text></g><g class="node" transform="translate(329.3090462428523,-118.63090495449862)"><circle class="outline" cx="0" cy="0" r="25" fill="#ECB5C9" stroke="#da7298" stroke-width="2px"/><text text-anchor="middle" pointer-events="none" font-family="sans-serif" dy="1.5625" font-size="25" fill="#2A2C34"/><text text-anchor="middle" pointer-events="none" x="0" y="5" font-size="10px" fill="#2A2C34" font-family="sans-serif"> LAS</text></g><g class="node" transform="translate(179.17873222510417,-201.71841389123438)"><circle class="outline" cx="0" cy="0" r="25" fill="#ECB5C9" stroke="#da7298" stroke-width="2px"/><text text-anchor="middle" pointer-events="none" font-family="sans-serif" dy="1.5625" font-size="25" fill="#2A2C34"/><text text-anchor="middle" pointer-events="none" x="0" y="5" font-size="10px" fill="#2A2C34" font-family="sans-serif"> TUS</text></g><g class="node" transform="translate(-127.70570963632811,-91.30682694525622)"><circle class="outline" cx="0" cy="0" r="25" fill="#ECB5C9" stroke="#da7298" stroke-width="2px"/><text text-anchor="middle" pointer-events="none" font-family="sans-serif" dy="1.5625" font-size="25" fill="#2A2C34"/><text text-anchor="middle" pointer-events="none" x="0" y="5" font-size="10px" fill="#2A2C34" font-family="sans-serif"> ABQ</text></g><g class="node" transform="translate(-208.42584993568354,267.1380451880725)"><circle class="outline" cx="0" cy="0" r="25" fill="#ECB5C9" stroke="#da7298" stroke-width="2px"/><text text-anchor="middle" pointer-events="none" font-family="sans-serif" dy="1.5625" font-size="25" fill="#2A2C34"/><text text-anchor="middle" pointer-events="none" x="0" y="5" font-size="10px" fill="#2A2C34" font-family="sans-serif"> BOS</text></g><g class="node" transform="translate(-100.14653431596467,300.3457491038099)"><circle class="outline" cx="0" cy="0" r="25" fill="#ECB5C9" stroke="#da7298" stroke-width="2px"/><text text-anchor="middle" pointer-events="none" font-family="sans-serif" dy="1.5625" font-size="25" fill="#2A2C34"/><text text-anchor="middle" pointer-events="none" x="0" y="5" font-size="10px" fill="#2A2C34" font-family="sans-serif"> EWR</text></g><g class="node" transform="translate(401.2479427750345,7.867156897438947)"><circle class="outline" cx="0" cy="0" r="25" fill="#ECB5C9" stroke="#da7298" stroke-width="2px"/><text text-anchor="middle" pointer-events="none" font-family="sans-serif" dy="1.5625" font-size="25" fill="#2A2C34"/><text text-anchor="middle" pointer-events="none" x="0" y="5" font-size="10px" fill="#2A2C34" font-family="sans-serif"> IAH</text></g><g class="node" transform="translate(109.76795339647266,224.67622914320393)"><circle class="outline" cx="0" cy="0" r="25" fill="#4C8EDA" stroke="#2870c2" stroke-width="2px"/><text text-anchor="middle" pointer-events="none" font-family="sans-serif" dy="1.5625" font-size="25" fill="#FFFFFF"/><text text-anchor="middle" pointer-events="none" x="0" y="5" font-size="10px" fill="#FFFFFF" font-family="sans-serif"> 11/4/2015</text></g><g class="node" transform="translate(263.2195532367258,108.13930831557566)"><circle class="outline" cx="0" cy="0" r="25" fill="#4C8EDA" stroke="#2870c2" stroke-width="2px"/><text text-anchor="middle" pointer-events="none" font-family="sans-serif" dy="1.5625" font-size="25" fill="#FFFFFF"/><text text-anchor="middle" pointer-events="none" x="0" y="5" font-size="10px" fill="#FFFFFF" font-family="sans-serif"> 11/4/2015</text></g><g class="node" transform="translate(215.74797040678004,-12.404047503633759)"><circle class="outline" cx="0" cy="0" r="25" fill="#4C8EDA" stroke="#2870c2" stroke-width="2px"/><text text-anchor="middle" pointer-events="none" font-family="sans-serif" dy="1.5625" font-size="25" fill="#FFFFFF"/><text text-anchor="middle" pointer-events="none" x="0" y="5" font-size="10px" fill="#FFFFFF" font-family="sans-serif"> 11/29/20…</text></g><g class="node" transform="translate(111.23604854947342,284.2738982643275)"><circle class="outline" cx="0" cy="0" r="25" fill="#4C8EDA" stroke="#2870c2" stroke-width="2px"/><text text-anchor="middle" pointer-events="none" font-family="sans-serif" dy="1.5625" font-size="25" fill="#FFFFFF"/><text text-anchor="middle" pointer-events="none" x="0" y="5" font-size="10px" fill="#FFFFFF" font-family="sans-serif"> 11/2/2015</text></g><g class="node" transform="translate(171.55809583067497,-58.739628741477134)"><circle class="outline" cx="0" cy="0" r="25" fill="#4C8EDA" stroke="#2870c2" stroke-width="2px"/><text text-anchor="middle" pointer-events="none" font-family="sans-serif" dy="1.5625" font-size="25" fill="#FFFFFF"/><text text-anchor="middle" pointer-events="none" x="0" y="5" font-size="10px" fill="#FFFFFF" font-family="sans-serif"> 11/1/2015</text></g><g class="node" transform="translate(-29.998577118454566,-49.583973258209376)"><circle class="outline" cx="0" cy="0" r="25" fill="#4C8EDA" stroke="#2870c2" stroke-width="2px"/><text text-anchor="middle" pointer-events="none" font-family="sans-serif" dy="1.5625" font-size="25" fill="#FFFFFF"/><text text-anchor="middle" pointer-events="none" x="0" y="5" font-size="10px" fill="#FFFFFF" font-family="sans-serif"> 11/2/2015</text></g><g class="node" transform="translate(267.24366080136326,167.858902142463)"><circle class="outline" cx="0" cy="0" r="25" fill="#4C8EDA" stroke="#2870c2" stroke-width="2px"/><text text-anchor="middle" pointer-events="none" font-family="sans-serif" dy="1.5625" font-size="25" fill="#FFFFFF"/><text text-anchor="middle" pointer-events="none" x="0" y="5" font-size="10px" fill="#FFFFFF" font-family="sans-serif"> 11/3/2015</text></g><g class="node" transform="translate(213.62374891973226,141.876188838302)"><circle class="outline" cx="0" cy="0" r="25" fill="#4C8EDA" stroke="#2870c2" stroke-width="2px"/><text text-anchor="middle" pointer-events="none" font-family="sans-serif" dy="1.5625" font-size="25" fill="#FFFFFF"/><text text-anchor="middle" pointer-events="none" x="0" y="5" font-size="10px" fill="#FFFFFF" font-family="sans-serif"> 11/1/2015</text></g><g class="node" transform="translate(162.58745155744106,253.54253687265057)"><circle class="outline" cx="0" cy="0" r="25" fill="#4C8EDA" stroke="#2870c2" stroke-width="2px"/><text text-anchor="middle" pointer-events="none" font-family="sans-serif" dy="1.5625" font-size="25" fill="#FFFFFF"/><text text-anchor="middle" pointer-events="none" x="0" y="5" font-size="10px" fill="#FFFFFF" font-family="sans-serif"> 11/1/2015</text></g><g class="node" transform="translate(8.17944440828678,-95.76661449297133)"><circle class="outline" cx="0" cy="0" r="25" fill="#4C8EDA" stroke="#2870c2" stroke-width="2px"/><text text-anchor="middle" pointer-events="none" font-family="sans-serif" dy="1.5625" font-size="25" fill="#FFFFFF"/><text text-anchor="middle" pointer-events="none" x="0" y="5" font-size="10px" fill="#FFFFFF" font-family="sans-serif"> 11/3/2015</text></g><g class="node" transform="translate(56.01203347917803,261.51471686427203)"><circle class="outline" cx="0" cy="0" r="25" fill="#4C8EDA" stroke="#2870c2" stroke-width="2px"/><text text-anchor="middle" pointer-events="none" font-family="sans-serif" dy="1.5625" font-size="25" fill="#FFFFFF"/><text text-anchor="middle" pointer-events="none" x="0" y="5" font-size="10px" fill="#FFFFFF" font-family="sans-serif"> 11/3/2015</text></g><g class="node" transform="translate(29.03915082300597,-39.9606697043318)"><circle class="outline" cx="0" cy="0" r="25" fill="#4C8EDA" stroke="#2870c2" stroke-width="2px"/><text text-anchor="middle" pointer-events="none" font-family="sans-serif" dy="1.5625" font-size="25" fill="#FFFFFF"/><text text-anchor="middle" pointer-events="none" x="0" y="5" font-size="10px" fill="#FFFFFF" font-family="sans-serif"> 11/1/2015</text></g><g class="node" transform="translate(115.19039103841612,-78.77370471911993)"><circle class="outline" cx="0" cy="0" r="25" fill="#4C8EDA" stroke="#2870c2" stroke-width="2px"/><text text-anchor="middle" pointer-events="none" font-family="sans-serif" dy="1.5625" font-size="25" fill="#FFFFFF"/><text text-anchor="middle" pointer-events="none" x="0" y="5" font-size="10px" fill="#FFFFFF" font-family="sans-serif"> 11/2/2015</text></g><g class="node" transform="translate(-8.860551465563912,6.2958706438077074)"><circle class="outline" cx="0" cy="0" r="25" fill="#4C8EDA" stroke="#2870c2" stroke-width="2px"/><text text-anchor="middle" pointer-events="none" font-family="sans-serif" dy="1.5625" font-size="25" fill="#FFFFFF"/><text text-anchor="middle" pointer-events="none" x="0" y="5" font-size="10px" fill="#FFFFFF" font-family="sans-serif"> 11/1/2015</text></g><g class="node" transform="translate(-79.50566024210045,178.33024276001586)"><circle class="outline" cx="0" cy="0" r="25" fill="#4C8EDA" stroke="#2870c2" stroke-width="2px"/><text text-anchor="middle" pointer-events="none" font-family="sans-serif" dy="1.5625" font-size="25" fill="#FFFFFF"/><text text-anchor="middle" pointer-events="none" x="0" y="5" font-size="10px" fill="#FFFFFF" font-family="sans-serif"> 11/29/20…</text></g><g class="node" transform="translate(-67.87233682001762,-3.1522692151644813)"><circle class="outline" cx="0" cy="0" r="25" fill="#4C8EDA" stroke="#2870c2" stroke-width="2px"/><text text-anchor="middle" pointer-events="none" font-family="sans-serif" dy="1.5625" font-size="25" fill="#FFFFFF"/><text text-anchor="middle" pointer-events="none" x="0" y="5" font-size="10px" fill="#FFFFFF" font-family="sans-serif"> 11/2/2015</text></g><g class="node" transform="translate(-105.69577505961752,43.31736193615367)"><circle class="outline" cx="0" cy="0" r="25" fill="#4C8EDA" stroke="#2870c2" stroke-width="2px"/><text text-anchor="middle" pointer-events="none" font-family="sans-serif" dy="1.5625" font-size="25" fill="#FFFFFF"/><text text-anchor="middle" pointer-events="none" x="0" y="5" font-size="10px" fill="#FFFFFF" font-family="sans-serif"> 11/4/2015</text></g><g class="node" transform="translate(-20.966422646940817,166.108765412697)"><circle class="outline" cx="0" cy="0" r="25" fill="#4C8EDA" stroke="#2870c2" stroke-width="2px"/><text text-anchor="middle" pointer-events="none" font-family="sans-serif" dy="1.5625" font-size="25" fill="#FFFFFF"/><text text-anchor="middle" pointer-events="none" x="0" y="5" font-size="10px" fill="#FFFFFF" font-family="sans-serif"> 11/29/20…</text></g><g class="node" transform="translate(1.0439934779187738,221.7538255127228)"><circle class="outline" cx="0" cy="0" r="25" fill="#4C8EDA" stroke="#2870c2" stroke-width="2px"/><text text-anchor="middle" pointer-events="none" font-family="sans-serif" dy="1.5625" font-size="25" fill="#FFFFFF"/><text text-anchor="middle" pointer-events="none" x="0" y="5" font-size="10px" fill="#FFFFFF" font-family="sans-serif"> 11/30/20…</text></g><g class="node" transform="translate(219.80326062546214,204.2720955784707)"><circle class="outline" cx="0" cy="0" r="25" fill="#4C8EDA" stroke="#2870c2" stroke-width="2px"/><text text-anchor="middle" pointer-events="none" font-family="sans-serif" dy="1.5625" font-size="25" fill="#FFFFFF"/><text text-anchor="middle" pointer-events="none" x="0" y="5" font-size="10px" fill="#FFFFFF" font-family="sans-serif"> 11/2/2015</text></g><g class="node" transform="translate(-46.80774223970837,52.72853962466027)"><circle class="outline" cx="0" cy="0" r="25" fill="#4C8EDA" stroke="#2870c2" stroke-width="2px"/><text text-anchor="middle" pointer-events="none" font-family="sans-serif" dy="1.5625" font-size="25" fill="#FFFFFF"/><text text-anchor="middle" pointer-events="none" x="0" y="5" font-size="10px" fill="#FFFFFF" font-family="sans-serif"> 11/3/2015</text></g><g class="node" transform="translate(248.00594829383516,40.35639073045248)"><circle class="outline" cx="0" cy="0" r="25" fill="#4C8EDA" stroke="#2870c2" stroke-width="2px"/><text text-anchor="middle" pointer-events="none" font-family="sans-serif" dy="1.5625" font-size="25" fill="#FFFFFF"/><text text-anchor="middle" pointer-events="none" x="0" y="5" font-size="10px" fill="#FFFFFF" font-family="sans-serif"> 11/30/20…</text></g></g></svg>