<svg xmlns="http://www.w3.org/2000/svg" width="696.1737670898438" height="303.57977294921875" viewBox="-293.07354736328125 -79.65101623535156 696.1737670898438 303.57977294921875"><title>Neo4j Graph Visualization</title><desc>Created using Neo4j (http://www.neo4j.com/)</desc><g class="layer relationships"><g class="relationship" transform="translate(267.22845429231904 194.92874029711484) rotate(331.38694350095545)"><path class="outline" fill="#A5ABB6" stroke="none" d="M 25 0.5 L 40.14700392036215 0.5 L 40.14700392036215 -0.5 L 25 -0.5 Z M 74.59231642036215 0.5 L 89.7393203407243 0.5 L 89.7393203407243 3.5 L 96.7393203407243 0 L 89.7393203407243 -3.5 L 89.7393203407243 -0.5 L 74.59231642036215 -0.5 Z"/><text text-anchor="middle" pointer-events="none" font-size="8px" fill="#000000" x="57.36966017036215" y="3" font-family="sans-serif">ORIGIN</text></g><g class="relationship" transform="translate(267.22845429231904 194.92874029711484) rotate(206.398975211167)"><path class="outline" fill="#A5ABB6" stroke="none" d="M 25 0.5 L 25.540456776410515 0.5 L 25.540456776410515 -0.5 L 25 -0.5 Z M 74.21233177641051 0.5 L 74.75278855282103 0.5 L 74.75278855282103 3.5 L 81.75278855282103 0 L 74.75278855282103 -3.5 L 74.75278855282103 -0.5 L 74.21233177641051 -0.5 Z"/><text text-anchor="middle" pointer-events="none" font-size="8px" fill="#000000" x="49.876394276410515" y="3" transform="rotate(180 49.876394276410515 0)" font-family="sans-serif">DESTINA…</text></g><g class="relationship" transform="translate(176.80130739089896 33.65038147681031) rotate(452.6126425766568)"><path class="outline" fill="#A5ABB6" stroke="none" d="M 25 0.5 L 36.24357000088914 0.5 L 36.24357000088914 -0.5 L 25 -0.5 Z M 70.68888250088915 0.5 L 81.93245250177829 0.5 L 81.93245250177829 3.5 L 88.93245250177829 0 L 81.93245250177829 -3.5 L 81.93245250177829 -0.5 L 70.68888250088915 -0.5 Z"/><text text-anchor="middle" pointer-events="none" font-size="8px" fill="#000000" x="53.46622625088914" y="3" transform="rotate(180 53.46622625088914 0)" font-family="sans-serif">ORIGIN</text></g><g class="relationship" transform="translate(176.80130739089896 33.65038147681031) rotate(229.8501979188925)"><path class="outline" fill="#A5ABB6" stroke="none" d="M 25 0.5 L 25.160624057676586 0.5 L 25.160624057676586 -0.5 L 25 -0.5 Z M 78.12937405767659 0.5 L 78.28999811535317 0.5 L 78.28999811535317 3.5 L 85.28999811535317 0 L 78.28999811535317 -3.5 L 78.28999811535317 -0.5 L 78.12937405767659 -0.5 Z"/><text text-anchor="middle" pointer-events="none" font-size="8px" fill="#000000" x="51.644999057676586" y="3" transform="rotate(180 51.644999057676586 0)" font-family="sans-serif">DESTINAT…</text></g><g class="relationship" transform="translate(11.98966348532878 9.237521276650295) rotate(327.4146707663976)"><path class="outline" fill="#A5ABB6" stroke="none" d="M 25 0.5 L 25.616754574546093 0.5 L 25.616754574546093 -0.5 L 25 -0.5 Z M 78.58550457454609 0.5 L 79.20225914909219 0.5 L 79.20225914909219 3.5 L 86.20225914909219 0 L 79.20225914909219 -3.5 L 79.20225914909219 -0.5 L 78.58550457454609 -0.5 Z"/><text text-anchor="middle" pointer-events="none" font-size="8px" fill="#000000" x="52.10112957454609" y="3" font-family="sans-serif">DESTINAT…</text></g><g class="relationship" transform="translate(11.98966348532878 9.237521276650295) rotate(471.9433145836266)"><path class="outline" fill="#A5ABB6" stroke="none" d="M 25 0.5 L 36.106716902421255 0.5 L 36.106716902421255 -0.5 L 25 -0.5 Z M 70.55202940242125 0.5 L 81.65874630484251 0.5 L 81.65874630484251 3.5 L 88.65874630484251 0 L 81.65874630484251 -3.5 L 81.65874630484251 -0.5 L 70.55202940242125 -0.5 Z"/><text text-anchor="middle" pointer-events="none" font-size="8px" fill="#000000" x="53.329373152421255" y="3" transform="rotate(180 53.329373152421255 0)" font-family="sans-serif">ORIGIN</text></g><g class="relationship" transform="translate(-124.7230270392067 176.10612403328327) rotate(326.8957687504251)"><path class="outline" fill="#A5ABB6" stroke="none" d="M 25 0.5 L 35.527843454800546 0.5 L 35.527843454800546 -0.5 L 25 -0.5 Z M 69.97315595480055 0.5 L 80.50099940960109 0.5 L 80.50099940960109 3.5 L 87.50099940960109 0 L 80.50099940960109 -3.5 L 80.50099940960109 -0.5 L 69.97315595480055 -0.5 Z"/><text text-anchor="middle" pointer-events="none" font-size="8px" fill="#000000" x="52.750499704800546" y="3" font-family="sans-serif">ORIGIN</text></g><g class="relationship" transform="translate(-124.7230270392067 176.10612403328327) rotate(532.4171734022308)"><path class="outline" fill="#A5ABB6" stroke="none" d="M 25 0.5 L 37.19422808986535 0.5 L 37.19422808986535 -0.5 L 25 -0.5 Z M 96.38563433986535 0.5 L 108.5798624297307 0.5 L 108.5798624297307 3.5 L 115.5798624297307 0 L 108.5798624297307 -3.5 L 108.5798624297307 -0.5 L 96.38563433986535 -0.5 Z"/><text text-anchor="middle" pointer-events="none" font-size="8px" fill="#000000" x="66.78993121486535" y="3" transform="rotate(180 66.78993121486535 0)" font-family="sans-serif">DESTINATION</text></g></g><g class="layer nodes"><g class="node" transform="translate(374.1002224322156,136.62876352461794)"><circle class="outline" cx="0" cy="0" r="25" fill="#ECB5C9" stroke="#da7298" stroke-width="2px"/><text text-anchor="middle" pointer-events="none" font-family="sans-serif" dy="1.5625" font-size="25" fill="#2A2C34"/><text text-anchor="middle" pointer-events="none" x="0" y="5" font-size="10px" fill="#2A2C34" font-family="sans-serif"> LAX</text></g><g class="node" transform="translate(-264.07353786695944,194.65694215018516)"><circle class="outline" cx="0" cy="0" r="25" fill="#ECB5C9" stroke="#da7298" stroke-width="2px"/><text text-anchor="middle" pointer-events="none" font-family="sans-serif" dy="1.5625" font-size="25" fill="#2A2C34"/><text text-anchor="middle" pointer-events="none" x="0" y="5" font-size="10px" fill="#2A2C34" font-family="sans-serif"> DAY</text></g><g class="node" transform="translate(267.22845429231904,194.92874029711484)"><circle class="outline" cx="0" cy="0" r="25" fill="#4C8EDA" stroke="#2870c2" stroke-width="2px"/><text text-anchor="middle" pointer-events="none" font-family="sans-serif" dy="1.5625" font-size="25" fill="#FFFFFF"/><text text-anchor="middle" pointer-events="none" x="0" y="5" font-size="10px" fill="#FFFFFF" font-family="sans-serif"> 11/29/20…</text></g><g class="node" transform="translate(171.60787718769745,147.46440528668376)"><circle class="outline" cx="0" cy="0" r="25" fill="#ECB5C9" stroke="#da7298" stroke-width="2px"/><text text-anchor="middle" pointer-events="none" font-family="sans-serif" dy="1.5625" font-size="25" fill="#2A2C34"/><text text-anchor="middle" pointer-events="none" x="0" y="5" font-size="10px" fill="#2A2C34" font-family="sans-serif"> LAS</text></g><g class="node" transform="translate(176.80130739089896,33.65038147681031)"><circle class="outline" cx="0" cy="0" r="25" fill="#4C8EDA" stroke="#2870c2" stroke-width="2px"/><text text-anchor="middle" pointer-events="none" font-family="sans-serif" dy="1.5625" font-size="25" fill="#FFFFFF"/><text text-anchor="middle" pointer-events="none" x="0" y="5" font-size="10px" fill="#FFFFFF" font-family="sans-serif"> 11/29/20…</text></g><g class="node" transform="translate(105.6876109801357,-50.65101748597324)"><circle class="outline" cx="0" cy="0" r="25" fill="#ECB5C9" stroke="#da7298" stroke-width="2px"/><text text-anchor="middle" pointer-events="none" font-family="sans-serif" dy="1.5625" font-size="25" fill="#2A2C34"/><text text-anchor="middle" pointer-events="none" x="0" y="5" font-size="10px" fill="#2A2C34" font-family="sans-serif"> DEN</text></g><g class="node" transform="translate(11.98966348532878,9.237521276650295)"><circle class="outline" cx="0" cy="0" r="25" fill="#4C8EDA" stroke="#2870c2" stroke-width="2px"/><text text-anchor="middle" pointer-events="none" font-family="sans-serif" dy="1.5625" font-size="25" fill="#FFFFFF"/><text text-anchor="middle" pointer-events="none" x="0" y="5" font-size="10px" fill="#FFFFFF" font-family="sans-serif"> 11/29/20…</text></g><g class="node" transform="translate(-30.48337152902198,114.66214794546181)"><circle class="outline" cx="0" cy="0" r="25" fill="#ECB5C9" stroke="#da7298" stroke-width="2px"/><text text-anchor="middle" pointer-events="none" font-family="sans-serif" dy="1.5625" font-size="25" fill="#2A2C34"/><text text-anchor="middle" pointer-events="none" x="0" y="5" font-size="10px" fill="#2A2C34" font-family="sans-serif"> MSP</text></g><g class="node" transform="translate(-124.7230270392067,176.10612403328327)"><circle class="outline" cx="0" cy="0" r="25" fill="#4C8EDA" stroke="#2870c2" stroke-width="2px"/><text text-anchor="middle" pointer-events="none" font-family="sans-serif" dy="1.5625" font-size="25" fill="#FFFFFF"/><text text-anchor="middle" pointer-events="none" x="0" y="5" font-size="10px" fill="#FFFFFF" font-family="sans-serif"> 11/23/20…</text></g></g></svg>