<svg xmlns="http://www.w3.org/2000/svg" width="158.865234375" height="242.7069091796875" viewBox="1.3308734893798828 -21.20840072631836 158.865234375 242.7069091796875"><title>Neo4j Graph Visualization</title><desc>Created using Neo4j (http://www.neo4j.com/)</desc><g class="layer relationships"><g class="relationship" transform="translate(131.1961048102812 7.79159970326972) rotate(519.0133765871524)"><path class="outline" fill="#A5ABB6" stroke="none" d="M 21.40063509461097,12.933012701892217 L 21.90063509461097,12.06698729810778 A 59.92885594503536 59.92885594503536 0 0 0 40.28038236143394,18.96557006501311 L 40.087075138677676,19.946708341521713 A 60.92885594503536 60.92885594503536 0 0 1 21.40063509461097,12.933012701892217 Z M 59.93751804282184,20.558804843796665 L 59.80502819297179,19.567620481689033 A 59.92885594503536 59.92885594503536 0 0 0 78.57489400239105,13.814561184191449 L 77.23781703767676,11.129002547626154 L 85.06404364849578,11.142308039285677 L 80.35766328867675,17.395306032945175 L 79.02058632396246,14.70974739637988 A 60.92885594503536 60.92885594503536 0 0 1 59.93751804282184,20.558804843796665"/><text text-anchor="middle" pointer-events="none" font-size="8px" fill="#000000" x="50.00259987568157" y="23.567223491429978" transform="rotate(180 50.00259987568157 20.567223491429978)" font-family="sans-serif">true</text></g><g class="relationship" transform="translate(30.879783807435114 46.272558438743395) rotate(450.294723606552)"><path class="outline" fill="#A5ABB6" stroke="none" d="M 25 0.5 L 39.963187887067555 0.5 L 39.963187887067555 -0.5 L 25 -0.5 Z M 59.748344137067555 0.5 L 74.71153202413511 0.5 L 74.71153202413511 3.5 L 81.71153202413511 0 L 74.71153202413511 -3.5 L 74.71153202413511 -0.5 L 59.748344137067555 -0.5 Z"/><text text-anchor="middle" pointer-events="none" font-size="8px" fill="#000000" x="49.855766012067555" y="3" transform="rotate(180 49.855766012067555 0)" font-family="sans-serif">true</text></g><g class="relationship" transform="translate(30.330873064764646 152.98267868951714) rotate(381.5821233135162)"><path class="outline" fill="#A5ABB6" stroke="none" d="M 25 0.5 L 40.32157351390466 0.5 L 40.32157351390466 -0.5 L 25 -0.5 Z M 60.10672976390466 0.5 L 75.42830327780932 0.5 L 75.42830327780932 3.5 L 82.42830327780932 0 L 75.42830327780932 -3.5 L 75.42830327780932 -0.5 L 60.10672976390466 -0.5 Z"/><text text-anchor="middle" pointer-events="none" font-size="8px" fill="#000000" x="50.21415163890466" y="3" font-family="sans-serif">true</text></g><g class="relationship" transform="translate(131.1961048102812 7.79159970326972) rotate(519.0133765871524)"><path class="outline" fill="#A5ABB6" stroke="none" d="M 25 0.5 L 40.329271351603296 0.5 L 40.329271351603296 -0.5 L 25 -0.5 Z M 60.114427601603296 0.5 L 75.44369895320659 0.5 L 75.44369895320659 3.5 L 82.44369895320659 0 L 75.44369895320659 -3.5 L 75.44369895320659 -0.5 L 60.114427601603296 -0.5 Z"/><text text-anchor="middle" pointer-events="none" font-size="8px" fill="#000000" x="50.221849476603296" y="3" transform="rotate(180 50.221849476603296 0)" font-family="sans-serif">true</text></g><g class="relationship" transform="translate(131.1961048102812 7.79159970326972) rotate(519.0133765871524)"><path class="outline" fill="#A5ABB6" stroke="none" d="M 21.40063509461097,-12.933012701892217 L 21.90063509461097,-12.06698729810778 A 59.92885594503536 59.92885594503536 0 0 1 40.280382361433944,-18.96557006501311 L 40.08707513867768,-19.946708341521713 A 60.92885594503536 60.92885594503536 0 0 0 21.40063509461097,-12.933012701892217 Z M 59.93751804282183,-20.558804843796665 L 59.805028192971776,-19.567620481689033 A 59.92885594503536 59.92885594503536 0 0 1 78.57489400239105,-13.814561184191449 L 77.23781703767676,-11.129002547626154 L 85.06404364849578,-11.142308039285677 L 80.35766328867675,-17.395306032945175 L 79.02058632396246,-14.70974739637988 A 60.92885594503536 60.92885594503536 0 0 0 59.93751804282183,-20.558804843796665"/><text text-anchor="middle" pointer-events="none" font-size="8px" fill="#000000" x="50.00259987568157" y="-17.567223491429978" transform="rotate(180 50.00259987568157 -20.567223491429978)" font-family="sans-serif">true</text></g></g><g class="layer nodes"><g class="node" transform="translate(131.1961048102812,7.79159970326972)"><circle class="outline" cx="0" cy="0" r="25" fill="#F16667" stroke="#eb2728" stroke-width="2px"/><text text-anchor="middle" pointer-events="none" font-family="sans-serif" dy="1.5625" font-size="25" fill="#FFFFFF"/><text text-anchor="middle" pointer-events="none" x="0" y="5" font-size="10px" fill="#FFFFFF" font-family="sans-serif"> Darjeeling</text></g><g class="node" transform="translate(130.22751745048598,192.49850824707178)"><circle class="outline" cx="0" cy="0" r="25" fill="#D9C8AE" stroke="#c0a378" stroke-width="2px"/><text text-anchor="middle" pointer-events="none" font-family="sans-serif" dy="1.5625" font-size="25" fill="#2A2C34"/><text text-anchor="middle" pointer-events="none" x="0" y="5" font-size="10px" fill="#2A2C34" font-family="sans-serif"> Sandak…</text></g><g class="node" transform="translate(30.879783807435114,46.272558438743395)"><circle class="outline" cx="0" cy="0" r="25" fill="#F16667" stroke="#eb2728" stroke-width="2px"/><text text-anchor="middle" pointer-events="none" font-family="sans-serif" dy="1.5625" font-size="25" fill="#FFFFFF"/><text text-anchor="middle" pointer-events="none" x="0" y="5" font-size="10px" fill="#FFFFFF" font-family="sans-serif"> Rimbik</text></g><g class="node" transform="translate(30.330873064764646,152.98267868951714)"><circle class="outline" cx="0" cy="0" r="25" fill="#8DCC93" stroke="#5db665" stroke-width="2px"/><text text-anchor="middle" pointer-events="none" font-family="sans-serif" dy="1.5625" font-size="25" fill="#2A2C34"/><text text-anchor="middle" pointer-events="none" x="0" y="5" font-size="10px" fill="#2A2C34" font-family="sans-serif"> BhikeBh…</text></g></g></svg>