<svg xmlns="http://www.w3.org/2000/svg" width="370.3693542480469" height="416.5476989746094" viewBox="-106.33515167236328 -107.7967300415039 370.3693542480469 416.5476989746094"><title>Neo4j Graph Visualization</title><desc>Created using Neo4j (http://www.neo4j.com/)</desc><g class="layer relationships"><g class="relationship" transform="translate(-77.3351499278757 46.12708499319827) rotate(310.61594340400586)"><path class="outline" fill="#A5ABB6" stroke="none" d="M 24.018736134675446,-6.953439040707552 L 24.277555179777966,-5.987513214418485 A 113.05887499706857 113.05887499706857 0 0 1 41.96669572656849,-9.246056078183969 L 41.86433623006177,-10.240803550397345 A 114.05887499706857 114.05887499706857 0 0 0 24.018736134675446,-6.953439040707552 Z M 61.709120369425776,-10.54693359868854 L 61.63749266730483,-9.54950216130105 A 113.05887499706857 113.05887499706857 0 0 1 79.41872640047453,-6.838133170275845 L 78.73202096967324,-3.9177846206489297 L 86.34732392140421,-5.722545256677342 L 80.33433364154291,-10.731931236445064 L 79.64762821074163,-7.8115826868181495 A 114.05887499706857 114.05887499706857 0 0 0 61.709120369425776,-10.54693359868854"/><text text-anchor="middle" pointer-events="none" font-size="8px" fill="#000000" x="51.78776921355775" y="-7.326391663794098" font-family="sans-serif">true</text></g><g class="relationship" transform="translate(-5.28175933709747 -37.891721025731655) rotate(339.26514240575)"><path class="outline" fill="#A5ABB6" stroke="none" d="M 21.40063509461097,-12.933012701892217 L 21.90063509461097,-12.06698729810778 A 68.28183059217857 68.28183059217857 0 0 1 31.569882315828497,-16.679135107836863 L 31.211490224365228,-17.61270626676186 A 69.28183059217857 69.28183059217857 0 0 0 21.40063509461097,-12.933012701892217 Z M 77.11021831141552,-18.93381831149607 L 76.80611739865626,-17.981178487187336 A 68.28183059217857 68.28183059217857 0 0 1 86.7246413939697,-13.932829317685895 L 85.37656281711396,-11.252776305034349 L 93.20277818629927,-11.23398814046444 L 88.52207949644402,-17.506233334554622 L 87.17400091958828,-14.826180321903076 A 69.28183059217857 69.28183059217857 0 0 0 77.11021831141552,-18.93381831149607"/><text text-anchor="middle" pointer-events="none" font-size="8px" fill="#000000" x="54.06260912170229" y="-18.686543750556368" font-family="sans-serif">twowheeler</text></g><g class="relationship" transform="translate(102.77135399910757 -78.79673104755801) rotate(426.30658783159487)"><path class="outline" fill="#A5ABB6" stroke="none" d="M 21.40063509461097,12.933012701892217 L 21.90063509461097,12.06698729810778 A 66.60474957647907 66.60474957647907 0 0 0 30.784172976535224,16.352614276429556 L 30.417549919447136,17.282983844940574 A 67.60474957647907 67.60474957647907 0 0 1 21.40063509461097,12.933012701892217 Z M 76.27953442953292,18.62094841042621 L 75.96777342636791,17.67078785720083 A 66.60474957647907 66.60474957647907 0 0 0 85.0860452029689,13.910340582614454 L 83.74005851988086,11.229236360666036 L 91.56628616802989,11.216555692400409 L 86.88069411375297,17.485146211879012 L 85.53470743066492,14.804041989930594 A 67.60474957647907 67.60474957647907 0 0 1 76.27953442953292,18.62094841042621"/><text text-anchor="middle" pointer-events="none" font-size="8px" fill="#000000" x="53.24614746849825" y="24.461793324343972" font-family="sans-serif">twowheeler</text></g><g class="relationship" transform="translate(148.5447585982571 25.510579400758175) rotate(404.22498021405767)"><path class="outline" fill="#A5ABB6" stroke="none" d="M 25 0.5 L 46.95395581253445 0.5 L 46.95395581253445 -0.5 L 25 -0.5 Z M 66.73911206253445 0.5 L 88.6930678750689 0.5 L 88.6930678750689 3.5 L 95.6930678750689 0 L 88.6930678750689 -3.5 L 88.6930678750689 -0.5 L 66.73911206253445 -0.5 Z"/><text text-anchor="middle" pointer-events="none" font-size="8px" fill="#000000" x="56.84653393753445" y="3" font-family="sans-serif">true</text></g><g class="relationship" transform="translate(-77.3351499278757 46.12708499319827) rotate(310.61594340400586)"><path class="outline" fill="#A5ABB6" stroke="none" d="M 24.018736134675446,6.953439040707552 L 24.277555179777966,5.987513214418485 A 113.05887499706857 113.05887499706857 0 0 0 41.966695726568496,9.246056078183983 L 41.86433623006178,10.24080355039736 A 114.05887499706857 114.05887499706857 0 0 1 24.018736134675446,6.953439040707552 Z M 61.70912036942583,10.54693359868854 L 61.63749266730488,9.54950216130105 A 113.05887499706857 113.05887499706857 0 0 0 79.41872640047453,6.838133170275845 L 78.73202096967324,3.9177846206489297 L 86.34732392140421,5.722545256677342 L 80.33433364154291,10.731931236445064 L 79.64762821074163,7.8115826868181495 A 114.05887499706857 114.05887499706857 0 0 1 61.70912036942583,10.54693359868854"/><text text-anchor="middle" pointer-events="none" font-size="8px" fill="#000000" x="51.78776921355779" y="13.326391663794098" font-family="sans-serif">true</text></g><g class="relationship" transform="translate(-5.28175933709747 -37.891721025731655) rotate(339.26514240575)"><path class="outline" fill="#A5ABB6" stroke="none" d="M 25 0.5 L 44.3756985208644 0.5 L 44.3756985208644 -0.5 L 25 -0.5 Z M 64.1608547708644 0.5 L 83.5365532917288 0.5 L 83.5365532917288 3.5 L 90.5365532917288 0 L 83.5365532917288 -3.5 L 83.5365532917288 -0.5 L 64.1608547708644 -0.5 Z"/><text text-anchor="middle" pointer-events="none" font-size="8px" fill="#000000" x="54.2682766458644" y="3" font-family="sans-serif">true</text></g><g class="relationship" transform="translate(-5.28175933709747 -37.891721025731655) rotate(339.26514240575)"><path class="outline" fill="#A5ABB6" stroke="none" d="M 21.40063509461097,12.933012701892217 L 21.90063509461097,12.06698729810778 A 68.28183059217857 68.28183059217857 0 0 0 44.31448806247524,20.200448356612682 L 44.142743072241075,21.18558979738627 A 69.28183059217857 69.28183059217857 0 0 1 21.40063509461097,12.933012701892217 Z M 63.99486634727605,21.756997334485234 L 63.88006978534061,20.76360831231527 A 68.28183059217857 68.28183059217857 0 0 0 86.7246413939697,13.932829317685895 L 85.37656281711396,11.252776305034349 L 93.20277818629927,11.23398814046444 L 88.52207949644402,17.506233334554622 L 87.17400091958828,14.826180321903076 A 69.28183059217857 69.28183059217857 0 0 1 63.99486634727605,21.756997334485234"/><text text-anchor="middle" pointer-events="none" font-size="8px" fill="#000000" x="54.0626091217023" y="24.686543750556368" font-family="sans-serif">true</text></g><g class="relationship" transform="translate(102.77135399910757 -78.79673104755801) rotate(426.30658783159487)"><path class="outline" fill="#A5ABB6" stroke="none" d="M 25 0.5 L 43.56183255046668 0.5 L 43.56183255046668 -0.5 L 25 -0.5 Z M 63.34698880046668 0.5 L 81.90882135093337 0.5 L 81.90882135093337 3.5 L 88.90882135093337 0 L 81.90882135093337 -3.5 L 81.90882135093337 -0.5 L 63.34698880046668 -0.5 Z"/><text text-anchor="middle" pointer-events="none" font-size="8px" fill="#000000" x="53.45441067546668" y="3" font-family="sans-serif">true</text></g><g class="relationship" transform="translate(102.77135399910757 -78.79673104755801) rotate(426.30658783159487)"><path class="outline" fill="#A5ABB6" stroke="none" d="M 21.40063509461097,-12.933012701892217 L 21.90063509461097,-12.06698729810778 A 66.60474957647907 66.60474957647907 0 0 1 43.502614259719635,-19.954579463464185 L 43.32694517159108,-20.939028736650002 A 67.60474957647907 67.60474957647907 0 0 0 21.40063509461097,-12.933012701892217 Z M 63.17895557718776,-21.518185673709695 L 63.06097650405601,-20.52516959211637 A 66.60474957647907 66.60474957647907 0 0 1 85.0860452029689,-13.910340582614454 L 83.74005851988086,-11.229236360666036 L 91.56628616802989,-11.216555692400409 L 86.88069411375297,-17.485146211879012 L 85.53470743066492,-14.804041989930594 A 67.60474957647907 67.60474957647907 0 0 0 63.17895557718776,-21.518185673709695"/><text text-anchor="middle" pointer-events="none" font-size="8px" fill="#000000" x="53.24614746849824" y="-18.461793324343972" font-family="sans-serif">true</text></g><g class="relationship" transform="translate(-77.3351499278757 46.12708499319827) rotate(372.7756550443229)"><path class="outline" fill="#A5ABB6" stroke="none" d="M 21.40063509461097,12.933012701892217 L 21.90063509461097,12.06698729810778 A 63.958624284781166 63.958624284781166 0 0 0 42.22349900248523,19.56465554369658 L 42.04124917511847,20.547907800457168 A 64.95862428478117 64.95862428478117 0 0 1 21.40063509461097,12.933012701892217 Z M 61.89287911393429,21.1397085008296 L 61.76952471772966,20.147345818673017 A 63.958624284781166 63.958624284781166 0 0 0 82.50293044731896,13.873613804064517 L 81.16036014360803,11.190797190951812 L 88.98659759520044,11.188085864257786 L 84.2930241856002,17.450702621548125 L 82.95045388188927,14.76788600843542 A 64.95862428478117 64.95862428478117 0 0 1 61.89287911393429,21.1397085008296"/><text text-anchor="middle" pointer-events="none" font-size="8px" fill="#000000" x="51.95921227456736" y="24.107194822298382" font-family="sans-serif">true</text></g><g class="relationship" transform="translate(31.251768932752004 70.74891226425781) rotate(338.9090419947214)"><path class="outline" fill="#A5ABB6" stroke="none" d="M 25 0.5 L 49.46470503483175 0.5 L 49.46470503483175 -0.5 L 25 -0.5 Z M 69.24986128483175 0.5 L 93.7145663196635 0.5 L 93.7145663196635 3.5 L 100.7145663196635 0 L 93.7145663196635 -3.5 L 93.7145663196635 -0.5 L 69.24986128483175 -0.5 Z"/><text text-anchor="middle" pointer-events="none" font-size="8px" fill="#000000" x="59.35728315983175" y="3" font-family="sans-serif">true</text></g><g class="relationship" transform="translate(-77.3351499278757 46.12708499319827) rotate(372.7756550443229)"><path class="outline" fill="#A5ABB6" stroke="none" d="M 25 0.5 L 42.27912322723648 0.5 L 42.27912322723648 -0.5 L 25 -0.5 Z M 62.06427947723648 0.5 L 79.34340270447296 0.5 L 79.34340270447296 3.5 L 86.34340270447296 0 L 79.34340270447296 -3.5 L 79.34340270447296 -0.5 L 62.06427947723648 -0.5 Z"/><text text-anchor="middle" pointer-events="none" font-size="8px" fill="#000000" x="52.17170135223648" y="3" font-family="sans-serif">true</text></g><g class="relationship" transform="translate(-77.3351499278757 46.12708499319827) rotate(372.7756550443229)"><path class="outline" fill="#A5ABB6" stroke="none" d="M 21.40063509461097,-12.933012701892217 L 21.90063509461097,-12.06698729810778 A 63.958624284781166 63.958624284781166 0 0 1 44.61510459494227,-19.961222755869443 L 44.470247779373395,-20.950675383832618 A 64.95862428478117 64.95862428478117 0 0 0 21.40063509461097,-12.933012701892217 Z M 59.44420137342239,-21.397066750768957 L 59.35854293779994,-20.40074218898866 A 63.958624284781166 63.958624284781166 0 0 1 82.50293044731896,-13.873613804064517 L 81.16036014360803,-11.190797190951812 L 88.98659759520044,-11.188085864257786 L 84.2930241856002,-17.450702621548125 L 82.95045388188927,-14.76788600843542 A 64.95862428478117 64.95862428478117 0 0 0 59.44420137342239,-21.397066750768957"/><text text-anchor="middle" pointer-events="none" font-size="8px" fill="#000000" x="51.95921227456738" y="-18.107194822298382" font-family="sans-serif">15</text></g><g class="relationship" transform="translate(31.251768932752004 70.74891226425781) rotate(447.39990880393805)"><path class="outline" fill="#A5ABB6" stroke="none" d="M 24.018736134675446,-6.953439040707552 L 24.277555179777966,-5.987513214418485 A 138.45049356860002 138.45049356860002 0 0 1 35.17303471479546,-8.44061131067403 L 34.99291152157605,-9.424255369907058 A 139.45049356860002 139.45049356860002 0 0 0 24.018736134675446,-6.953439040707552 Z M 81.4034950661545,-10.06998036887964 L 81.2508077948362,-9.081705813314528 A 138.45049356860002 138.45049356860002 0 0 1 92.21031808028644,-6.932683042158324 L 91.51478126708167,-4.014425250002712 L 99.13550906418367,-5.796140110039786 L 93.13770049789281,-10.82369343169914 L 92.44216368468804,-7.905435639543528 A 139.45049356860002 139.45049356860002 0 0 0 81.4034950661545,-10.06998036887964"/><text text-anchor="middle" pointer-events="none" font-size="8px" fill="#000000" x="58.178105033509596" y="-8.191652296311815" font-family="sans-serif">twowheeler</text></g><g class="relationship" transform="translate(36.85222226326117 194.0761397385543) rotate(352.6439513802827)"><path class="outline" fill="#A5ABB6" stroke="none" d="M 24.018736134675446,-6.953439040707552 L 24.277555179777966,-5.987513214418485 A 111.62498392444955 111.62498392444955 0 0 1 28.512020713527424,-7.03390731527989 L 28.29113641551177,-8.009207334192084 A 112.62498392444955 112.62498392444955 0 0 0 24.018736134675446,-6.953439040707552 Z M 74.6243603540867,-8.728354589010465 L 74.43385081812272,-7.746669243949853 A 111.62498392444955 111.62498392444955 0 0 1 78.69875137456893,-6.8321955076105425 L 78.01260056276249,-3.911716597661463 L 85.62756063308451,-5.717923431720356 L 79.61361912364418,-10.726167387542647 L 78.92746831183774,-7.805688477593568 A 112.62498392444955 112.62498392444955 0 0 0 74.6243603540867,-8.728354589010465"/><text text-anchor="middle" pointer-events="none" font-size="8px" fill="#000000" x="51.42812217085968" y="-7.277538863013618" font-family="sans-serif">twowheeler</text></g><g class="relationship" transform="translate(145.912059770331 179.9968020343784) rotate(321.7312604141199)"><path class="outline" fill="#A5ABB6" stroke="none" d="M 24.018736134675446,6.953439040707552 L 24.277555179777966,5.987513214418485 A 118.7022074759531 118.7022074759531 0 0 0 30.259800179421163,7.425373684519528 L 30.051378217295007,8.403412684612817 A 119.7022074759531 119.7022074759531 0 0 1 24.018736134675446,6.953439040707552 Z M 76.41102197873784,9.101732200660749 L 76.2321524719848,8.117859394067366 A 118.7022074759531 118.7022074759531 0 0 0 82.25499080302077,6.860832582325194 L 81.56616510519346,3.940983415328256 L 89.18277647565152,5.740214148560952 L 83.17342506679053,10.753964804987778 L 82.48459936896322,7.83411563799084 A 119.7022074759531 119.7022074759531 0 0 1 76.41102197873784,9.101732200660749"/><text text-anchor="middle" pointer-events="none" font-size="8px" fill="#000000" x="53.20459718242806" y="13.518671858949574" font-family="sans-serif">twowheeler</text></g><g class="relationship" transform="translate(31.251768932752004 70.74891226425781) rotate(447.39990880393805)"><path class="outline" fill="#A5ABB6" stroke="none" d="M 24.018736134675446,6.953439040707552 L 24.277555179777966,5.987513214418485 A 138.45049356860002 138.45049356860002 0 0 0 48.34223786551472,10.20398485227227 L 48.25723317141567,11.200365403056509 A 139.45049356860002 139.45049356860002 0 0 1 24.018736134675446,6.953439040707552 Z M 68.09489425899054,11.476373001045204 L 68.03764301279192,10.478013198765126 A 138.45049356860002 138.45049356860002 0 0 0 92.21031808028644,6.932683042158324 L 91.51478126708167,4.014425250002712 L 99.13550906418367,5.796140110039786 L 93.13770049789281,10.82369343169914 L 92.44216368468804,7.905435639543528 A 139.45049356860002 139.45049356860002 0 0 1 68.09489425899054,11.476373001045204"/><text text-anchor="middle" pointer-events="none" font-size="8px" fill="#000000" x="58.17810503350966" y="14.191652296311815" font-family="sans-serif">true</text></g><g class="relationship" transform="translate(36.85222226326117 194.0761397385543) rotate(352.6439513802827)"><path class="outline" fill="#A5ABB6" stroke="none" d="M 24.018736134675446,6.953439040707552 L 24.277555179777966,5.987513214418485 A 111.62498392444955 111.62498392444955 0 0 0 41.608112505144284,9.190833953948513 L 41.5045504349238,10.18545694665059 A 112.62498392444955 112.62498392444955 0 0 1 24.018736134675446,6.953439040707552 Z M 61.349771484739335,10.493478599928139 L 61.277127349566456,9.496120675397037 A 111.62498392444955 111.62498392444955 0 0 0 78.69875137456893,6.8321955076105425 L 78.01260056276249,3.911716597661463 L 85.62756063308451,5.717923431720356 L 79.61361912364418,10.726167387542647 L 78.92746831183774,7.805688477593568 A 112.62498392444955 112.62498392444955 0 0 1 61.349771484739335,10.493478599928139"/><text text-anchor="middle" pointer-events="none" font-size="8px" fill="#000000" x="51.4281221708597" y="13.277538863013618" font-family="sans-serif">true</text></g><g class="relationship" transform="translate(145.912059770331 179.9968020343784) rotate(321.7312604141199)"><path class="outline" fill="#A5ABB6" stroke="none" d="M 24.018736134675446,-6.953439040707552 L 24.277555179777966,-5.987513214418485 A 118.7022074759531 118.7022074759531 0 0 1 43.37961795785167,-9.462038641102922 L 43.28172315488629,-10.457235409361516 A 119.7022074759531 119.7022074759531 0 0 0 24.018736134675446,-6.953439040707552 Z M 63.12481972246537,-10.756133771550608 L 63.05694401053389,-9.758439987000557 A 118.7022074759531 118.7022074759531 0 0 1 82.25499080302077,-6.860832582325194 L 81.56616510519346,-3.940983415328256 L 89.18277647565152,-5.740214148560952 L 83.17342506679053,-10.753964804987778 L 82.48459936896322,-7.83411563799084 A 119.7022074759531 119.7022074759531 0 0 0 63.12481972246537,-10.756133771550608"/><text text-anchor="middle" pointer-events="none" font-size="8px" fill="#000000" x="53.204597182428046" y="-7.518671858949574" font-family="sans-serif">true</text></g><g class="relationship" transform="translate(31.251768932752004 70.74891226425781) rotate(251.41330550646967)"><path class="outline" fill="#A5ABB6" stroke="none" d="M 25 0.5 L 43.916858029733405 0.5 L 43.916858029733405 -0.5 L 25 -0.5 Z M 63.702014279733405 0.5 L 82.61887230946681 0.5 L 82.61887230946681 3.5 L 89.61887230946681 0 L 82.61887230946681 -3.5 L 82.61887230946681 -0.5 L 63.702014279733405 -0.5 Z"/><text text-anchor="middle" pointer-events="none" font-size="8px" fill="#000000" x="53.809436154733405" y="3" transform="rotate(180 53.809436154733405 0)" font-family="sans-serif">true</text></g><g class="relationship" transform="translate(36.85222226326117 194.0761397385543) rotate(406.7267956004534)"><path class="outline" fill="#A5ABB6" stroke="none" d="M 24.018736134675446,-6.953439040707552 L 24.277555179777966,-5.987513214418485 A 126.96930713201462 126.96930713201462 0 0 1 32.310813109863204,-7.862590271880094 L 32.11526335488709,-8.843284053510615 A 127.96930713201462 127.96930713201462 0 0 0 24.018736134675446,-6.953439040707552 Z M 78.49962184090343,-9.518643875705664 L 78.33270688050708,-8.532672579979518 A 126.96930713201462 126.96930713201462 0 0 1 86.41715045692798,-6.892270494403282 L 85.72538830332013,-3.9731156299201005 L 93.34380549965672,-5.764684613398812 L 87.3394999950718,-10.784476980380857 L 86.64773784146395,-7.865322115897675 A 127.96930713201462 127.96930713201462 0 0 0 78.49962184090343,-9.518643875705664"/><text text-anchor="middle" pointer-events="none" font-size="8px" fill="#000000" x="55.28386380358107" y="-7.800378108290673" font-family="sans-serif">twowheeler</text></g><g class="relationship" transform="translate(117.51247486994413 279.7509618906125) rotate(285.89142771932495)"><path class="outline" fill="#A5ABB6" stroke="none" d="M 21.40063509461097,12.933012701892217 L 21.90063509461097,12.06698729810778 A 56.06978667642299 56.06978667642299 0 0 0 25.923550236499192,14.1771242671554 L 25.495298594756807,15.08078378895825 A 57.06978667642299 57.06978667642299 0 0 1 21.40063509461097,12.933012701892217 Z M 71.04105967899201,16.532868580585898 L 70.67123998147264,15.603765038817443 A 56.06978667642299 56.06978667642299 0 0 0 74.8203988756016,13.754169207765285 L 73.48894006768482,11.065820747684102 L 81.31512175044381,11.095490065973033 L 76.59567728615728,17.338633821206862 L 75.26421847824051,14.65028536112568 A 57.06978667642299 57.06978667642299 0 0 1 71.04105967899201,16.532868580585898"/><text text-anchor="middle" pointer-events="none" font-size="8px" fill="#000000" x="48.13289282302202" y="23.050185914324146" font-family="sans-serif">twowheeler</text></g><g class="relationship" transform="translate(36.85222226326117 194.0761397385543) rotate(406.7267956004534)"><path class="outline" fill="#A5ABB6" stroke="none" d="M 24.018736134675446,6.953439040707552 L 24.277555179777966,5.987513214418485 A 126.96930713201462 126.96930713201462 0 0 0 45.4538642871873,9.77498738429287 L 45.361828140926555,10.770743051001062 A 127.96930713201462 127.96930713201462 0 0 1 24.018736134675446,6.953439040707552 Z M 65.20255629189265,11.059625576783887 L 65.13954957205036,10.061612474036878 A 126.96930713201462 126.96930713201462 0 0 0 86.41715045692798,6.892270494403282 L 85.72538830332013,3.9731156299201005 L 93.34380549965672,5.764684613398812 L 87.3394999950718,10.784476980380857 L 86.64773784146395,7.865322115897675 A 127.96930713201462 127.96930713201462 0 0 1 65.20255629189265,11.059625576783887"/><text text-anchor="middle" pointer-events="none" font-size="8px" fill="#000000" x="55.28386380358107" y="13.800378108290673" font-family="sans-serif">true</text></g><g class="relationship" transform="translate(117.51247486994413 279.7509618906125) rotate(285.89142771932495)"><path class="outline" fill="#A5ABB6" stroke="none" d="M 25 0.5 L 38.466434667226835 0.5 L 38.466434667226835 -0.5 L 25 -0.5 Z M 58.251590917226835 0.5 L 71.71802558445367 0.5 L 71.71802558445367 3.5 L 78.71802558445367 0 L 71.71802558445367 -3.5 L 71.71802558445367 -0.5 L 58.251590917226835 -0.5 Z"/><text text-anchor="middle" pointer-events="none" font-size="8px" fill="#000000" x="48.359012792226835" y="3" font-family="sans-serif">true</text></g><g class="relationship" transform="translate(117.51247486994413 279.7509618906125) rotate(285.89142771932495)"><path class="outline" fill="#A5ABB6" stroke="none" d="M 21.40063509461097,-12.933012701892217 L 21.90063509461097,-12.06698729810778 A 56.06978667642299 56.06978667642299 0 0 1 38.425787113330166,-18.384867580029194 L 38.220511830477484,-19.363571855206203 A 57.06978667642299 57.06978667642299 0 0 0 21.40063509461097,-12.933012701892217 Z M 58.068879951783146,-19.99637527755479 L 57.92636406040483,-19.00658276358803 A 56.06978667642299 56.06978667642299 0 0 1 74.8203988756016,-13.754169207765285 L 73.48894006768482,-11.065820747684102 L 81.31512175044381,-11.095490065973033 L 76.59567728615728,-17.338633821206862 L 75.26421847824051,-14.65028536112568 A 57.06978667642299 57.06978667642299 0 0 0 58.068879951783146,-19.99637527755479"/><text text-anchor="middle" pointer-events="none" font-size="8px" fill="#000000" x="48.13289282302201" y="-17.050185914324146" font-family="sans-serif">true</text></g><g class="relationship" transform="translate(117.51247486994413 279.7509618906125) rotate(336.3281521012618)"><path class="outline" fill="#A5ABB6" stroke="none" d="M 25 0.5 L 48.2619373816842 0.5 L 48.2619373816842 -0.5 L 25 -0.5 Z M 68.04709363168419 0.5 L 91.3090310133684 0.5 L 91.3090310133684 3.5 L 98.3090310133684 0 L 91.3090310133684 -3.5 L 91.3090310133684 -0.5 L 68.04709363168419 -0.5 Z"/><text text-anchor="middle" pointer-events="none" font-size="8px" fill="#000000" x="58.1545155066842" y="3" font-family="sans-serif">true</text></g><g class="relationship" transform="translate(230.44628137238098 230.24265472579415) rotate(272.17950168641767)"><path class="outline" fill="#A5ABB6" stroke="none" d="M 25 0.5 L 46.92673968858714 0.5 L 46.92673968858714 -0.5 L 25 -0.5 Z M 66.71189593858713 0.5 L 88.63863562717428 0.5 L 88.63863562717428 3.5 L 95.63863562717428 0 L 88.63863562717428 -3.5 L 88.63863562717428 -0.5 L 66.71189593858713 -0.5 Z"/><text text-anchor="middle" pointer-events="none" font-size="8px" fill="#000000" x="56.81931781358714" y="3" font-family="sans-serif">true</text></g></g><g class="layer nodes"><g class="node" transform="translate(-77.3351499278757,46.12708499319827)"><circle class="outline" cx="0" cy="0" r="25" fill="#F16667" stroke="#eb2728" stroke-width="2px"/><text text-anchor="middle" pointer-events="none" font-family="sans-serif" dy="1.5625" font-size="25" fill="#FFFFFF"/><text text-anchor="middle" pointer-events="none" x="0" y="5" font-size="10px" fill="#FFFFFF" font-family="sans-serif"> Darjeeling</text></g><g class="node" transform="translate(235.03420575471205,109.69129075239012)"><circle class="outline" cx="0" cy="0" r="25" fill="#D9C8AE" stroke="#c0a378" stroke-width="2px"/><text text-anchor="middle" pointer-events="none" font-family="sans-serif" dy="1.5625" font-size="25" fill="#2A2C34"/><text text-anchor="middle" pointer-events="none" x="0" y="5" font-size="10px" fill="#2A2C34" font-family="sans-serif"> Sandak…</text></g><g class="node" transform="translate(-5.28175933709747,-37.891721025731655)"><circle class="outline" cx="0" cy="0" r="25" fill="#8DCC93" stroke="#5db665" stroke-width="2px"/><text text-anchor="middle" pointer-events="none" font-family="sans-serif" dy="1.5625" font-size="25" fill="#2A2C34"/><text text-anchor="middle" pointer-events="none" x="0" y="5" font-size="10px" fill="#2A2C34" font-family="sans-serif"> Tumbling</text></g><g class="node" transform="translate(102.77135399910757,-78.79673104755801)"><circle class="outline" cx="0" cy="0" r="25" fill="#8DCC93" stroke="#5db665" stroke-width="2px"/><text text-anchor="middle" pointer-events="none" font-family="sans-serif" dy="1.5625" font-size="25" fill="#2A2C34"/><text text-anchor="middle" pointer-events="none" x="0" y="5" font-size="10px" fill="#2A2C34" font-family="sans-serif"> Gairibus</text></g><g class="node" transform="translate(148.5447585982571,25.510579400758175)"><circle class="outline" cx="0" cy="0" r="25" fill="#8DCC93" stroke="#5db665" stroke-width="2px"/><text text-anchor="middle" pointer-events="none" font-family="sans-serif" dy="1.5625" font-size="25" fill="#2A2C34"/><text text-anchor="middle" pointer-events="none" x="0" y="5" font-size="10px" fill="#2A2C34" font-family="sans-serif"> BhikeBh…</text></g><g class="node" transform="translate(31.251768932752004,70.74891226425781)"><circle class="outline" cx="0" cy="0" r="25" fill="#F16667" stroke="#eb2728" stroke-width="2px"/><text text-anchor="middle" pointer-events="none" font-family="sans-serif" dy="1.5625" font-size="25" fill="#FFFFFF"/><text text-anchor="middle" pointer-events="none" x="0" y="5" font-size="10px" fill="#FFFFFF" font-family="sans-serif"> Rimbik</text></g><g class="node" transform="translate(36.85222226326117,194.0761397385543)"><circle class="outline" cx="0" cy="0" r="25" fill="#8DCC93" stroke="#5db665" stroke-width="2px"/><text text-anchor="middle" pointer-events="none" font-family="sans-serif" dy="1.5625" font-size="25" fill="#2A2C34"/><text text-anchor="middle" pointer-events="none" x="0" y="5" font-size="10px" fill="#2A2C34" font-family="sans-serif"> Sirikhola</text></g><g class="node" transform="translate(145.912059770331,179.9968020343784)"><circle class="outline" cx="0" cy="0" r="25" fill="#8DCC93" stroke="#5db665" stroke-width="2px"/><text text-anchor="middle" pointer-events="none" font-family="sans-serif" dy="1.5625" font-size="25" fill="#2A2C34"/><text text-anchor="middle" pointer-events="none" x="0" y="5" font-size="10px" fill="#2A2C34" font-family="sans-serif"> Gurdum</text></g><g class="node" transform="translate(117.51247486994413,279.7509618906125)"><circle class="outline" cx="0" cy="0" r="25" fill="#8DCC93" stroke="#5db665" stroke-width="2px"/><text text-anchor="middle" pointer-events="none" font-family="sans-serif" dy="1.5625" font-size="25" fill="#2A2C34"/><text text-anchor="middle" pointer-events="none" x="0" y="5" font-size="10px" fill="#2A2C34" font-family="sans-serif"> Rammam</text></g><g class="node" transform="translate(230.44628137238098,230.24265472579415)"><circle class="outline" cx="0" cy="0" r="25" fill="#D9C8AE" stroke="#c0a378" stroke-width="2px"/><text text-anchor="middle" pointer-events="none" font-family="sans-serif" dy="1.5625" font-size="25" fill="#2A2C34"/><text text-anchor="middle" pointer-events="none" x="0" y="5" font-size="10px" fill="#2A2C34" font-family="sans-serif"> Sabargr…</text></g></g></svg>