<svg xmlns="http://www.w3.org/2000/svg" width="420.146240234375" height="92.31391906738281" viewBox="-141.3450927734375 39.97618103027344 420.146240234375 92.31391906738281"><title>Neo4j Graph Visualization</title><desc>Created using Neo4j (http://www.neo4j.com/)</desc><g class="layer relationships"><g class="relationship" transform="translate(-112.34508619964447 68.97618448433042) rotate(369.9295154390513)"><path class="outline" fill="#A5ABB6" stroke="none" d="M 21.40063509461097,12.933012701892217 L 21.90063509461097,12.06698729810778 A 85.53118793214249 85.53118793214249 0 0 0 51.61314967878241,22.52409786144044 L 51.46053775209836,23.512384054723427 A 86.53118793214249 86.53118793214249 0 0 1 21.40063509461097,12.933012701892217 Z M 73.53279004211606,24.07053158711193 L 73.43032339172883,23.075795146863356 A 85.53118793214249 85.53118793214249 0 0 0 103.63338918152306,14.133787478239816 L 102.26661896367845,11.46321840562383 L 110.09251205393446,11.389751815371724 L 105.45574947198254,17.694546241727796 L 104.08897925413794,15.023977169111811 A 86.53118793214249 86.53118793214249 0 0 1 73.53279004211606,24.07053158711193"/><text text-anchor="middle" pointer-events="none" font-size="8px" fill="#000000" x="62.4914283442981" y="26.998500647006978" font-family="sans-serif">road</text></g><g class="relationship" transform="translate(18.01968931989896 91.79768818806666) rotate(365.81750111811624)"><path class="outline" fill="#A5ABB6" stroke="none" d="M 25 0.5 L 43.52294516411497 0.5 L 43.52294516411497 -0.5 L 25 -0.5 Z M 62.85888266411497 0.5 L 81.38182782822994 0.5 L 81.38182782822994 3.5 L 88.38182782822994 0 L 81.38182782822994 -3.5 L 81.38182782822994 -0.5 L 62.85888266411497 -0.5 Z"/><text text-anchor="middle" pointer-events="none" font-size="8px" fill="#000000" x="53.19091391411497" y="3" font-family="sans-serif">trek</text></g><g class="relationship" transform="translate(130.81757744119315 103.2900907674396) rotate(354.05932894234377)"><path class="outline" fill="#A5ABB6" stroke="none" d="M 25 0.5 L 46.64503267899579 0.5 L 46.64503267899579 -0.5 L 25 -0.5 Z M 65.98097017899579 0.5 L 87.62600285799158 0.5 L 87.62600285799158 3.5 L 94.62600285799158 0 L 87.62600285799158 -3.5 L 87.62600285799158 -0.5 L 65.98097017899579 -0.5 Z"/><text text-anchor="middle" pointer-events="none" font-size="8px" fill="#000000" x="56.31300142899579" y="3" font-family="sans-serif">trek</text></g><g class="relationship" transform="translate(-112.34508619964447 68.97618448433042) rotate(369.9295154390513)"><path class="outline" fill="#A5ABB6" stroke="none" d="M 25 0.5 L 53.00565841286715 0.5 L 53.00565841286715 -0.5 L 25 -0.5 Z M 72.34159591286715 0.5 L 100.3472543257343 0.5 L 100.3472543257343 3.5 L 107.3472543257343 0 L 100.3472543257343 -3.5 L 100.3472543257343 -0.5 L 72.34159591286715 -0.5 Z"/><text text-anchor="middle" pointer-events="none" font-size="8px" fill="#000000" x="62.67362716286715" y="3" font-family="sans-serif">trek</text></g><g class="relationship" transform="translate(-112.34508619964447 68.97618448433042) rotate(369.9295154390513)"><path class="outline" fill="#A5ABB6" stroke="none" d="M 21.40063509461097,-12.933012701892217 L 21.90063509461097,-12.06698729810778 A 85.53118793214249 85.53118793214249 0 0 1 32.61954118341088,-17.29546087015528 L 32.24486279238121,-18.222615713369407 A 86.53118793214249 86.53118793214249 0 0 0 21.40063509461097,-12.933012701892217 Z M 92.99126277919217,-19.758727787870242 L 92.6639237654169,-18.813820824163955 A 85.53118793214249 85.53118793214249 0 0 1 103.63338918152306,-14.133787478239816 L 102.26661896367845,-11.46321840562383 L 110.09251205393446,-11.389751815371724 L 105.45574947198254,-17.694546241727796 L 104.08897925413794,-15.023977169111811 A 86.53118793214249 86.53118793214249 0 0 0 92.99126277919217,-19.758727787870242"/><text text-anchor="middle" pointer-events="none" font-size="8px" fill="#000000" x="62.491428344298065" y="-20.998500647006978" font-family="sans-serif">PublicTransport</text></g></g><g class="layer nodes"><g class="node" transform="translate(-112.34508619964447,68.97618448433042)"><circle class="outline" cx="0" cy="0" r="25" fill="#F16667" stroke="#eb2728" stroke-width="2px"/><text text-anchor="middle" pointer-events="none" font-family="sans-serif" dy="1.5625" font-size="25" fill="#FFFFFF"/><text text-anchor="middle" pointer-events="none" x="0" y="5" font-size="10px" fill="#FFFFFF" font-family="sans-serif"> Darjeeling</text></g><g class="node" transform="translate(249.80114079752303,90.9089676031041)"><circle class="outline" cx="0" cy="0" r="25" fill="#D9C8AE" stroke="#c0a378" stroke-width="2px"/><text text-anchor="middle" pointer-events="none" font-family="sans-serif" dy="1.5625" font-size="25" fill="#2A2C34"/><text text-anchor="middle" pointer-events="none" x="0" y="5" font-size="10px" fill="#2A2C34" font-family="sans-serif"> Sandak…</text></g><g class="node" transform="translate(18.01968931989896,91.79768818806666)"><circle class="outline" cx="0" cy="0" r="25" fill="#F16667" stroke="#eb2728" stroke-width="2px"/><text text-anchor="middle" pointer-events="none" font-family="sans-serif" dy="1.5625" font-size="25" fill="#FFFFFF"/><text text-anchor="middle" pointer-events="none" x="0" y="5" font-size="10px" fill="#FFFFFF" font-family="sans-serif"> Rimbik</text></g><g class="node" transform="translate(130.81757744119315,103.2900907674396)"><circle class="outline" cx="0" cy="0" r="25" fill="#8DCC93" stroke="#5db665" stroke-width="2px"/><text text-anchor="middle" pointer-events="none" font-family="sans-serif" dy="1.5625" font-size="25" fill="#2A2C34"/><text text-anchor="middle" pointer-events="none" x="0" y="5" font-size="10px" fill="#2A2C34" font-family="sans-serif"> BhikeBh…</text></g></g></svg>