<svg xmlns="http://www.w3.org/2000/svg" width="365.7110595703125" height="293.11444091796875" viewBox="-118.74633026123047 -54.962181091308594 365.7110595703125 293.11444091796875"><title>Neo4j Graph Visualization</title><desc>Created using Neo4j (http://www.neo4j.com/)</desc><g class="layer relationships"><g class="relationship" transform="translate(104.6380547123592 145.71079267209305) rotate(358.1367234009323)"><path class="outline" fill="#A5ABB6" stroke="none" d="M 24.018736134675446,6.953439040707552 L 24.277555179777966,5.987513214418485 A 118.4467975688794 118.4467975688794 0 0 0 27.61432185384873,6.829838393940932 L 27.383673825122823,7.80287564237743 A 119.4467975688794 119.4467975688794 0 0 1 24.018736134675446,6.953439040707552 Z M 78.9670933324459,8.580710667972895 L 78.76588868234568,7.601161440635124 A 118.4467975688794 118.4467975688794 0 0 0 82.12653561487247,6.859827683043745 L 81.43780378038655,3.939956374207402 L 89.05435730790492,5.739431954049324 L 83.04484472752036,10.75298942815887 L 82.35611289303444,7.833118119322526 A 119.4467975688794 119.4467975688794 0 0 1 78.9670933324459,8.580710667972895"/><text text-anchor="middle" pointer-events="none" font-size="8px" fill="#000000" x="53.14042741473228" y="13.509969137652945" font-family="sans-serif">PRODUCED</text></g><g class="relationship" transform="translate(104.6380547123592 145.71079267209305) rotate(358.1367234009323)"><path class="outline" fill="#A5ABB6" stroke="none" d="M 24.018736134675446,-6.953439040707552 L 24.277555179777966,-5.987513214418485 A 118.4467975688794 118.4467975688794 0 0 1 29.98930610032464,-7.367080482614497 L 29.77870913498941,-8.344653455947736 A 119.4467975688794 119.4467975688794 0 0 0 24.018736134675446,-6.953439040707552 Z M 76.55681154494675,-9.050028299897193 L 76.37578560065158,-8.066549979092898 A 118.4467975688794 118.4467975688794 0 0 1 82.12653561487247,-6.859827683043745 L 81.43780378038655,-3.939956374207402 L 89.05435730790492,-5.739431954049324 L 83.04484472752036,-10.75298942815887 L 82.35611289303444,-7.833118119322526 A 119.4467975688794 119.4467975688794 0 0 0 76.55681154494675,-9.050028299897193"/><text text-anchor="middle" pointer-events="none" font-size="8px" fill="#000000" x="53.140427414732244" y="-7.509969137652945" font-family="sans-serif">DIRECTED</text></g><g class="relationship" transform="translate(103.87282581564368 -25.962181397395728) rotate(494.1110577487837)"><path class="outline" fill="#A5ABB6" stroke="none" d="M 24.018736134675446,-6.953439040707552 L 24.277555179777966,-5.987513214418485 A 122.51835008726646 122.51835008726646 0 0 1 28.6187176103398,-7.066185522103154 L 28.395331318187917,-8.040915517783304 A 123.51835008726646 123.51835008726646 0 0 0 24.018736134675446,-6.953439040707552 Z M 79.99839976042401,-8.80602266548901 L 79.80400951649216,-7.825098390601241 A 122.51835008726646 122.51835008726646 0 0 1 84.17524313816776,-6.875602829463574 L 83.4850378204862,-3.9560794746256462 L 91.10249851906985,-5.751710980679606 L 85.0955168950765,-10.768300635914144 L 84.40531157739494,-7.848777281076217 A 123.51835008726646 123.51835008726646 0 0 0 79.99839976042401,-8.80602266548901"/><text text-anchor="middle" pointer-events="none" font-size="8px" fill="#000000" x="54.163872461171174" y="-7.648705222569035" transform="rotate(180 54.163872461171174 -10.648705222569035)" font-family="sans-serif">PRODUCED</text></g><g class="relationship" transform="translate(103.87282581564368 -25.962181397395728) rotate(494.1110577487837)"><path class="outline" fill="#A5ABB6" stroke="none" d="M 24.018736134675446,6.953439040707552 L 24.277555179777966,5.987513214418485 A 122.51835008726646 122.51835008726646 0 0 0 30.99779989801385,7.586586503945668 L 30.793831776984735,8.565564034639735 A 123.51835008726646 123.51835008726646 0 0 1 24.018736134675446,6.953439040707552 Z M 77.58539933740973,9.259332135521376 L 77.41054465577537,8.274737883907761 A 122.51835008726646 122.51835008726646 0 0 0 84.17524313816776,6.875602829463574 L 83.4850378204862,3.9560794746256462 L 91.10249851906985,5.751710980679606 L 85.0955168950765,10.768300635914144 L 84.40531157739494,7.848777281076217 A 123.51835008726646 123.51835008726646 0 0 1 77.58539933740973,9.259332135521376"/><text text-anchor="middle" pointer-events="none" font-size="8px" fill="#000000" x="54.163872461171174" y="13.648705222569035" transform="rotate(180 54.163872461171174 10.648705222569035)" font-family="sans-serif">DIRECTED</text></g><g class="relationship" transform="translate(-89.746327771037 123.81929333135855) rotate(412.08951610460684)"><path class="outline" fill="#A5ABB6" stroke="none" d="M 24.018736134675446,6.953439040707552 L 24.277555179777966,5.987513214418485 A 108.01562498575754 108.01562498575754 0 0 0 25.055246786484133,6.192794730219447 L 24.80362754795412,7.1606210363310225 A 109.01562498575754 109.01562498575754 0 0 1 24.018736134675446,6.953439040707552 Z M 76.32493160223922,7.972872557265191 L 76.10394607369098,6.997595470395908 A 108.01562498575754 108.01562498575754 0 0 0 76.88772225421991,6.816931044716266 L 76.20299725736709,3.8961175144331524 L 83.81707465768932,5.706041640440196 L 77.80068891669035,10.71134908509375 L 77.11596391983753,7.790535554810636 A 109.01562498575754 109.01562498575754 0 0 1 76.32493160223922,7.972872557265191"/><text text-anchor="middle" pointer-events="none" font-size="8px" fill="#000000" x="50.523481577745" y="13.154573316277862" font-family="sans-serif">PRODUCED</text></g><g class="relationship" transform="translate(-89.746327771037 123.81929333135855) rotate(412.08951610460684)"><path class="outline" fill="#A5ABB6" stroke="none" d="M 24.018736134675446,-6.953439040707552 L 24.277555179777966,-5.987513214418485 A 108.01562498575754 108.01562498575754 0 0 1 27.417680864038317,-6.77865439424356 L 27.18793285087839,-7.751904542175254 A 109.01562498575754 109.01562498575754 0 0 0 24.018736134675446,-6.953439040707552 Z M 73.92317227234042,-8.488702066968287 L 73.72421807489918,-7.50869327755845 A 108.01562498575754 108.01562498575754 0 0 1 76.88772225421991,-6.816931044716266 L 76.20299725736709,-3.8961175144331524 L 83.81707465768932,-5.706041640440196 L 77.80068891669035,-10.71134908509375 L 77.11596391983753,-7.790535554810636 A 109.01562498575754 109.01562498575754 0 0 0 73.92317227234042,-8.488702066968287"/><text text-anchor="middle" pointer-events="none" font-size="8px" fill="#000000" x="50.52348157774498" y="-7.154573316277862" font-family="sans-serif">DIRECTED</text></g></g><g class="layer nodes"><g class="node" transform="translate(104.6380547123592,145.71079267209305)"><circle class="outline" cx="0" cy="0" r="25" fill="#57C7E3" stroke="#23b3d7" stroke-width="2px"/><text text-anchor="middle" pointer-events="none" font-family="sans-serif" dy="1.5625" font-size="25" fill="#2A2C34"/><text text-anchor="middle" pointer-events="none" font-family="sans-serif" dy="1.5625" font-size="25" fill="#2A2C34"/><text text-anchor="middle" pointer-events="none" x="0" y="0" font-size="10px" fill="#2A2C34" font-family="sans-serif"> Cameron</text><text text-anchor="middle" pointer-events="none" x="0" y="10" font-size="10px" fill="#2A2C34" font-family="sans-serif"> Crowe</text></g><g class="node" transform="translate(217.9647210306861,142.02407443220994)"><circle class="outline" cx="0" cy="0" r="25" fill="#F79767" stroke="#f36924" stroke-width="2px"/><text text-anchor="middle" pointer-events="none" font-family="sans-serif" dy="1.5625" font-size="25" fill="#FFFFFF"/><text text-anchor="middle" pointer-events="none" font-family="sans-serif" dy="1.5625" font-size="25" fill="#FFFFFF"/><text text-anchor="middle" pointer-events="none" x="0" y="0" font-size="10px" fill="#FFFFFF" font-family="sans-serif"> Jerry</text><text text-anchor="middle" pointer-events="none" x="0" y="10" font-size="10px" fill="#FFFFFF" font-family="sans-serif"> Maguire</text></g><g class="node" transform="translate(103.87282581564368,-25.962181397395728)"><circle class="outline" cx="0" cy="0" r="25" fill="#57C7E3" stroke="#23b3d7" stroke-width="2px"/><text text-anchor="middle" pointer-events="none" font-family="sans-serif" dy="1.5625" font-size="25" fill="#2A2C34"/><text text-anchor="middle" pointer-events="none" font-family="sans-serif" dy="1.5625" font-size="25" fill="#2A2C34"/><text text-anchor="middle" pointer-events="none" x="0" y="0" font-size="10px" fill="#2A2C34" font-family="sans-serif"> Rob</text><text text-anchor="middle" pointer-events="none" x="0" y="10" font-size="10px" fill="#2A2C34" font-family="sans-serif"> Reiner</text></g><g class="node" transform="translate(23.526320754796757,56.916967871651565)"><circle class="outline" cx="0" cy="0" r="25" fill="#F79767" stroke="#f36924" stroke-width="2px"/><text text-anchor="middle" pointer-events="none" font-family="sans-serif" dy="1.5625" font-size="25" fill="#FFFFFF"/><text text-anchor="middle" pointer-events="none" font-family="sans-serif" dy="1.5625" font-size="25" fill="#FFFFFF"/><text text-anchor="middle" pointer-events="none" font-family="sans-serif" dy="1.5625" font-size="25" fill="#FFFFFF"/><text text-anchor="middle" pointer-events="none" x="0" y="-5" font-size="10px" fill="#FFFFFF" font-family="sans-serif"> When</text><text text-anchor="middle" pointer-events="none" x="0" y="5" font-size="10px" fill="#FFFFFF" font-family="sans-serif"> Harry Met</text><text text-anchor="middle" pointer-events="none" x="0" y="15" font-size="10px" fill="#FFFFFF" font-family="sans-serif"> Sally</text></g><g class="node" transform="translate(-89.746327771037,123.81929333135855)"><circle class="outline" cx="0" cy="0" r="25" fill="#57C7E3" stroke="#23b3d7" stroke-width="2px"/><text text-anchor="middle" pointer-events="none" font-family="sans-serif" dy="1.5625" font-size="25" fill="#2A2C34"/><text text-anchor="middle" pointer-events="none" font-family="sans-serif" dy="1.5625" font-size="25" fill="#2A2C34"/><text text-anchor="middle" pointer-events="none" x="0" y="0" font-size="10px" fill="#2A2C34" font-family="sans-serif"> Nancy</text><text text-anchor="middle" pointer-events="none" x="0" y="10" font-size="10px" fill="#2A2C34" font-family="sans-serif"> Meyers</text></g><g class="node" transform="translate(-23.291353052459478,209.1522501745712)"><circle class="outline" cx="0" cy="0" r="25" fill="#F79767" stroke="#f36924" stroke-width="2px"/><text text-anchor="middle" pointer-events="none" font-family="sans-serif" dy="1.5625" font-size="25" fill="#FFFFFF"/><text text-anchor="middle" pointer-events="none" x="0" y="5" font-size="10px" fill="#FFFFFF" font-family="sans-serif"> Somethi…</text></g></g></svg>