<svg xmlns="http://www.w3.org/2000/svg" width="254.32708740234375" height="216.70059204101562" viewBox="-102.0409164428711 -24.77771759033203 254.32708740234375 216.70059204101562"><title>Neo4j Graph Visualization</title><desc>Created using Neo4j (http://www.neo4j.com/)</desc><g class="layer relationships"><g class="relationship" transform="translate(33.8972588987372 4.222282641265884) rotate(448.27907902618654)"><path class="outline" fill="#A5ABB6" stroke="none" d="M 25 0.5 L 25.22896493691789 0.5 L 25.22896493691789 -0.5 L 25 -0.5 Z M 55.22896493691789 0.5 L 55.45792987383578 0.5 L 55.45792987383578 3.5 L 62.45792987383578 0 L 55.45792987383578 -3.5 L 55.45792987383578 -0.5 L 55.22896493691789 -0.5 Z"/><text text-anchor="middle" pointer-events="none" font-size="8px" fill="#000000" x="40.22896493691789" y="3" font-family="sans-serif">ACT…</text></g><g class="relationship" transform="translate(28.79244498850202 162.92286535078767) rotate(276.19012385503805)"><path class="outline" fill="#A5ABB6" stroke="none" d="M 25 0.5 L 32.35007138385767 0.5 L 32.35007138385767 -0.5 L 25 -0.5 Z M 32.35007138385767 0.5 L 39.700142767715334 0.5 L 39.700142767715334 3.5 L 46.700142767715334 0 L 39.700142767715334 -3.5 L 39.700142767715334 -0.5 L 32.35007138385767 -0.5 Z"/><text text-anchor="middle" pointer-events="none" font-size="8px" fill="#000000" x="32.35007138385767" y="3" font-family="sans-serif"/></g><g class="relationship" transform="translate(33.8972588987372 4.222282641265884) rotate(499.8376247463035)"><path class="outline" fill="#A5ABB6" stroke="none" d="M 25 0.5 L 43.68434638418884 0.5 L 43.68434638418884 -0.5 L 25 -0.5 Z M 89.24684638418884 0.5 L 107.93119276837768 0.5 L 107.93119276837768 3.5 L 114.93119276837768 0 L 107.93119276837768 -3.5 L 107.93119276837768 -0.5 L 89.24684638418884 -0.5 Z"/><text text-anchor="middle" pointer-events="none" font-size="8px" fill="#000000" x="66.46559638418884" y="3" transform="rotate(180 66.46559638418884 0)" font-family="sans-serif">ACTED_IN</text></g><g class="relationship" transform="translate(28.79244498850202 162.92286535078767) rotate(213.90850447604333)"><path class="outline" fill="#A5ABB6" stroke="none" d="M 25 0.5 L 35.069361353435156 0.5 L 35.069361353435156 -0.5 L 25 -0.5 Z M 80.63186135343516 0.5 L 90.70122270687031 0.5 L 90.70122270687031 3.5 L 97.70122270687031 0 L 90.70122270687031 -3.5 L 90.70122270687031 -0.5 L 80.63186135343516 -0.5 Z"/><text text-anchor="middle" pointer-events="none" font-size="8px" fill="#000000" x="57.850611353435156" y="3" transform="rotate(180 57.850611353435156 0)" font-family="sans-serif">ACTED_IN</text></g><g class="relationship" transform="translate(33.8972588987372 4.222282641265884) rotate(402.73443698366344)"><path class="outline" fill="#A5ABB6" stroke="none" d="M 25 0.5 L 34.56834864313402 0.5 L 34.56834864313402 -0.5 L 25 -0.5 Z M 80.13084864313402 0.5 L 89.69919728626805 0.5 L 89.69919728626805 3.5 L 96.69919728626805 0 L 89.69919728626805 -3.5 L 89.69919728626805 -0.5 L 80.13084864313402 -0.5 Z"/><text text-anchor="middle" pointer-events="none" font-size="8px" fill="#000000" x="57.34959864313402" y="3" font-family="sans-serif">ACTED_IN</text></g><g class="relationship" transform="translate(28.79244498850202 162.92286535078767) rotate(321.14830929992394)"><path class="outline" fill="#A5ABB6" stroke="none" d="M 25 0.5 L 34.38712780366125 0.5 L 34.38712780366125 -0.5 L 25 -0.5 Z M 79.94962780366126 0.5 L 89.3367556073225 0.5 L 89.3367556073225 3.5 L 96.3367556073225 0 L 89.3367556073225 -3.5 L 89.3367556073225 -0.5 L 79.94962780366126 -0.5 Z"/><text text-anchor="middle" pointer-events="none" font-size="8px" fill="#000000" x="57.16837780366125" y="3" font-family="sans-serif">ACTED_IN</text></g></g><g class="layer nodes"><g class="node" transform="translate(28.79244498850202,162.92286535078767)"><circle class="outline" cx="0" cy="0" r="25" fill="#57C7E3" stroke="#23b3d7" stroke-width="2px"/><text text-anchor="middle" pointer-events="none" font-family="sans-serif" dy="1.5625" font-size="25" fill="#2A2C34"/><text text-anchor="middle" pointer-events="none" font-family="sans-serif" dy="1.5625" font-size="25" fill="#2A2C34"/><text text-anchor="middle" pointer-events="none" x="0" y="0" font-size="10px" fill="#2A2C34" font-family="sans-serif"> Keanu</text><text text-anchor="middle" pointer-events="none" x="0" y="10" font-size="10px" fill="#2A2C34" font-family="sans-serif"> Reeves</text></g><g class="node" transform="translate(33.8972588987372,4.222282641265884)"><circle class="outline" cx="0" cy="0" r="25" fill="#57C7E3" stroke="#23b3d7" stroke-width="2px"/><text text-anchor="middle" pointer-events="none" font-family="sans-serif" dy="1.5625" font-size="25" fill="#2A2C34"/><text text-anchor="middle" pointer-events="none" font-family="sans-serif" dy="1.5625" font-size="25" fill="#2A2C34"/><text text-anchor="middle" pointer-events="none" x="0" y="0" font-size="10px" fill="#2A2C34" font-family="sans-serif"> Hugo</text><text text-anchor="middle" pointer-events="none" x="0" y="10" font-size="10px" fill="#2A2C34" font-family="sans-serif"> Weaving</text></g><g class="node" transform="translate(36.52372734193773,91.64076559157593)"><circle class="outline" cx="0" cy="0" r="25" fill="#F79767" stroke="#f36924" stroke-width="2px"/><text text-anchor="middle" pointer-events="none" font-family="sans-serif" dy="1.5625" font-size="25" fill="#FFFFFF"/><text text-anchor="middle" pointer-events="none" font-family="sans-serif" dy="1.5625" font-size="25" fill="#FFFFFF"/><text text-anchor="middle" pointer-events="none" font-family="sans-serif" dy="1.5625" font-size="25" fill="#FFFFFF"/><text text-anchor="middle" pointer-events="none" x="0" y="-5" font-size="10px" fill="#FFFFFF" font-family="sans-serif"> The</text><text text-anchor="middle" pointer-events="none" x="0" y="5" font-size="10px" fill="#FFFFFF" font-family="sans-serif"> Matrix</text><text text-anchor="middle" pointer-events="none" x="0" y="15" font-size="10px" fill="#FFFFFF" font-family="sans-serif"> Revol…</text></g><g class="node" transform="translate(-73.04091810023385,94.4717425272819)"><circle class="outline" cx="0" cy="0" r="25" fill="#F79767" stroke="#f36924" stroke-width="2px"/><text text-anchor="middle" pointer-events="none" font-family="sans-serif" dy="1.5625" font-size="25" fill="#FFFFFF"/><text text-anchor="middle" pointer-events="none" font-family="sans-serif" dy="1.5625" font-size="25" fill="#FFFFFF"/><text text-anchor="middle" pointer-events="none" font-family="sans-serif" dy="1.5625" font-size="25" fill="#FFFFFF"/><text text-anchor="middle" pointer-events="none" x="0" y="-5" font-size="10px" fill="#FFFFFF" font-family="sans-serif"> The</text><text text-anchor="middle" pointer-events="none" x="0" y="5" font-size="10px" fill="#FFFFFF" font-family="sans-serif"> Matrix</text><text text-anchor="middle" pointer-events="none" x="0" y="15" font-size="10px" fill="#FFFFFF" font-family="sans-serif"> Reloa…</text></g><g class="node" transform="translate(123.28615442870883,86.80751119973033)"><circle class="outline" cx="0" cy="0" r="25" fill="#F79767" stroke="#f36924" stroke-width="2px"/><text text-anchor="middle" pointer-events="none" font-family="sans-serif" dy="1.5625" font-size="25" fill="#FFFFFF"/><text text-anchor="middle" pointer-events="none" font-family="sans-serif" dy="1.5625" font-size="25" fill="#FFFFFF"/><text text-anchor="middle" pointer-events="none" x="0" y="0" font-size="10px" fill="#FFFFFF" font-family="sans-serif"> The</text><text text-anchor="middle" pointer-events="none" x="0" y="10" font-size="10px" fill="#FFFFFF" font-family="sans-serif"> Matrix</text></g></g></svg>