<svg xmlns="http://www.w3.org/2000/svg" width="526.8842163085938" height="326.029052734375" viewBox="-202.40728759765625 -40.902706146240234 526.8842163085938 326.029052734375"><title>Neo4j Graph Visualization</title><desc>Created using Neo4j (http://www.neo4j.com/)</desc><g class="layer relationships"><g class="relationship" transform="translate(176.17770981967476 158.69089420631195) rotate(225.0497375934072)"><path class="outline" fill="#A5ABB6" stroke="none" d="M 25 0.5 L 50.78150060568532 0.5 L 50.78150060568532 -0.5 L 25 -0.5 Z M 96.34400060568532 0.5 L 122.12550121137065 0.5 L 122.12550121137065 3.5 L 129.12550121137065 0 L 122.12550121137065 -3.5 L 122.12550121137065 -0.5 L 96.34400060568532 -0.5 Z"/><text text-anchor="middle" pointer-events="none" font-size="8px" fill="#000000" x="73.56275060568532" y="3" transform="rotate(180 73.56275060568532 0)" font-family="sans-serif">ACTED_IN</text></g><g class="relationship" transform="translate(176.17770981967476 158.69089420631195) rotate(416.5565042714843)"><path class="outline" fill="#A5ABB6" stroke="none" d="M 25 0.5 L 32.103211929139654 0.5 L 32.103211929139654 -0.5 L 25 -0.5 Z M 77.66571192913966 0.5 L 84.76892385827931 0.5 L 84.76892385827931 3.5 L 91.76892385827931 0 L 84.76892385827931 -3.5 L 84.76892385827931 -0.5 L 77.66571192913966 -0.5 Z"/><text text-anchor="middle" pointer-events="none" font-size="8px" fill="#000000" x="54.884461929139654" y="3" font-family="sans-serif">ACTED_IN</text></g><g class="relationship" transform="translate(176.17770981967476 158.69089420631195) rotate(354.1114421510481)"><path class="outline" fill="#A5ABB6" stroke="none" d="M 25 0.5 L 33.68476461815087 0.5 L 33.68476461815087 -0.5 L 25 -0.5 Z M 79.24726461815087 0.5 L 87.93202923630174 0.5 L 87.93202923630174 3.5 L 94.93202923630174 0 L 87.93202923630174 -3.5 L 87.93202923630174 -0.5 L 79.24726461815087 -0.5 Z"/><text text-anchor="middle" pointer-events="none" font-size="8px" fill="#000000" x="56.46601461815087" y="3" font-family="sans-serif">ACTED_IN</text></g><g class="relationship" transform="translate(176.17770981967476 158.69089420631195) rotate(533.3944710513758)"><path class="outline" fill="#A5ABB6" stroke="none" d="M 25 0.5 L 31.72751935416874 0.5 L 31.72751935416874 -0.5 L 25 -0.5 Z M 77.29001935416875 0.5 L 84.01753870833748 0.5 L 84.01753870833748 3.5 L 91.01753870833748 0 L 84.01753870833748 -3.5 L 84.01753870833748 -0.5 L 77.29001935416875 -0.5 Z"/><text text-anchor="middle" pointer-events="none" font-size="8px" fill="#000000" x="54.50876935416874" y="3" transform="rotate(180 54.50876935416874 0)" font-family="sans-serif">ACTED_IN</text></g><g class="relationship" transform="translate(176.17770981967476 158.69089420631195) rotate(204.44844331093265)"><path class="outline" fill="#A5ABB6" stroke="none" d="M 25 0.5 L 33.15492817106798 0.5 L 33.15492817106798 -0.5 L 25 -0.5 Z M 78.71742817106798 0.5 L 86.87235634213596 0.5 L 86.87235634213596 3.5 L 93.87235634213596 0 L 86.87235634213596 -3.5 L 86.87235634213596 -0.5 L 78.71742817106798 -0.5 Z"/><text text-anchor="middle" pointer-events="none" font-size="8px" fill="#000000" x="55.93617817106798" y="3" transform="rotate(180 55.93617817106798 0)" font-family="sans-serif">ACTED_IN</text></g><g class="relationship" transform="translate(178.30688852090935 91.1959890944982) rotate(200.53396308009883)"><path class="outline" fill="#A5ABB6" stroke="none" d="M 25 0.5 L 32.99367499403381 0.5 L 32.99367499403381 -0.5 L 25 -0.5 Z M 78.55617499403381 0.5 L 86.54984998806762 0.5 L 86.54984998806762 3.5 L 93.54984998806762 0 L 86.54984998806762 -3.5 L 86.54984998806762 -0.5 L 78.55617499403381 -0.5 Z"/><text text-anchor="middle" pointer-events="none" font-size="8px" fill="#000000" x="55.77492499403381" y="3" transform="rotate(180 55.77492499403381 0)" font-family="sans-serif">ACTED_IN</text></g><g class="relationship" transform="translate(178.30688852090935 91.1959890944982) rotate(505.44365053150125)"><path class="outline" fill="#A5ABB6" stroke="none" d="M 25 0.5 L 44.97968375001517 0.5 L 44.97968375001517 -0.5 L 25 -0.5 Z M 90.54218375001517 0.5 L 110.52186750003034 0.5 L 110.52186750003034 3.5 L 117.52186750003034 0 L 110.52186750003034 -3.5 L 110.52186750003034 -0.5 L 90.54218375001517 -0.5 Z"/><text text-anchor="middle" pointer-events="none" font-size="8px" fill="#000000" x="67.76093375001517" y="3" transform="rotate(180 67.76093375001517 0)" font-family="sans-serif">ACTED_IN</text></g><g class="relationship" transform="translate(178.30688852090935 91.1959890944982) rotate(530.5850531516401)"><path class="outline" fill="#A5ABB6" stroke="none" d="M 25 0.5 L 29.643449076551143 0.5 L 29.643449076551143 -0.5 L 25 -0.5 Z M 75.20594907655115 0.5 L 79.84939815310229 0.5 L 79.84939815310229 3.5 L 86.84939815310229 0 L 79.84939815310229 -3.5 L 79.84939815310229 -0.5 L 75.20594907655115 -0.5 Z"/><text text-anchor="middle" pointer-events="none" font-size="8px" fill="#000000" x="52.42469907655114" y="3" transform="rotate(180 52.42469907655114 0)" font-family="sans-serif">ACTED_IN</text></g><g class="relationship" transform="translate(155.91611383643695 -3.2050882172209043) rotate(509.2066934033636)"><path class="outline" fill="#A5ABB6" stroke="none" d="M 25 0.5 L 25.30484427849308 0.5 L 25.30484427849308 -0.5 L 25 -0.5 Z M 70.86734427849308 0.5 L 71.17218855698616 0.5 L 71.17218855698616 3.5 L 78.17218855698616 0 L 71.17218855698616 -3.5 L 71.17218855698616 -0.5 L 70.86734427849308 -0.5 Z"/><text text-anchor="middle" pointer-events="none" font-size="8px" fill="#000000" x="48.08609427849308" y="3" transform="rotate(180 48.08609427849308 0)" font-family="sans-serif">ACTED_IN</text></g><g class="relationship" transform="translate(155.91611383643695 -3.2050882172209043) rotate(478.4588826613857)"><path class="outline" fill="#A5ABB6" stroke="none" d="M 25 0.5 L 73.38318325211443 0.5 L 73.38318325211443 -0.5 L 25 -0.5 Z M 118.94568325211443 0.5 L 167.32886650422887 0.5 L 167.32886650422887 3.5 L 174.32886650422887 0 L 167.32886650422887 -3.5 L 167.32886650422887 -0.5 L 118.94568325211443 -0.5 Z"/><text text-anchor="middle" pointer-events="none" font-size="8px" fill="#000000" x="96.16443325211443" y="3" transform="rotate(180 96.16443325211443 0)" font-family="sans-serif">ACTED_IN</text></g><g class="relationship" transform="translate(155.91611383643695 -3.2050882172209043) rotate(487.9693037534051)"><path class="outline" fill="#A5ABB6" stroke="none" d="M 25 0.5 L 45.196605354524095 0.5 L 45.196605354524095 -0.5 L 25 -0.5 Z M 90.7591053545241 0.5 L 110.95571070904819 0.5 L 110.95571070904819 3.5 L 117.95571070904819 0 L 110.95571070904819 -3.5 L 110.95571070904819 -0.5 L 90.7591053545241 -0.5 Z"/><text text-anchor="middle" pointer-events="none" font-size="8px" fill="#000000" x="67.9778553545241" y="3" transform="rotate(180 67.9778553545241 0)" font-family="sans-serif">ACTED_IN</text></g><g class="relationship" transform="translate(-76.18350770083697 105.48931800575343) rotate(338.72131658933574)"><path class="outline" fill="#A5ABB6" stroke="none" d="M 25 0.5 L 50.70341806714369 0.5 L 50.70341806714369 -0.5 L 25 -0.5 Z M 96.26591806714369 0.5 L 121.96933613428737 0.5 L 121.96933613428737 3.5 L 128.96933613428737 0 L 121.96933613428737 -3.5 L 121.96933613428737 -0.5 L 96.26591806714369 -0.5 Z"/><text text-anchor="middle" pointer-events="none" font-size="8px" fill="#000000" x="73.48466806714369" y="3" font-family="sans-serif">ACTED_IN</text></g><g class="relationship" transform="translate(-76.18350770083697 105.48931800575343) rotate(280.51544459677064)"><path class="outline" fill="#A5ABB6" stroke="none" d="M 25 0.5 L 33.41735542701591 0.5 L 33.41735542701591 -0.5 L 25 -0.5 Z M 78.9798554270159 0.5 L 87.39721085403183 0.5 L 87.39721085403183 3.5 L 94.39721085403183 0 L 87.39721085403183 -3.5 L 87.39721085403183 -0.5 L 78.9798554270159 -0.5 Z"/><text text-anchor="middle" pointer-events="none" font-size="8px" fill="#000000" x="56.19860542701591" y="3" font-family="sans-serif">ACTED_IN</text></g><g class="relationship" transform="translate(-76.18350770083697 105.48931800575343) rotate(229.44241779190588)"><path class="outline" fill="#A5ABB6" stroke="none" d="M 25 0.5 L 30.586226673946058 0.5 L 30.586226673946058 -0.5 L 25 -0.5 Z M 76.14872667394606 0.5 L 81.73495334789212 0.5 L 81.73495334789212 3.5 L 88.73495334789212 0 L 81.73495334789212 -3.5 L 81.73495334789212 -0.5 L 76.14872667394606 -0.5 Z"/><text text-anchor="middle" pointer-events="none" font-size="8px" fill="#000000" x="53.36747667394606" y="3" transform="rotate(180 53.36747667394606 0)" font-family="sans-serif">ACTED_IN</text></g><g class="relationship" transform="translate(-76.18350770083697 105.48931800575343) rotate(512.0099937741643)"><path class="outline" fill="#A5ABB6" stroke="none" d="M 25 0.5 L 28.770014786789787 0.5 L 28.770014786789787 -0.5 L 25 -0.5 Z M 74.33251478678979 0.5 L 78.10252957357957 0.5 L 78.10252957357957 3.5 L 85.10252957357957 0 L 78.10252957357957 -3.5 L 78.10252957357957 -0.5 L 74.33251478678979 -0.5 Z"/><text text-anchor="middle" pointer-events="none" font-size="8px" fill="#000000" x="51.55126478678979" y="3" transform="rotate(180 51.55126478678979 0)" font-family="sans-serif">ACTED_IN</text></g><g class="relationship" transform="translate(-76.18350770083697 105.48931800575343) rotate(451.5992560186845)"><path class="outline" fill="#A5ABB6" stroke="none" d="M 25 0.5 L 32.44109936381006 0.5 L 32.44109936381006 -0.5 L 25 -0.5 Z M 78.00359936381005 0.5 L 85.44469872762012 0.5 L 85.44469872762012 3.5 L 92.44469872762012 0 L 85.44469872762012 -3.5 L 85.44469872762012 -0.5 L 78.00359936381005 -0.5 Z"/><text text-anchor="middle" pointer-events="none" font-size="8px" fill="#000000" x="55.22234936381006" y="3" transform="rotate(180 55.22234936381006 0)" font-family="sans-serif">ACTED_IN</text></g><g class="relationship" transform="translate(-76.18350770083697 105.48931800575343) rotate(385.8893538267098)"><path class="outline" fill="#A5ABB6" stroke="none" d="M 25 0.5 L 49.92367933504386 0.5 L 49.92367933504386 -0.5 L 25 -0.5 Z M 95.48617933504386 0.5 L 120.40985867008771 0.5 L 120.40985867008771 3.5 L 127.40985867008771 0 L 120.40985867008771 -3.5 L 120.40985867008771 -0.5 L 95.48617933504386 -0.5 Z"/><text text-anchor="middle" pointer-events="none" font-size="8px" fill="#000000" x="72.70492933504386" y="3" font-family="sans-serif">ACTED_IN</text></g><g class="relationship" transform="translate(-76.18350770083697 105.48931800575343) rotate(361.59084868137154)"><path class="outline" fill="#A5ABB6" stroke="none" d="M 25 0.5 L 45.82037223219969 0.5 L 45.82037223219969 -0.5 L 25 -0.5 Z M 91.38287223219969 0.5 L 112.20324446439938 0.5 L 112.20324446439938 3.5 L 119.20324446439938 0 L 112.20324446439938 -3.5 L 112.20324446439938 -0.5 L 91.38287223219969 -0.5 Z"/><text text-anchor="middle" pointer-events="none" font-size="8px" fill="#000000" x="68.60162223219969" y="3" font-family="sans-serif">ACTED_IN</text></g></g><g class="layer nodes"><g class="node" transform="translate(67.28917045529127,49.613141576606004)"><circle class="outline" cx="0" cy="0" r="25" fill="#F79767" stroke="#f36924" stroke-width="2px"/><text text-anchor="middle" pointer-events="none" font-family="sans-serif" dy="1.5625" font-size="25" fill="#FFFFFF"/><text text-anchor="middle" pointer-events="none" font-family="sans-serif" dy="1.5625" font-size="25" fill="#FFFFFF"/><text text-anchor="middle" pointer-events="none" x="0" y="0" font-size="10px" fill="#FFFFFF" font-family="sans-serif"> The</text><text text-anchor="middle" pointer-events="none" x="0" y="10" font-size="10px" fill="#FFFFFF" font-family="sans-serif"> Matrix</text></g><g class="node" transform="translate(176.17770981967476,158.69089420631195)"><circle class="outline" cx="0" cy="0" r="25" fill="#57C7E3" stroke="#23b3d7" stroke-width="2px"/><text text-anchor="middle" pointer-events="none" font-family="sans-serif" dy="1.5625" font-size="25" fill="#2A2C34"/><text text-anchor="middle" pointer-events="none" font-family="sans-serif" dy="1.5625" font-size="25" fill="#2A2C34"/><text text-anchor="middle" pointer-events="none" x="0" y="0" font-size="10px" fill="#2A2C34" font-family="sans-serif"> Hugo</text><text text-anchor="middle" pointer-events="none" x="0" y="10" font-size="10px" fill="#2A2C34" font-family="sans-serif"> Weaving</text></g><g class="node" transform="translate(240.53073949441156,256.12635567031424)"><circle class="outline" cx="0" cy="0" r="25" fill="#F79767" stroke="#f36924" stroke-width="2px"/><text text-anchor="middle" pointer-events="none" font-family="sans-serif" dy="1.5625" font-size="25" fill="#FFFFFF"/><text text-anchor="middle" pointer-events="none" font-family="sans-serif" dy="1.5625" font-size="25" fill="#FFFFFF"/><text text-anchor="middle" pointer-events="none" x="0" y="0" font-size="10px" fill="#FFFFFF" font-family="sans-serif"> Cloud</text><text text-anchor="middle" pointer-events="none" x="0" y="10" font-size="10px" fill="#FFFFFF" font-family="sans-serif"> Atlas</text></g><g class="node" transform="translate(295.4768967493633,146.3866008640524)"><circle class="outline" cx="0" cy="0" r="25" fill="#F79767" stroke="#f36924" stroke-width="2px"/><text text-anchor="middle" pointer-events="none" font-family="sans-serif" dy="1.5625" font-size="25" fill="#FFFFFF"/><text text-anchor="middle" pointer-events="none" font-family="sans-serif" dy="1.5625" font-size="25" fill="#FFFFFF"/><text text-anchor="middle" pointer-events="none" x="0" y="0" font-size="10px" fill="#FFFFFF" font-family="sans-serif"> V for</text><text text-anchor="middle" pointer-events="none" x="0" y="10" font-size="10px" fill="#FFFFFF" font-family="sans-serif"> Vendetta</text></g><g class="node" transform="translate(60.93033385050643,172.03674075727108)"><circle class="outline" cx="0" cy="0" r="25" fill="#F79767" stroke="#f36924" stroke-width="2px"/><text text-anchor="middle" pointer-events="none" font-family="sans-serif" dy="1.5625" font-size="25" fill="#FFFFFF"/><text text-anchor="middle" pointer-events="none" font-family="sans-serif" dy="1.5625" font-size="25" fill="#FFFFFF"/><text text-anchor="middle" pointer-events="none" font-family="sans-serif" dy="1.5625" font-size="25" fill="#FFFFFF"/><text text-anchor="middle" pointer-events="none" x="0" y="-5" font-size="10px" fill="#FFFFFF" font-family="sans-serif"> The</text><text text-anchor="middle" pointer-events="none" x="0" y="5" font-size="10px" fill="#FFFFFF" font-family="sans-serif"> Matrix</text><text text-anchor="middle" pointer-events="none" x="0" y="15" font-size="10px" fill="#FFFFFF" font-family="sans-serif"> Revol…</text></g><g class="node" transform="translate(67.9641553465009,109.49268559448153)"><circle class="outline" cx="0" cy="0" r="25" fill="#F79767" stroke="#f36924" stroke-width="2px"/><text text-anchor="middle" pointer-events="none" font-family="sans-serif" dy="1.5625" font-size="25" fill="#FFFFFF"/><text text-anchor="middle" pointer-events="none" font-family="sans-serif" dy="1.5625" font-size="25" fill="#FFFFFF"/><text text-anchor="middle" pointer-events="none" font-family="sans-serif" dy="1.5625" font-size="25" fill="#FFFFFF"/><text text-anchor="middle" pointer-events="none" x="0" y="-5" font-size="10px" fill="#FFFFFF" font-family="sans-serif"> The</text><text text-anchor="middle" pointer-events="none" x="0" y="5" font-size="10px" fill="#FFFFFF" font-family="sans-serif"> Matrix</text><text text-anchor="middle" pointer-events="none" x="0" y="15" font-size="10px" fill="#FFFFFF" font-family="sans-serif"> Reloa…</text></g><g class="node" transform="translate(178.30688852090935,91.1959890944982)"><circle class="outline" cx="0" cy="0" r="25" fill="#57C7E3" stroke="#23b3d7" stroke-width="2px"/><text text-anchor="middle" pointer-events="none" font-family="sans-serif" dy="1.5625" font-size="25" fill="#2A2C34"/><text text-anchor="middle" pointer-events="none" font-family="sans-serif" dy="1.5625" font-size="25" fill="#2A2C34"/><text text-anchor="middle" pointer-events="none" x="0" y="0" font-size="10px" fill="#2A2C34" font-family="sans-serif"> Laurence</text><text text-anchor="middle" pointer-events="none" x="0" y="10" font-size="10px" fill="#2A2C34" font-family="sans-serif"> Fishbur…</text></g><g class="node" transform="translate(155.91611383643695,-3.2050882172209043)"><circle class="outline" cx="0" cy="0" r="25" fill="#57C7E3" stroke="#23b3d7" stroke-width="2px"/><text text-anchor="middle" pointer-events="none" font-family="sans-serif" dy="1.5625" font-size="25" fill="#2A2C34"/><text text-anchor="middle" pointer-events="none" x="0" y="5" font-size="10px" fill="#2A2C34" font-family="sans-serif"> Carrie-A…</text></g><g class="node" transform="translate(-76.18350770083697,105.48931800575343)"><circle class="outline" cx="0" cy="0" r="25" fill="#57C7E3" stroke="#23b3d7" stroke-width="2px"/><text text-anchor="middle" pointer-events="none" font-family="sans-serif" dy="1.5625" font-size="25" fill="#2A2C34"/><text text-anchor="middle" pointer-events="none" font-family="sans-serif" dy="1.5625" font-size="25" fill="#2A2C34"/><text text-anchor="middle" pointer-events="none" x="0" y="0" font-size="10px" fill="#2A2C34" font-family="sans-serif"> Keanu</text><text text-anchor="middle" pointer-events="none" x="0" y="10" font-size="10px" fill="#2A2C34" font-family="sans-serif"> Reeves</text></g><g class="node" transform="translate(-54.39344936300014,-11.902706073209458)"><circle class="outline" cx="0" cy="0" r="25" fill="#F79767" stroke="#f36924" stroke-width="2px"/><text text-anchor="middle" pointer-events="none" font-family="sans-serif" dy="1.5625" font-size="25" fill="#FFFFFF"/><text text-anchor="middle" pointer-events="none" x="0" y="5" font-size="10px" fill="#FFFFFF" font-family="sans-serif"> Somethi…</text></g><g class="node" transform="translate(-150.13533094702532,19.07885884940066)"><circle class="outline" cx="0" cy="0" r="25" fill="#F79767" stroke="#f36924" stroke-width="2px"/><text text-anchor="middle" pointer-events="none" font-family="sans-serif" dy="1.5625" font-size="25" fill="#FFFFFF"/><text text-anchor="middle" pointer-events="none" font-family="sans-serif" dy="1.5625" font-size="25" fill="#FFFFFF"/><text text-anchor="middle" pointer-events="none" x="0" y="0" font-size="10px" fill="#FFFFFF" font-family="sans-serif"> The</text><text text-anchor="middle" pointer-events="none" x="0" y="10" font-size="10px" fill="#FFFFFF" font-family="sans-serif"> Replac…</text></g><g class="node" transform="translate(-173.40728566799464,157.16236723157124)"><circle class="outline" cx="0" cy="0" r="25" fill="#F79767" stroke="#f36924" stroke-width="2px"/><text text-anchor="middle" pointer-events="none" font-family="sans-serif" dy="1.5625" font-size="25" fill="#FFFFFF"/><text text-anchor="middle" pointer-events="none" font-family="sans-serif" dy="1.5625" font-size="25" fill="#FFFFFF"/><text text-anchor="middle" pointer-events="none" x="0" y="0" font-size="10px" fill="#FFFFFF" font-family="sans-serif"> Johnny</text><text text-anchor="middle" pointer-events="none" x="0" y="10" font-size="10px" fill="#FFFFFF" font-family="sans-serif"> Mnemo…</text></g><g class="node" transform="translate(-79.46123173257836,222.88826938264265)"><circle class="outline" cx="0" cy="0" r="25" fill="#F79767" stroke="#f36924" stroke-width="2px"/><text text-anchor="middle" pointer-events="none" font-family="sans-serif" dy="1.5625" font-size="25" fill="#FFFFFF"/><text text-anchor="middle" pointer-events="none" font-family="sans-serif" dy="1.5625" font-size="25" fill="#FFFFFF"/><text text-anchor="middle" pointer-events="none" font-family="sans-serif" dy="1.5625" font-size="25" fill="#FFFFFF"/><text text-anchor="middle" pointer-events="none" x="0" y="-5" font-size="10px" fill="#FFFFFF" font-family="sans-serif"> The</text><text text-anchor="middle" pointer-events="none" x="0" y="5" font-size="10px" fill="#FFFFFF" font-family="sans-serif"> Devil's</text><text text-anchor="middle" pointer-events="none" x="0" y="15" font-size="10px" fill="#FFFFFF" font-family="sans-serif"> Advoc…</text></g></g></svg>