<svg xmlns="http://www.w3.org/2000/svg" width="480.99090576171875" height="483.2060852050781" viewBox="-171.86349487304688 -130.94338989257812 480.99090576171875 483.2060852050781"><title>Neo4j Graph Visualization</title><desc>Created using Neo4j (http://www.neo4j.com/)</desc><g class="layer relationships"><g class="relationship" transform="translate(69.17716373286419 110.1696703529435) rotate(406.3502094770204)"><path class="outline" fill="#A5ABB6" stroke="none" d="M 25 0.5 L 38.53218234743683 0.5 L 38.53218234743683 -0.5 L 25 -0.5 Z M 84.09468234743683 0.5 L 97.62686469487366 0.5 L 97.62686469487366 3.5 L 104.62686469487366 0 L 97.62686469487366 -3.5 L 97.62686469487366 -0.5 L 84.09468234743683 -0.5 Z"/><text text-anchor="middle" pointer-events="none" font-size="8px" fill="#000000" x="61.31343234743683" y="3" font-family="sans-serif">ACTED_IN</text></g><g class="relationship" transform="translate(153.49815098707117 323.2627081960022) rotate(272.47367472147863)"><path class="outline" fill="#A5ABB6" stroke="none" d="M 25 0.5 L 33.42370002952131 0.5 L 33.42370002952131 -0.5 L 25 -0.5 Z M 78.98620002952131 0.5 L 87.40990005904261 0.5 L 87.40990005904261 3.5 L 94.40990005904261 0 L 87.40990005904261 -3.5 L 87.40990005904261 -0.5 L 78.98620002952131 -0.5 Z"/><text text-anchor="middle" pointer-events="none" font-size="8px" fill="#000000" x="56.20495002952131" y="3" font-family="sans-serif">ACTED_IN</text></g><g class="relationship" transform="translate(248.9769242143583 286.94587712095034) rotate(222.5737654327163)"><path class="outline" fill="#A5ABB6" stroke="none" d="M 25 0.5 L 35.04693327780547 0.5 L 35.04693327780547 -0.5 L 25 -0.5 Z M 80.60943327780546 0.5 L 90.65636655561094 0.5 L 90.65636655561094 3.5 L 97.65636655561094 0 L 90.65636655561094 -3.5 L 90.65636655561094 -0.5 L 80.60943327780546 -0.5 Z"/><text text-anchor="middle" pointer-events="none" font-size="8px" fill="#000000" x="57.82818327780547" y="3" transform="rotate(180 57.82818327780547 0)" font-family="sans-serif">ACTED_IN</text></g><g class="relationship" transform="translate(280.12742456716114 198.39568448357207) rotate(537.3754185900227)"><path class="outline" fill="#A5ABB6" stroke="none" d="M 25 0.5 L 34.520279650481676 0.5 L 34.520279650481676 -0.5 L 25 -0.5 Z M 80.08277965048168 0.5 L 89.60305930096335 0.5 L 89.60305930096335 3.5 L 96.60305930096335 0 L 89.60305930096335 -3.5 L 89.60305930096335 -0.5 L 80.08277965048168 -0.5 Z"/><text text-anchor="middle" pointer-events="none" font-size="8px" fill="#000000" x="57.301529650481676" y="3" transform="rotate(180 57.301529650481676 0)" font-family="sans-serif">ACTED_IN</text></g><g class="relationship" transform="translate(69.17716373286419 110.1696703529435) rotate(314.2373666885171)"><path class="outline" fill="#A5ABB6" stroke="none" d="M 25 0.5 L 39.48791423514159 0.5 L 39.48791423514159 -0.5 L 25 -0.5 Z M 85.05041423514159 0.5 L 99.53832847028318 0.5 L 99.53832847028318 3.5 L 106.53832847028318 0 L 99.53832847028318 -3.5 L 99.53832847028318 -0.5 L 85.05041423514159 -0.5 Z"/><text text-anchor="middle" pointer-events="none" font-size="8px" fill="#000000" x="62.26916423514159" y="3" font-family="sans-serif">ACTED_IN</text></g><g class="relationship" transform="translate(277.40449895780773 41.981615218979016) rotate(192.60984747237865)"><path class="outline" fill="#A5ABB6" stroke="none" d="M 25 0.5 L 33.38900184526706 0.5 L 33.38900184526706 -0.5 L 25 -0.5 Z M 78.95150184526706 0.5 L 87.34050369053412 0.5 L 87.34050369053412 3.5 L 94.34050369053412 0 L 87.34050369053412 -3.5 L 87.34050369053412 -0.5 L 78.95150184526706 -0.5 Z"/><text text-anchor="middle" pointer-events="none" font-size="8px" fill="#000000" x="56.17025184526706" y="3" transform="rotate(180 56.17025184526706 0)" font-family="sans-serif">ACTED_IN</text></g><g class="relationship" transform="translate(267.82413142639354 -45.691795204295694) rotate(510.03540308840354)"><path class="outline" fill="#A5ABB6" stroke="none" d="M 25 0.5 L 35.40484972193918 0.5 L 35.40484972193918 -0.5 L 25 -0.5 Z M 80.96734972193917 0.5 L 91.37219944387836 0.5 L 91.37219944387836 3.5 L 98.37219944387836 0 L 91.37219944387836 -3.5 L 91.37219944387836 -0.5 L 80.96734972193917 -0.5 Z"/><text text-anchor="middle" pointer-events="none" font-size="8px" fill="#000000" x="58.18609972193918" y="3" transform="rotate(180 58.18609972193918 0)" font-family="sans-serif">ACTED_IN</text></g><g class="relationship" transform="translate(199.11801789733406 -101.94339751783258) rotate(467.94573389920265)"><path class="outline" fill="#A5ABB6" stroke="none" d="M 25 0.5 L 35.66851847086113 0.5 L 35.66851847086113 -0.5 L 25 -0.5 Z M 81.23101847086113 0.5 L 91.89953694172226 0.5 L 91.89953694172226 3.5 L 98.89953694172226 0 L 91.89953694172226 -3.5 L 91.89953694172226 -0.5 L 81.23101847086113 -0.5 Z"/><text text-anchor="middle" pointer-events="none" font-size="8px" fill="#000000" x="58.44976847086113" y="3" transform="rotate(180 58.44976847086113 0)" font-family="sans-serif">ACTED_IN</text></g><g class="relationship" transform="translate(110.13460433704279 -97.43265702338263) rotate(425.85824432461294)"><path class="outline" fill="#A5ABB6" stroke="none" d="M 25 0.5 L 35.83185410965479 0.5 L 35.83185410965479 -0.5 L 25 -0.5 Z M 81.39435410965478 0.5 L 92.22620821930958 0.5 L 92.22620821930958 3.5 L 99.22620821930958 0 L 92.22620821930958 -3.5 L 92.22620821930958 -0.5 L 81.39435410965478 -0.5 Z"/><text text-anchor="middle" pointer-events="none" font-size="8px" fill="#000000" x="58.61310410965479" y="3" font-family="sans-serif">ACTED_IN</text></g><g class="relationship" transform="translate(69.17716373286419 110.1696703529435) rotate(215.64027118921297)"><path class="outline" fill="#A5ABB6" stroke="none" d="M 25 0.5 L 36.995301253784284 0.5 L 36.995301253784284 -0.5 L 25 -0.5 Z M 82.55780125378428 0.5 L 94.55310250756857 0.5 L 94.55310250756857 3.5 L 101.55310250756857 0 L 94.55310250756857 -3.5 L 94.55310250756857 -0.5 L 82.55780125378428 -0.5 Z"/><text text-anchor="middle" pointer-events="none" font-size="8px" fill="#000000" x="59.776551253784284" y="3" transform="rotate(180 59.776551253784284 0)" font-family="sans-serif">ACTED_IN</text></g><g class="relationship" transform="translate(-117.08395498234063 27.008033360127758) rotate(366.44317491588254)"><path class="outline" fill="#A5ABB6" stroke="none" d="M 25 0.5 L 25.91471548309722 0.5 L 25.91471548309722 -0.5 L 25 -0.5 Z M 51.02799673309722 0.5 L 51.94271221619444 0.5 L 51.94271221619444 3.5 L 58.94271221619444 0 L 51.94271221619444 -3.5 L 51.94271221619444 -0.5 L 51.02799673309722 -0.5 Z"/><text text-anchor="middle" pointer-events="none" font-size="8px" fill="#000000" x="38.47135610809722" y="3" font-family="sans-serif">AC…</text></g><g class="relationship" transform="translate(-142.86350066327324 81.16764147508347) rotate(337.7193959492745)"><path class="outline" fill="#A5ABB6" stroke="none" d="M 25 0.5 L 32.71991030987382 0.5 L 32.71991030987382 -0.5 L 25 -0.5 Z M 78.28241030987382 0.5 L 86.00232061974764 0.5 L 86.00232061974764 3.5 L 93.00232061974764 0 L 86.00232061974764 -3.5 L 86.00232061974764 -0.5 L 78.28241030987382 -0.5 Z"/><text text-anchor="middle" pointer-events="none" font-size="8px" fill="#000000" x="55.50116030987382" y="3" font-family="sans-serif">ACTED_IN</text></g><g class="relationship" transform="translate(-138.3297598071488 140.97926472288555) rotate(315.0292861802694)"><path class="outline" fill="#A5ABB6" stroke="none" d="M 25 0.5 L 47.68554919433299 0.5 L 47.68554919433299 -0.5 L 25 -0.5 Z M 93.24804919433299 0.5 L 115.93359838866598 0.5 L 115.93359838866598 3.5 L 122.93359838866598 0 L 115.93359838866598 -3.5 L 115.93359838866598 -0.5 L 93.24804919433299 -0.5 Z"/><text text-anchor="middle" pointer-events="none" font-size="8px" fill="#000000" x="70.46679919433299" y="3" font-family="sans-serif">ACTED_IN</text></g><g class="relationship" transform="translate(69.17716373286419 110.1696703529435) rotate(186.5101918397708)"><path class="outline" fill="#A5ABB6" stroke="none" d="M 25 0.5 L 28.250021664040496 0.5 L 28.250021664040496 -0.5 L 25 -0.5 Z M 73.8125216640405 0.5 L 77.06254332808099 0.5 L 77.06254332808099 3.5 L 84.06254332808099 0 L 77.06254332808099 -3.5 L 77.06254332808099 -0.5 L 73.8125216640405 -0.5 Z"/><text text-anchor="middle" pointer-events="none" font-size="8px" fill="#000000" x="51.031271664040496" y="3" transform="rotate(180 51.031271664040496 0)" font-family="sans-serif">ACTED_IN</text></g><g class="relationship" transform="translate(-117.08395498234063 27.008033360127758) rotate(402.2641334034765)"><path class="outline" fill="#A5ABB6" stroke="none" d="M 25 0.5 L 26.35141418599121 0.5 L 26.35141418599121 -0.5 L 25 -0.5 Z M 71.91391418599122 0.5 L 73.26532837198242 0.5 L 73.26532837198242 3.5 L 80.26532837198242 0 L 73.26532837198242 -3.5 L 73.26532837198242 -0.5 L 71.91391418599122 -0.5 Z"/><text text-anchor="middle" pointer-events="none" font-size="8px" fill="#000000" x="49.13266418599121" y="3" font-family="sans-serif">ACTED_IN</text></g><g class="relationship" transform="translate(-142.86350066327324 81.16764147508347) rotate(369.11586958940586)"><path class="outline" fill="#A5ABB6" stroke="none" d="M 25 0.5 L 26.222569550848945 0.5 L 26.222569550848945 -0.5 L 25 -0.5 Z M 71.78506955084895 0.5 L 73.00763910169789 0.5 L 73.00763910169789 3.5 L 80.00763910169789 0 L 73.00763910169789 -3.5 L 73.00763910169789 -0.5 L 71.78506955084895 -0.5 Z"/><text text-anchor="middle" pointer-events="none" font-size="8px" fill="#000000" x="49.003819550848945" y="3" font-family="sans-serif">ACTED_IN</text></g><g class="relationship" transform="translate(-138.3297598071488 140.97926472288555) rotate(336.46867224422306)"><path class="outline" fill="#A5ABB6" stroke="none" d="M 25 0.5 L 27.78894821376762 0.5 L 27.78894821376762 -0.5 L 25 -0.5 Z M 73.35144821376761 0.5 L 76.14039642753524 0.5 L 76.14039642753524 3.5 L 83.14039642753524 0 L 76.14039642753524 -3.5 L 76.14039642753524 -0.5 L 73.35144821376761 -0.5 Z"/><text text-anchor="middle" pointer-events="none" font-size="8px" fill="#000000" x="50.57019821376762" y="3" font-family="sans-serif">ACTED_IN</text></g><g class="relationship" transform="translate(69.17716373286419 110.1696703529435) rotate(516.2509872731339)"><path class="outline" fill="#A5ABB6" stroke="none" d="M 25 0.5 L 38.31031802393804 0.5 L 38.31031802393804 -0.5 L 25 -0.5 Z M 83.87281802393804 0.5 L 97.18313604787608 0.5 L 97.18313604787608 3.5 L 104.18313604787608 0 L 97.18313604787608 -3.5 L 97.18313604787608 -0.5 L 83.87281802393804 -0.5 Z"/><text text-anchor="middle" pointer-events="none" font-size="8px" fill="#000000" x="61.09156802393804" y="3" transform="rotate(180 61.09156802393804 0)" font-family="sans-serif">ACTED_IN</text></g><g class="relationship" transform="translate(-52.978433919640416 285.9795070335121) rotate(271.8100950691458)"><path class="outline" fill="#A5ABB6" stroke="none" d="M 25 0.5 L 35.641545684044964 0.5 L 35.641545684044964 -0.5 L 25 -0.5 Z M 81.20404568404496 0.5 L 91.84559136808993 0.5 L 91.84559136808993 3.5 L 98.84559136808993 0 L 91.84559136808993 -3.5 L 91.84559136808993 -0.5 L 81.20404568404496 -0.5 Z"/><text text-anchor="middle" pointer-events="none" font-size="8px" fill="#000000" x="58.422795684044964" y="3" font-family="sans-serif">ACTED_IN</text></g><g class="relationship" transform="translate(-117.08395498234063 27.008033360127758) rotate(423.2915119279327)"><path class="outline" fill="#A5ABB6" stroke="none" d="M 25 0.5 L 49.385911866802374 0.5 L 49.385911866802374 -0.5 L 25 -0.5 Z M 94.94841186680237 0.5 L 119.33432373360475 0.5 L 119.33432373360475 3.5 L 126.33432373360475 0 L 119.33432373360475 -3.5 L 119.33432373360475 -0.5 L 94.94841186680237 -0.5 Z"/><text text-anchor="middle" pointer-events="none" font-size="8px" fill="#000000" x="72.16716186680237" y="3" font-family="sans-serif">ACTED_IN</text></g><g class="relationship" transform="translate(-142.86350066327324 81.16764147508347) rotate(400.82264253999676)"><path class="outline" fill="#A5ABB6" stroke="none" d="M 25 0.5 L 35.69337835501777 0.5 L 35.69337835501777 -0.5 L 25 -0.5 Z M 81.25587835501777 0.5 L 91.94925671003554 0.5 L 91.94925671003554 3.5 L 98.94925671003554 0 L 91.94925671003554 -3.5 L 91.94925671003554 -0.5 L 81.25587835501777 -0.5 Z"/><text text-anchor="middle" pointer-events="none" font-size="8px" fill="#000000" x="58.47462835501777" y="3" font-family="sans-serif">ACTED_IN</text></g><g class="relationship" transform="translate(-138.3297598071488 140.97926472288555) rotate(373.3702033040076)"><path class="outline" fill="#A5ABB6" stroke="none" d="M 25 0.5 L 27.374993420970227 0.5 L 27.374993420970227 -0.5 L 25 -0.5 Z M 57.37499342097023 0.5 L 59.749986841940455 0.5 L 59.749986841940455 3.5 L 66.74998684194045 0 L 59.749986841940455 -3.5 L 59.749986841940455 -0.5 L 57.37499342097023 -0.5 Z"/><text text-anchor="middle" pointer-events="none" font-size="8px" fill="#000000" x="42.37499342097023" y="3" font-family="sans-serif">ACT…</text></g></g><g class="layer nodes"><g class="node" transform="translate(69.17716373286419,110.1696703529435)"><circle class="outline" cx="0" cy="0" r="25" fill="#57C7E3" stroke="#23b3d7" stroke-width="2px"/><text text-anchor="middle" pointer-events="none" font-family="sans-serif" dy="1.5625" font-size="25" fill="#2A2C34"/><text text-anchor="middle" pointer-events="none" font-family="sans-serif" dy="1.5625" font-size="25" fill="#2A2C34"/><text text-anchor="middle" pointer-events="none" x="0" y="0" font-size="10px" fill="#2A2C34" font-family="sans-serif"> Hugo</text><text text-anchor="middle" pointer-events="none" x="0" y="10" font-size="10px" fill="#2A2C34" font-family="sans-serif"> Weaving</text></g><g class="node" transform="translate(158.65192493846507,203.96407934315883)"><circle class="outline" cx="0" cy="0" r="25" fill="#F79767" stroke="#f36924" stroke-width="2px"/><text text-anchor="middle" pointer-events="none" font-family="sans-serif" dy="1.5625" font-size="25" fill="#FFFFFF"/><text text-anchor="middle" pointer-events="none" font-family="sans-serif" dy="1.5625" font-size="25" fill="#FFFFFF"/><text text-anchor="middle" pointer-events="none" x="0" y="0" font-size="10px" fill="#FFFFFF" font-family="sans-serif"> Cloud</text><text text-anchor="middle" pointer-events="none" x="0" y="10" font-size="10px" fill="#FFFFFF" font-family="sans-serif"> Atlas</text></g><g class="node" transform="translate(153.49815098707117,323.2627081960022)"><circle class="outline" cx="0" cy="0" r="25" fill="#57C7E3" stroke="#23b3d7" stroke-width="2px"/><text text-anchor="middle" pointer-events="none" font-family="sans-serif" dy="1.5625" font-size="25" fill="#2A2C34"/><text text-anchor="middle" pointer-events="none" font-family="sans-serif" dy="1.5625" font-size="25" fill="#2A2C34"/><text text-anchor="middle" pointer-events="none" x="0" y="0" font-size="10px" fill="#2A2C34" font-family="sans-serif"> Tom</text><text text-anchor="middle" pointer-events="none" x="0" y="10" font-size="10px" fill="#2A2C34" font-family="sans-serif"> Hanks</text></g><g class="node" transform="translate(248.9769242143583,286.94587712095034)"><circle class="outline" cx="0" cy="0" r="25" fill="#57C7E3" stroke="#23b3d7" stroke-width="2px"/><text text-anchor="middle" pointer-events="none" font-family="sans-serif" dy="1.5625" font-size="25" fill="#2A2C34"/><text text-anchor="middle" pointer-events="none" font-family="sans-serif" dy="1.5625" font-size="25" fill="#2A2C34"/><text text-anchor="middle" pointer-events="none" x="0" y="0" font-size="10px" fill="#2A2C34" font-family="sans-serif"> Jim</text><text text-anchor="middle" pointer-events="none" x="0" y="10" font-size="10px" fill="#2A2C34" font-family="sans-serif"> Broadb…</text></g><g class="node" transform="translate(280.12742456716114,198.39568448357207)"><circle class="outline" cx="0" cy="0" r="25" fill="#57C7E3" stroke="#23b3d7" stroke-width="2px"/><text text-anchor="middle" pointer-events="none" font-family="sans-serif" dy="1.5625" font-size="25" fill="#2A2C34"/><text text-anchor="middle" pointer-events="none" font-family="sans-serif" dy="1.5625" font-size="25" fill="#2A2C34"/><text text-anchor="middle" pointer-events="none" x="0" y="0" font-size="10px" fill="#2A2C34" font-family="sans-serif"> Halle</text><text text-anchor="middle" pointer-events="none" x="0" y="10" font-size="10px" fill="#2A2C34" font-family="sans-serif"> Berry</text></g><g class="node" transform="translate(160.94257711685626,15.9282741237855)"><circle class="outline" cx="0" cy="0" r="25" fill="#F79767" stroke="#f36924" stroke-width="2px"/><text text-anchor="middle" pointer-events="none" font-family="sans-serif" dy="1.5625" font-size="25" fill="#FFFFFF"/><text text-anchor="middle" pointer-events="none" font-family="sans-serif" dy="1.5625" font-size="25" fill="#FFFFFF"/><text text-anchor="middle" pointer-events="none" x="0" y="0" font-size="10px" fill="#FFFFFF" font-family="sans-serif"> V for</text><text text-anchor="middle" pointer-events="none" x="0" y="10" font-size="10px" fill="#FFFFFF" font-family="sans-serif"> Vendetta</text></g><g class="node" transform="translate(277.40449895780773,41.981615218979016)"><circle class="outline" cx="0" cy="0" r="25" fill="#57C7E3" stroke="#23b3d7" stroke-width="2px"/><text text-anchor="middle" pointer-events="none" font-family="sans-serif" dy="1.5625" font-size="25" fill="#2A2C34"/><text text-anchor="middle" pointer-events="none" x="0" y="5" font-size="10px" fill="#2A2C34" font-family="sans-serif"> John Hurt</text></g><g class="node" transform="translate(267.82413142639354,-45.691795204295694)"><circle class="outline" cx="0" cy="0" r="25" fill="#57C7E3" stroke="#23b3d7" stroke-width="2px"/><text text-anchor="middle" pointer-events="none" font-family="sans-serif" dy="1.5625" font-size="25" fill="#2A2C34"/><text text-anchor="middle" pointer-events="none" font-family="sans-serif" dy="1.5625" font-size="25" fill="#2A2C34"/><text text-anchor="middle" pointer-events="none" x="0" y="0" font-size="10px" fill="#2A2C34" font-family="sans-serif"> Stephen</text><text text-anchor="middle" pointer-events="none" x="0" y="10" font-size="10px" fill="#2A2C34" font-family="sans-serif"> Rea</text></g><g class="node" transform="translate(199.11801789733406,-101.94339751783258)"><circle class="outline" cx="0" cy="0" r="25" fill="#57C7E3" stroke="#23b3d7" stroke-width="2px"/><text text-anchor="middle" pointer-events="none" font-family="sans-serif" dy="1.5625" font-size="25" fill="#2A2C34"/><text text-anchor="middle" pointer-events="none" font-family="sans-serif" dy="1.5625" font-size="25" fill="#2A2C34"/><text text-anchor="middle" pointer-events="none" x="0" y="0" font-size="10px" fill="#2A2C34" font-family="sans-serif"> Natalie</text><text text-anchor="middle" pointer-events="none" x="0" y="10" font-size="10px" fill="#2A2C34" font-family="sans-serif"> Portman</text></g><g class="node" transform="translate(110.13460433704279,-97.43265702338263)"><circle class="outline" cx="0" cy="0" r="25" fill="#57C7E3" stroke="#23b3d7" stroke-width="2px"/><text text-anchor="middle" pointer-events="none" font-family="sans-serif" dy="1.5625" font-size="25" fill="#2A2C34"/><text text-anchor="middle" pointer-events="none" x="0" y="5" font-size="10px" fill="#2A2C34" font-family="sans-serif"> Ben Miles</text></g><g class="node" transform="translate(-33.67145513660422,36.427895551044514)"><circle class="outline" cx="0" cy="0" r="25" fill="#F79767" stroke="#f36924" stroke-width="2px"/><text text-anchor="middle" pointer-events="none" font-family="sans-serif" dy="1.5625" font-size="25" fill="#FFFFFF"/><text text-anchor="middle" pointer-events="none" font-family="sans-serif" dy="1.5625" font-size="25" fill="#FFFFFF"/><text text-anchor="middle" pointer-events="none" font-family="sans-serif" dy="1.5625" font-size="25" fill="#FFFFFF"/><text text-anchor="middle" pointer-events="none" x="0" y="-5" font-size="10px" fill="#FFFFFF" font-family="sans-serif"> The</text><text text-anchor="middle" pointer-events="none" x="0" y="5" font-size="10px" fill="#FFFFFF" font-family="sans-serif"> Matrix</text><text text-anchor="middle" pointer-events="none" x="0" y="15" font-size="10px" fill="#FFFFFF" font-family="sans-serif"> Revol…</text></g><g class="node" transform="translate(-117.08395498234063,27.008033360127758)"><circle class="outline" cx="0" cy="0" r="25" fill="#57C7E3" stroke="#23b3d7" stroke-width="2px"/><text text-anchor="middle" pointer-events="none" font-family="sans-serif" dy="1.5625" font-size="25" fill="#2A2C34"/><text text-anchor="middle" pointer-events="none" font-family="sans-serif" dy="1.5625" font-size="25" fill="#2A2C34"/><text text-anchor="middle" pointer-events="none" x="0" y="0" font-size="10px" fill="#2A2C34" font-family="sans-serif"> Laurence</text><text text-anchor="middle" pointer-events="none" x="0" y="10" font-size="10px" fill="#2A2C34" font-family="sans-serif"> Fishbur…</text></g><g class="node" transform="translate(-142.86350066327324,81.16764147508347)"><circle class="outline" cx="0" cy="0" r="25" fill="#57C7E3" stroke="#23b3d7" stroke-width="2px"/><text text-anchor="middle" pointer-events="none" font-family="sans-serif" dy="1.5625" font-size="25" fill="#2A2C34"/><text text-anchor="middle" pointer-events="none" x="0" y="5" font-size="10px" fill="#2A2C34" font-family="sans-serif"> Carrie-A…</text></g><g class="node" transform="translate(-138.3297598071488,140.97926472288555)"><circle class="outline" cx="0" cy="0" r="25" fill="#57C7E3" stroke="#23b3d7" stroke-width="2px"/><text text-anchor="middle" pointer-events="none" font-family="sans-serif" dy="1.5625" font-size="25" fill="#2A2C34"/><text text-anchor="middle" pointer-events="none" font-family="sans-serif" dy="1.5625" font-size="25" fill="#2A2C34"/><text text-anchor="middle" pointer-events="none" x="0" y="0" font-size="10px" fill="#2A2C34" font-family="sans-serif"> Keanu</text><text text-anchor="middle" pointer-events="none" x="0" y="10" font-size="10px" fill="#2A2C34" font-family="sans-serif"> Reeves</text></g><g class="node" transform="translate(-39.18211195026939,97.80416467722603)"><circle class="outline" cx="0" cy="0" r="25" fill="#F79767" stroke="#f36924" stroke-width="2px"/><text text-anchor="middle" pointer-events="none" font-family="sans-serif" dy="1.5625" font-size="25" fill="#FFFFFF"/><text text-anchor="middle" pointer-events="none" font-family="sans-serif" dy="1.5625" font-size="25" fill="#FFFFFF"/><text text-anchor="middle" pointer-events="none" font-family="sans-serif" dy="1.5625" font-size="25" fill="#FFFFFF"/><text text-anchor="middle" pointer-events="none" x="0" y="-5" font-size="10px" fill="#FFFFFF" font-family="sans-serif"> The</text><text text-anchor="middle" pointer-events="none" x="0" y="5" font-size="10px" fill="#FFFFFF" font-family="sans-serif"> Matrix</text><text text-anchor="middle" pointer-events="none" x="0" y="15" font-size="10px" fill="#FFFFFF" font-family="sans-serif"> Reloa…</text></g><g class="node" transform="translate(-49.066540087384325,162.19571331253638)"><circle class="outline" cx="0" cy="0" r="25" fill="#F79767" stroke="#f36924" stroke-width="2px"/><text text-anchor="middle" pointer-events="none" font-family="sans-serif" dy="1.5625" font-size="25" fill="#FFFFFF"/><text text-anchor="middle" pointer-events="none" font-family="sans-serif" dy="1.5625" font-size="25" fill="#FFFFFF"/><text text-anchor="middle" pointer-events="none" x="0" y="0" font-size="10px" fill="#FFFFFF" font-family="sans-serif"> The</text><text text-anchor="middle" pointer-events="none" x="0" y="10" font-size="10px" fill="#FFFFFF" font-family="sans-serif"> Matrix</text></g><g class="node" transform="translate(-52.978433919640416,285.9795070335121)"><circle class="outline" cx="0" cy="0" r="25" fill="#57C7E3" stroke="#23b3d7" stroke-width="2px"/><text text-anchor="middle" pointer-events="none" font-family="sans-serif" dy="1.5625" font-size="25" fill="#2A2C34"/><text text-anchor="middle" pointer-events="none" font-family="sans-serif" dy="1.5625" font-size="25" fill="#2A2C34"/><text text-anchor="middle" pointer-events="none" x="0" y="0" font-size="10px" fill="#2A2C34" font-family="sans-serif"> Emil</text><text text-anchor="middle" pointer-events="none" x="0" y="10" font-size="10px" fill="#2A2C34" font-family="sans-serif"> Eifrem</text></g></g></svg>