<svg xmlns="http://www.w3.org/2000/svg" width="717.6953125" height="353.490966796875" viewBox="-453.8390808105469 -81.18457794189453 717.6953125 353.490966796875"><title>Neo4j Graph Visualization</title><desc>Created using Neo4j (http://www.neo4j.com/)</desc><g class="layer relationships"><g class="relationship" transform="translate(-62.26039204529235 76.39859550610831) rotate(268.23710129804317)"><path class="outline" fill="#A5ABB6" stroke="none" d="M 25 0.5 L 26.092235038361252 0.5 L 26.092235038361252 -0.5 L 25 -0.5 Z M 51.20551628836125 0.5 L 52.297751326722505 0.5 L 52.297751326722505 3.5 L 59.297751326722505 0 L 52.297751326722505 -3.5 L 52.297751326722505 -0.5 L 51.20551628836125 -0.5 Z"/><text text-anchor="middle" pointer-events="none" font-size="8px" fill="#000000" x="38.64887566336125" y="3" transform="rotate(180 38.64887566336125 0)" font-family="sans-serif">AC…</text></g><g class="relationship" transform="translate(-20.375003655772048 -52.18457616809184) rotate(495.0989504835168)"><path class="outline" fill="#A5ABB6" stroke="none" d="M 25 0.5 L 27.897003623649262 0.5 L 27.897003623649262 -0.5 L 25 -0.5 Z M 27.897003623649262 0.5 L 30.794007247298524 0.5 L 30.794007247298524 3.5 L 37.794007247298524 0 L 30.794007247298524 -3.5 L 30.794007247298524 -0.5 L 27.897003623649262 -0.5 Z"/><text text-anchor="middle" pointer-events="none" font-size="8px" fill="#000000" x="27.897003623649262" y="3" transform="rotate(180 27.897003623649262 0)" font-family="sans-serif"/></g><g class="relationship selected" transform="translate(-424.839065915893 142.87428267448826) rotate(337.27990167855864)"><path class="outline" fill="#A5ABB6" stroke="none" d="M 25 0.5 L 168.18930244969735 0.5 L 168.18930244969735 -0.5 L 25 -0.5 Z M 215.07992744969735 0.5 L 358.2692298993947 0.5 L 358.2692298993947 3.5 L 365.2692298993947 0 L 358.2692298993947 -3.5 L 358.2692298993947 -0.5 L 215.07992744969735 -0.5 Z"/><text text-anchor="middle" pointer-events="none" font-size="8px" fill="#000000" x="191.63461494969735" y="3" font-family="sans-serif">DIRECTED</text></g><g class="relationship" transform="translate(-412.78596998792057 19.2613408480954) rotate(355.5429254451668)"><path class="outline" fill="#A5ABB6" stroke="none" d="M 25 0.5 L 147.5485263798286 0.5 L 147.5485263798286 -0.5 L 25 -0.5 Z M 194.4391513798286 0.5 L 316.9876777596572 0.5 L 316.9876777596572 3.5 L 323.9876777596572 0 L 316.9876777596572 -3.5 L 316.9876777596572 -0.5 L 194.4391513798286 -0.5 Z"/><text text-anchor="middle" pointer-events="none" font-size="8px" fill="#000000" x="170.9938388798286" y="3" font-family="sans-serif">DIRECTED</text></g><g class="relationship" transform="translate(-62.26039204529235 76.39859550610831) rotate(355.81287731238945)"><path class="outline" fill="#A5ABB6" stroke="none" d="M 25 0.5 L 54.937846098315575 0.5 L 54.937846098315575 -0.5 L 25 -0.5 Z M 100.50034609831557 0.5 L 130.43819219663115 0.5 L 130.43819219663115 3.5 L 137.43819219663115 0 L 130.43819219663115 -3.5 L 130.43819219663115 -0.5 L 100.50034609831557 -0.5 Z"/><text text-anchor="middle" pointer-events="none" font-size="8px" fill="#000000" x="77.71909609831557" y="3" font-family="sans-serif">ACTED_IN</text></g><g class="relationship" transform="translate(234.85624163467483 33.31525306419422) rotate(526.9879189690806)"><path class="outline" fill="#A5ABB6" stroke="none" d="M 25 0.5 L 42.39106626677224 0.5 L 42.39106626677224 -0.5 L 25 -0.5 Z M 89.28169126677224 0.5 L 106.67275753354448 0.5 L 106.67275753354448 3.5 L 113.67275753354448 0 L 106.67275753354448 -3.5 L 106.67275753354448 -0.5 L 89.28169126677224 -0.5 Z"/><text text-anchor="middle" pointer-events="none" font-size="8px" fill="#000000" x="65.83637876677224" y="3" transform="rotate(180 65.83637876677224 0)" font-family="sans-serif">DIRECTED</text></g><g class="relationship" transform="translate(-62.26039204529235 76.39859550610831) rotate(479.99430072486405)"><path class="outline" fill="#A5ABB6" stroke="none" d="M 25 0.5 L 70.07748821441245 0.5 L 70.07748821441245 -0.5 L 25 -0.5 Z M 115.63998821441245 0.5 L 160.7174764288249 0.5 L 160.7174764288249 3.5 L 167.7174764288249 0 L 160.7174764288249 -3.5 L 160.7174764288249 -0.5 L 115.63998821441245 -0.5 Z"/><text text-anchor="middle" pointer-events="none" font-size="8px" fill="#000000" x="92.85873821441245" y="3" transform="rotate(180 92.85873821441245 0)" font-family="sans-serif">ACTED_IN</text></g><g class="relationship" transform="translate(-424.839065915893 142.87428267448826) rotate(380.66792708481756)"><path class="outline" fill="#A5ABB6" stroke="none" d="M 25 0.5 L 115.32951502107608 0.5 L 115.32951502107608 -0.5 L 25 -0.5 Z M 162.22014002107608 0.5 L 252.54965504215215 0.5 L 252.54965504215215 3.5 L 259.54965504215215 0 L 252.54965504215215 -3.5 L 252.54965504215215 -0.5 L 162.22014002107608 -0.5 Z"/><text text-anchor="middle" pointer-events="none" font-size="8px" fill="#000000" x="138.77482752107608" y="3" font-family="sans-serif">DIRECTED</text></g><g class="relationship" transform="translate(-412.78596998792057 19.2613408480954) rotate(401.39393955593624)"><path class="outline" fill="#A5ABB6" stroke="none" d="M 25 0.5 L 142.46942641380627 0.5 L 142.46942641380627 -0.5 L 25 -0.5 Z M 189.36005141380627 0.5 L 306.82947782761255 0.5 L 306.82947782761255 3.5 L 313.82947782761255 0 L 306.82947782761255 -3.5 L 306.82947782761255 -0.5 L 189.36005141380627 -0.5 Z"/><text text-anchor="middle" pointer-events="none" font-size="8px" fill="#000000" x="165.91473891380627" y="3" font-family="sans-serif">DIRECTED</text></g><g class="relationship" transform="translate(-62.26039204529235 76.39859550610831) rotate(505.4939057603578)"><path class="outline" fill="#A5ABB6" stroke="none" d="M 25 0.5 L 50.24727590860735 0.5 L 50.24727590860735 -0.5 L 25 -0.5 Z M 95.80977590860735 0.5 L 121.0570518172147 0.5 L 121.0570518172147 3.5 L 128.0570518172147 0 L 121.0570518172147 -3.5 L 121.0570518172147 -0.5 L 95.80977590860735 -0.5 Z"/><text text-anchor="middle" pointer-events="none" font-size="8px" fill="#000000" x="73.02852590860735" y="3" transform="rotate(180 73.02852590860735 0)" font-family="sans-serif">ACTED_IN</text></g><g class="relationship" transform="translate(-424.839065915893 142.87428267448826) rotate(364.89021404393634)"><path class="outline" fill="#A5ABB6" stroke="none" d="M 25 0.5 L 91.71139869661339 0.5 L 91.71139869661339 -0.5 L 25 -0.5 Z M 138.6020236966134 0.5 L 205.31342239322677 0.5 L 205.31342239322677 3.5 L 212.31342239322677 0 L 205.31342239322677 -3.5 L 205.31342239322677 -0.5 L 138.6020236966134 -0.5 Z"/><text text-anchor="middle" pointer-events="none" font-size="8px" fill="#000000" x="115.15671119661339" y="3" font-family="sans-serif">DIRECTED</text></g><g class="relationship" transform="translate(-412.78596998792057 19.2613408480954) rotate(392.6607761612596)"><path class="outline" fill="#A5ABB6" stroke="none" d="M 25 0.5 L 106.32567717027541 0.5 L 106.32567717027541 -0.5 L 25 -0.5 Z M 153.2163021702754 0.5 L 234.54197934055082 0.5 L 234.54197934055082 3.5 L 241.54197934055082 0 L 234.54197934055082 -3.5 L 234.54197934055082 -0.5 L 153.2163021702754 -0.5 Z"/><text text-anchor="middle" pointer-events="none" font-size="8px" fill="#000000" x="129.7709896702754" y="3" font-family="sans-serif">DIRECTED</text></g><g class="relationship" transform="translate(-62.26039204529235 76.39859550610831) rotate(535.0140091540403)"><path class="outline" fill="#A5ABB6" stroke="none" d="M 25 0.5 L 59.527222708706276 0.5 L 59.527222708706276 -0.5 L 25 -0.5 Z M 105.08972270870628 0.5 L 139.61694541741255 0.5 L 139.61694541741255 3.5 L 146.61694541741255 0 L 139.61694541741255 -3.5 L 139.61694541741255 -0.5 L 105.08972270870628 -0.5 Z"/><text text-anchor="middle" pointer-events="none" font-size="8px" fill="#000000" x="82.30847270870628" y="3" transform="rotate(180 82.30847270870628 0)" font-family="sans-serif">ACTED_IN</text></g><g class="relationship" transform="translate(-424.839065915893 142.87428267448826) rotate(344.93918644765654)"><path class="outline" fill="#A5ABB6" stroke="none" d="M 25 0.5 L 72.2681794836776 0.5 L 72.2681794836776 -0.5 L 25 -0.5 Z M 119.1588044836776 0.5 L 166.4269839673552 0.5 L 166.4269839673552 3.5 L 173.4269839673552 0 L 166.4269839673552 -3.5 L 166.4269839673552 -0.5 L 119.1588044836776 -0.5 Z"/><text text-anchor="middle" pointer-events="none" font-size="8px" fill="#000000" x="95.7134919836776" y="3" font-family="sans-serif">DIRECTED</text></g><g class="relationship" transform="translate(-412.78596998792057 19.2613408480954) rotate(381.8645513701487)"><path class="outline" fill="#A5ABB6" stroke="none" d="M 25 0.5 L 69.79235046173639 0.5 L 69.79235046173639 -0.5 L 25 -0.5 Z M 116.68297546173639 0.5 L 161.47532592347278 0.5 L 161.47532592347278 3.5 L 168.47532592347278 0 L 161.47532592347278 -3.5 L 161.47532592347278 -0.5 L 116.68297546173639 -0.5 Z"/><text text-anchor="middle" pointer-events="none" font-size="8px" fill="#000000" x="93.23766296173639" y="3" font-family="sans-serif">DIRECTED</text></g></g><g class="layer nodes"><g class="node" transform="translate(-62.26039204529235,76.39859550610831)"><circle class="outline" cx="0" cy="0" r="25" fill="#57C7E3" stroke="#23b3d7" stroke-width="2px"/><text text-anchor="middle" pointer-events="none" font-family="sans-serif" dy="1.5625" font-size="25" fill="#2A2C34"/><text text-anchor="middle" pointer-events="none" font-family="sans-serif" dy="1.5625" font-size="25" fill="#2A2C34"/><text text-anchor="middle" pointer-events="none" x="0" y="0" font-size="10px" fill="#2A2C34" font-family="sans-serif"> Hugo</text><text text-anchor="middle" pointer-events="none" x="0" y="10" font-size="10px" fill="#2A2C34" font-family="sans-serif"> Weaving</text></g><g class="node" transform="translate(-20.375003655772048,-52.18457616809184)"><circle class="outline" cx="0" cy="0" r="25" fill="#57C7E3" stroke="#23b3d7" stroke-width="2px"/><text text-anchor="middle" pointer-events="none" font-family="sans-serif" dy="1.5625" font-size="25" fill="#2A2C34"/><text text-anchor="middle" pointer-events="none" font-family="sans-serif" dy="1.5625" font-size="25" fill="#2A2C34"/><text text-anchor="middle" pointer-events="none" x="0" y="0" font-size="10px" fill="#2A2C34" font-family="sans-serif"> Tom</text><text text-anchor="middle" pointer-events="none" x="0" y="10" font-size="10px" fill="#2A2C34" font-family="sans-serif"> Tykwer</text></g><g class="node" transform="translate(-64.85368863701655,-7.8592568966754754)"><circle class="outline" cx="0" cy="0" r="25" fill="#F79767" stroke="#f36924" stroke-width="2px"/><text text-anchor="middle" pointer-events="none" font-family="sans-serif" dy="1.5625" font-size="25" fill="#FFFFFF"/><text text-anchor="middle" pointer-events="none" font-family="sans-serif" dy="1.5625" font-size="25" fill="#FFFFFF"/><text text-anchor="middle" pointer-events="none" x="0" y="0" font-size="10px" fill="#FFFFFF" font-family="sans-serif"> Cloud</text><text text-anchor="middle" pointer-events="none" x="0" y="10" font-size="10px" fill="#FFFFFF" font-family="sans-serif"> Atlas</text></g><g class="node" transform="translate(-424.839065915893,142.87428267448826)"><circle class="outline" cx="0" cy="0" r="25" fill="#57C7E3" stroke="#23b3d7" stroke-width="2px"/><text text-anchor="middle" pointer-events="none" font-family="sans-serif" dy="1.5625" font-size="25" fill="#2A2C34"/><text text-anchor="middle" pointer-events="none" font-family="sans-serif" dy="1.5625" font-size="25" fill="#2A2C34"/><text text-anchor="middle" pointer-events="none" x="0" y="0" font-size="10px" fill="#2A2C34" font-family="sans-serif"> Lana</text><text text-anchor="middle" pointer-events="none" x="0" y="10" font-size="10px" fill="#2A2C34" font-family="sans-serif"> Wacho…</text></g><g class="node" transform="translate(-412.78596998792057,19.2613408480954)"><circle class="outline" cx="0" cy="0" r="25" fill="#57C7E3" stroke="#23b3d7" stroke-width="2px"/><text text-anchor="middle" pointer-events="none" font-family="sans-serif" dy="1.5625" font-size="25" fill="#2A2C34"/><text text-anchor="middle" pointer-events="none" font-family="sans-serif" dy="1.5625" font-size="25" fill="#2A2C34"/><text text-anchor="middle" pointer-events="none" x="0" y="0" font-size="10px" fill="#2A2C34" font-family="sans-serif"> Lilly</text><text text-anchor="middle" pointer-events="none" x="0" y="10" font-size="10px" fill="#2A2C34" font-family="sans-serif"> Wacho…</text></g><g class="node" transform="translate(234.85624163467483,33.31525306419422)"><circle class="outline" cx="0" cy="0" r="25" fill="#57C7E3" stroke="#23b3d7" stroke-width="2px"/><text text-anchor="middle" pointer-events="none" font-family="sans-serif" dy="1.5625" font-size="25" fill="#2A2C34"/><text text-anchor="middle" pointer-events="none" font-family="sans-serif" dy="1.5625" font-size="25" fill="#2A2C34"/><text text-anchor="middle" pointer-events="none" x="0" y="0" font-size="10px" fill="#2A2C34" font-family="sans-serif"> James</text><text text-anchor="middle" pointer-events="none" x="0" y="10" font-size="10px" fill="#2A2C34" font-family="sans-serif"> Marshall</text></g><g class="node" transform="translate(99.74423839168445,64.53832564879696)"><circle class="outline" cx="0" cy="0" r="25" fill="#F79767" stroke="#f36924" stroke-width="2px"/><text text-anchor="middle" pointer-events="none" font-family="sans-serif" dy="1.5625" font-size="25" fill="#FFFFFF"/><text text-anchor="middle" pointer-events="none" font-family="sans-serif" dy="1.5625" font-size="25" fill="#FFFFFF"/><text text-anchor="middle" pointer-events="none" x="0" y="0" font-size="10px" fill="#FFFFFF" font-family="sans-serif"> V for</text><text text-anchor="middle" pointer-events="none" x="0" y="10" font-size="10px" fill="#FFFFFF" font-family="sans-serif"> Vendetta</text></g><g class="node" transform="translate(-158.6025282297743,243.30640993223224)"><circle class="outline" cx="0" cy="0" r="25" fill="#F79767" stroke="#f36924" stroke-width="2px"/><text text-anchor="middle" pointer-events="none" font-family="sans-serif" dy="1.5625" font-size="25" fill="#FFFFFF"/><text text-anchor="middle" pointer-events="none" font-family="sans-serif" dy="1.5625" font-size="25" fill="#FFFFFF"/><text text-anchor="middle" pointer-events="none" font-family="sans-serif" dy="1.5625" font-size="25" fill="#FFFFFF"/><text text-anchor="middle" pointer-events="none" x="0" y="-5" font-size="10px" fill="#FFFFFF" font-family="sans-serif"> The</text><text text-anchor="middle" pointer-events="none" x="0" y="5" font-size="10px" fill="#FFFFFF" font-family="sans-serif"> Matrix</text><text text-anchor="middle" pointer-events="none" x="0" y="15" font-size="10px" fill="#FFFFFF" font-family="sans-serif"> Revol…</text></g><g class="node" transform="translate(-188.38949508244406,163.10448041607918)"><circle class="outline" cx="0" cy="0" r="25" fill="#F79767" stroke="#f36924" stroke-width="2px"/><text text-anchor="middle" pointer-events="none" font-family="sans-serif" dy="1.5625" font-size="25" fill="#FFFFFF"/><text text-anchor="middle" pointer-events="none" font-family="sans-serif" dy="1.5625" font-size="25" fill="#FFFFFF"/><text text-anchor="middle" pointer-events="none" font-family="sans-serif" dy="1.5625" font-size="25" fill="#FFFFFF"/><text text-anchor="middle" pointer-events="none" x="0" y="-5" font-size="10px" fill="#FFFFFF" font-family="sans-serif"> The</text><text text-anchor="middle" pointer-events="none" x="0" y="5" font-size="10px" fill="#FFFFFF" font-family="sans-serif"> Matrix</text><text text-anchor="middle" pointer-events="none" x="0" y="15" font-size="10px" fill="#FFFFFF" font-family="sans-serif"> Reloa…</text></g><g class="node" transform="translate(-233.22793523498078,91.31419573154942)"><circle class="outline" cx="0" cy="0" r="25" fill="#F79767" stroke="#f36924" stroke-width="2px"/><text text-anchor="middle" pointer-events="none" font-family="sans-serif" dy="1.5625" font-size="25" fill="#FFFFFF"/><text text-anchor="middle" pointer-events="none" font-family="sans-serif" dy="1.5625" font-size="25" fill="#FFFFFF"/><text text-anchor="middle" pointer-events="none" x="0" y="0" font-size="10px" fill="#FFFFFF" font-family="sans-serif"> The</text><text text-anchor="middle" pointer-events="none" x="0" y="10" font-size="10px" fill="#FFFFFF" font-family="sans-serif"> Matrix</text></g></g></svg>